<svg width="749" height="492" viewBox="0 0 749 492" fill="none" xmlns="http://www.w3.org/2000/svg">
<rect width="749" height="492" fill="#1E1E1E"/>
<rect width="749" height="492" fill="white"/>
<g filter="url(#filter0_d_0_1)">
<rect x="70" y="56" width="594" height="60" fill="#D9D9D9"/>
<rect x="71.5" y="57.5" width="591" height="57" stroke="#091A85" stroke-width="3"/>
</g>
<line x1="129.5" y1="56.025" x2="128.5" y2="116.025" stroke="#091A85" stroke-width="3"/>
<line x1="189.5" y1="56.025" x2="188.5" y2="116.025" stroke="#091A85" stroke-width="3"/>
<line x1="369.5" y1="56.025" x2="368.5" y2="116.025" stroke="#091A85" stroke-width="3"/>
<line x1="429.5" y1="56.025" x2="428.5" y2="116.025" stroke="#091A85" stroke-width="3"/>
<line x1="489.5" y1="56.025" x2="488.5" y2="116.025" stroke="#091A85" stroke-width="3"/>
<line x1="549.5" y1="56.025" x2="548.5" y2="116.025" stroke="#091A85" stroke-width="3"/>
<line x1="609.5" y1="56.025" x2="608.5" y2="116.025" stroke="#091A85" stroke-width="3"/>
<line x1="249.5" y1="56.025" x2="248.5" y2="116.025" stroke="#091A85" stroke-width="3"/>
<line x1="309.5" y1="56.025" x2="308.5" y2="116.025" stroke="#091A85" stroke-width="3"/>
<path d="M95.3523 97L103.159 81.5568V81.4205H94.1591V79.5455H105.341V81.5227L97.5682 97H95.3523Z" fill="black"/>
<path d="M153.807 97V95.4659L159.568 89.1591C160.244 88.4205 160.801 87.7784 161.239 87.233C161.676 86.6818 162 86.1648 162.21 85.6818C162.426 85.1932 162.534 84.6818 162.534 84.1477C162.534 83.5341 162.386 83.0028 162.091 82.554C161.801 82.1051 161.403 81.7585 160.898 81.5142C160.392 81.2699 159.824 81.1477 159.193 81.1477C158.523 81.1477 157.938 81.2869 157.438 81.5653C156.943 81.8381 156.56 82.2216 156.287 82.7159C156.02 83.2102 155.886 83.7898 155.886 84.4545H153.875C153.875 83.4318 154.111 82.5341 154.582 81.7614C155.054 80.9886 155.696 80.3864 156.509 79.9545C157.327 79.5227 158.244 79.3068 159.261 79.3068C160.284 79.3068 161.19 79.5227 161.98 79.9545C162.77 80.3864 163.389 80.9687 163.838 81.7017C164.287 82.4347 164.511 83.25 164.511 84.1477C164.511 84.7898 164.395 85.4176 164.162 86.0312C163.935 86.6392 163.537 87.3182 162.969 88.0682C162.406 88.8125 161.625 89.7216 160.625 90.7955L156.705 94.9886V95.125H164.818V97H153.807Z" fill="black"/>
<path d="M634.602 97.2386C633.886 97.2273 633.17 97.0909 632.455 96.8295C631.739 96.5682 631.085 96.1278 630.494 95.5085C629.903 94.8835 629.429 94.0398 629.071 92.9773C628.713 91.9091 628.534 90.5682 628.534 88.9545C628.534 87.4091 628.679 86.0398 628.969 84.8466C629.259 83.6477 629.679 82.6392 630.23 81.821C630.781 80.9972 631.446 80.3722 632.224 79.946C633.009 79.5199 633.892 79.3068 634.875 79.3068C635.852 79.3068 636.722 79.5028 637.483 79.8949C638.25 80.2812 638.875 80.821 639.358 81.5142C639.841 82.2074 640.153 83.0057 640.295 83.9091H638.216C638.023 83.125 637.648 82.4744 637.091 81.9574C636.534 81.4403 635.795 81.1818 634.875 81.1818C633.523 81.1818 632.457 81.7699 631.679 82.946C630.906 84.1222 630.517 85.7727 630.511 87.8977H630.648C630.966 87.4148 631.344 87.0028 631.781 86.6619C632.224 86.3153 632.713 86.0483 633.247 85.8608C633.781 85.6733 634.347 85.5795 634.943 85.5795C635.943 85.5795 636.858 85.8295 637.688 86.3295C638.517 86.8239 639.182 87.5085 639.682 88.3835C640.182 89.2528 640.432 90.25 640.432 91.375C640.432 92.4545 640.19 93.4432 639.707 94.3409C639.224 95.233 638.545 95.9432 637.67 96.4716C636.801 96.9943 635.778 97.25 634.602 97.2386ZM634.602 95.3636C635.318 95.3636 635.96 95.1847 636.528 94.8267C637.102 94.4687 637.554 93.9886 637.884 93.3864C638.219 92.7841 638.386 92.1136 638.386 91.375C638.386 90.6534 638.224 89.9972 637.901 89.4062C637.582 88.8097 637.142 88.3352 636.58 87.983C636.023 87.6307 635.386 87.4545 634.67 87.4545C634.131 87.4545 633.628 87.5625 633.162 87.7784C632.696 87.9886 632.287 88.2784 631.935 88.6477C631.588 89.017 631.315 89.4403 631.116 89.9176C630.918 90.3892 630.818 90.8864 630.818 91.4091C630.818 92.1023 630.98 92.75 631.304 93.3523C631.634 93.9545 632.082 94.4403 632.651 94.8097C633.224 95.179 633.875 95.3636 634.602 95.3636Z" fill="black"/>
<path d="M519.261 97.2386C518.261 97.2386 517.361 97.0398 516.56 96.642C515.759 96.2443 515.116 95.6989 514.634 95.0057C514.151 94.3125 513.886 93.5227 513.841 92.6364H515.886C515.966 93.4261 516.324 94.0795 516.96 94.5966C517.602 95.108 518.369 95.3636 519.261 95.3636C519.977 95.3636 520.614 95.196 521.17 94.8608C521.733 94.5256 522.173 94.0653 522.491 93.4801C522.815 92.8892 522.977 92.2216 522.977 91.4773C522.977 90.7159 522.81 90.0369 522.474 89.4403C522.145 88.8381 521.69 88.3636 521.111 88.017C520.531 87.6705 519.869 87.4943 519.125 87.4886C518.591 87.483 518.043 87.5653 517.48 87.7358C516.918 87.9006 516.455 88.1136 516.091 88.375L514.114 88.1364L515.17 79.5455H524.239V81.4205H516.943L516.33 86.5682H516.432C516.79 86.2841 517.239 86.0483 517.778 85.8608C518.318 85.6733 518.881 85.5795 519.466 85.5795C520.534 85.5795 521.486 85.8352 522.321 86.3466C523.162 86.8523 523.821 87.5455 524.298 88.4261C524.781 89.3068 525.023 90.3125 525.023 91.4432C525.023 92.5568 524.773 93.5511 524.273 94.4261C523.778 95.2955 523.097 95.983 522.227 96.4886C521.358 96.9886 520.369 97.2386 519.261 97.2386Z" fill="black"/>
<path d="M572.398 93.4205V91.6818L580.068 79.5455H581.33V82.2386H580.477L574.682 91.4091V91.5455H585.011V93.4205H572.398ZM580.614 97V92.892V92.0824V79.5455H582.625V97H580.614Z" fill="black"/>
<path d="M215.943 79.5455V97H213.83V81.7614H213.727L209.466 84.5909V82.4432L213.83 79.5455H215.943ZM226.656 97.2386C225.372 97.2386 224.278 96.8892 223.375 96.1903C222.472 95.4858 221.781 94.4659 221.304 93.1307C220.827 91.7898 220.588 90.1705 220.588 88.2727C220.588 86.3864 220.827 84.7756 221.304 83.4403C221.787 82.0994 222.48 81.0767 223.384 80.3722C224.293 79.6619 225.384 79.3068 226.656 79.3068C227.929 79.3068 229.017 79.6619 229.92 80.3722C230.83 81.0767 231.523 82.0994 232 83.4403C232.483 84.7756 232.724 86.3864 232.724 88.2727C232.724 90.1705 232.486 91.7898 232.009 93.1307C231.531 94.4659 230.841 95.4858 229.938 96.1903C229.034 96.8892 227.94 97.2386 226.656 97.2386ZM226.656 95.3636C227.929 95.3636 228.918 94.75 229.622 93.5227C230.327 92.2955 230.679 90.5455 230.679 88.2727C230.679 86.7614 230.517 85.4744 230.193 84.4119C229.875 83.3494 229.415 82.5398 228.812 81.983C228.216 81.4261 227.497 81.1477 226.656 81.1477C225.395 81.1477 224.409 81.7699 223.699 83.0142C222.989 84.2528 222.634 86.0057 222.634 88.2727C222.634 89.7841 222.793 91.0682 223.111 92.125C223.429 93.1818 223.886 93.9858 224.483 94.5369C225.085 95.0881 225.81 95.3636 226.656 95.3636Z" fill="black"/>
<path d="M277.705 97.2386C276.58 97.2386 275.577 97.0455 274.696 96.6591C273.821 96.2727 273.125 95.7358 272.608 95.0483C272.097 94.3551 271.818 93.5511 271.773 92.6364H273.92C273.966 93.1989 274.159 93.6847 274.5 94.0938C274.841 94.4972 275.287 94.8097 275.838 95.0312C276.389 95.2528 277 95.3636 277.67 95.3636C278.42 95.3636 279.085 95.233 279.665 94.9716C280.244 94.7102 280.699 94.3466 281.028 93.8807C281.358 93.4148 281.523 92.875 281.523 92.2614C281.523 91.6193 281.364 91.054 281.045 90.5653C280.727 90.071 280.261 89.6847 279.648 89.4062C279.034 89.1278 278.284 88.9886 277.398 88.9886H276V87.1136H277.398C278.091 87.1136 278.699 86.9886 279.222 86.7386C279.75 86.4886 280.162 86.1364 280.457 85.6818C280.759 85.2273 280.909 84.6932 280.909 84.0795C280.909 83.4886 280.778 82.9744 280.517 82.5369C280.256 82.0994 279.886 81.7585 279.409 81.5142C278.938 81.2699 278.381 81.1477 277.739 81.1477C277.136 81.1477 276.568 81.2585 276.034 81.4801C275.506 81.696 275.074 82.0114 274.739 82.4261C274.403 82.8352 274.222 83.3295 274.193 83.9091H272.148C272.182 82.9943 272.457 82.1932 272.974 81.5057C273.491 80.8125 274.168 80.2727 275.003 79.8864C275.844 79.5 276.767 79.3068 277.773 79.3068C278.852 79.3068 279.778 79.5256 280.551 79.9631C281.324 80.3949 281.918 80.9659 282.332 81.6761C282.747 82.3864 282.955 83.1534 282.955 83.9773C282.955 84.9602 282.696 85.7983 282.179 86.4915C281.668 87.1847 280.972 87.6648 280.091 87.9318V88.0682C281.193 88.25 282.054 88.7187 282.673 89.4744C283.293 90.2244 283.602 91.1534 283.602 92.2614C283.602 93.2102 283.344 94.0625 282.827 94.8182C282.315 95.5682 281.616 96.1591 280.73 96.5909C279.844 97.0227 278.835 97.2386 277.705 97.2386Z" fill="black"/>
<path d="M339.398 97.2386C338.227 97.2386 337.193 97.0312 336.295 96.6165C335.403 96.196 334.707 95.6193 334.207 94.8864C333.707 94.1477 333.46 93.3068 333.466 92.3636C333.46 91.625 333.605 90.9432 333.901 90.3182C334.196 89.6875 334.599 89.1619 335.111 88.7415C335.628 88.3153 336.205 88.0455 336.841 87.9318V87.8295C336.006 87.6136 335.341 87.1449 334.847 86.4233C334.352 85.696 334.108 84.8693 334.114 83.9432C334.108 83.0568 334.332 82.2642 334.787 81.5653C335.241 80.8665 335.866 80.3153 336.662 79.9119C337.463 79.5085 338.375 79.3068 339.398 79.3068C340.409 79.3068 341.313 79.5085 342.108 79.9119C342.903 80.3153 343.528 80.8665 343.983 81.5653C344.443 82.2642 344.676 83.0568 344.682 83.9432C344.676 84.8693 344.423 85.696 343.923 86.4233C343.429 87.1449 342.773 87.6136 341.955 87.8295V87.9318C342.585 88.0455 343.153 88.3153 343.659 88.7415C344.165 89.1619 344.568 89.6875 344.869 90.3182C345.17 90.9432 345.324 91.625 345.33 92.3636C345.324 93.3068 345.068 94.1477 344.562 94.8864C344.062 95.6193 343.366 96.196 342.474 96.6165C341.588 97.0312 340.563 97.2386 339.398 97.2386ZM339.398 95.3636C340.188 95.3636 340.869 95.2358 341.443 94.9801C342.017 94.7244 342.46 94.3636 342.773 93.8977C343.085 93.4318 343.244 92.8864 343.25 92.2614C343.244 91.6023 343.074 91.0199 342.739 90.5142C342.403 90.0085 341.946 89.6108 341.366 89.321C340.793 89.0312 340.136 88.8864 339.398 88.8864C338.653 88.8864 337.989 89.0312 337.403 89.321C336.824 89.6108 336.366 90.0085 336.031 90.5142C335.702 91.0199 335.54 91.6023 335.545 92.2614C335.54 92.8864 335.69 93.4318 335.997 93.8977C336.31 94.3636 336.756 94.7244 337.335 94.9801C337.915 95.2358 338.602 95.3636 339.398 95.3636ZM339.398 87.0795C340.023 87.0795 340.577 86.9545 341.06 86.7045C341.548 86.4545 341.932 86.1051 342.21 85.6562C342.489 85.2074 342.631 84.6818 342.636 84.0795C342.631 83.4886 342.491 82.9744 342.219 82.5369C341.946 82.0937 341.568 81.7528 341.085 81.5142C340.602 81.2699 340.04 81.1477 339.398 81.1477C338.744 81.1477 338.173 81.2699 337.685 81.5142C337.196 81.7528 336.818 82.0937 336.551 82.5369C336.284 82.9744 336.153 83.4886 336.159 84.0795C336.153 84.6818 336.287 85.2074 336.56 85.6562C336.838 86.1051 337.222 86.4545 337.71 86.7045C338.199 86.9545 338.761 87.0795 339.398 87.0795Z" fill="black"/>
<path d="M398.943 79.5455V97H396.83V81.7614H396.727L392.466 84.5909V82.4432L396.83 79.5455H398.943Z" fill="black"/>
<path d="M457.364 79.3068C458.08 79.3125 458.795 79.4489 459.511 79.7159C460.227 79.983 460.881 80.4261 461.472 81.0455C462.063 81.6591 462.537 82.4972 462.895 83.5597C463.253 84.6222 463.432 85.9545 463.432 87.5568C463.432 89.108 463.284 90.4858 462.989 91.6903C462.699 92.8892 462.278 93.9006 461.727 94.7244C461.182 95.5483 460.517 96.1733 459.733 96.5994C458.955 97.0256 458.074 97.2386 457.091 97.2386C456.114 97.2386 455.241 97.0455 454.474 96.6591C453.713 96.267 453.088 95.7244 452.599 95.0312C452.116 94.3324 451.807 93.5227 451.67 92.6023H453.75C453.938 93.4034 454.31 94.0653 454.866 94.5881C455.429 95.1051 456.17 95.3636 457.091 95.3636C458.438 95.3636 459.5 94.7756 460.278 93.5994C461.063 92.4233 461.455 90.7614 461.455 88.6136H461.318C461 89.0909 460.622 89.5028 460.185 89.8494C459.747 90.196 459.261 90.4631 458.727 90.6506C458.193 90.8381 457.625 90.9318 457.023 90.9318C456.023 90.9318 455.105 90.6847 454.27 90.1903C453.44 89.6903 452.776 89.0057 452.276 88.1364C451.781 87.2614 451.534 86.2614 451.534 85.1364C451.534 84.0682 451.773 83.0909 452.25 82.2045C452.733 81.3125 453.409 80.6023 454.278 80.0739C455.153 79.5455 456.182 79.2898 457.364 79.3068ZM457.364 81.1818C456.648 81.1818 456.003 81.3608 455.429 81.7188C454.861 82.071 454.409 82.5483 454.074 83.1506C453.744 83.7472 453.58 84.4091 453.58 85.1364C453.58 85.8636 453.739 86.5256 454.057 87.1222C454.381 87.7131 454.821 88.1847 455.378 88.5369C455.94 88.8835 456.58 89.0568 457.295 89.0568C457.835 89.0568 458.338 88.9517 458.804 88.7415C459.27 88.5256 459.676 88.233 460.023 87.8636C460.375 87.4886 460.651 87.0653 460.849 86.5938C461.048 86.1165 461.148 85.6193 461.148 85.1023C461.148 84.4205 460.983 83.7812 460.653 83.1847C460.33 82.5881 459.881 82.1051 459.307 81.7358C458.739 81.3665 458.091 81.1818 457.364 81.1818Z" fill="black"/>
<g filter="url(#filter1_d_0_1)">
<rect x="73" y="226" width="591" height="60" fill="#D9D9D9"/>
<rect x="74.5" y="227.5" width="588" height="57" stroke="#091A85" stroke-width="3"/>
</g>
<path d="M101.943 247.545V265H99.8295V249.761H99.7273L95.4659 252.591V250.443L99.8295 247.545H101.943Z" fill="black"/>
<path d="M153.807 265V263.466L159.568 257.159C160.244 256.42 160.801 255.778 161.239 255.233C161.676 254.682 162 254.165 162.21 253.682C162.426 253.193 162.534 252.682 162.534 252.148C162.534 251.534 162.386 251.003 162.091 250.554C161.801 250.105 161.403 249.759 160.898 249.514C160.392 249.27 159.824 249.148 159.193 249.148C158.523 249.148 157.938 249.287 157.438 249.565C156.943 249.838 156.56 250.222 156.287 250.716C156.02 251.21 155.886 251.79 155.886 252.455H153.875C153.875 251.432 154.111 250.534 154.582 249.761C155.054 248.989 155.696 248.386 156.509 247.955C157.327 247.523 158.244 247.307 159.261 247.307C160.284 247.307 161.19 247.523 161.98 247.955C162.77 248.386 163.389 248.969 163.838 249.702C164.287 250.435 164.511 251.25 164.511 252.148C164.511 252.79 164.395 253.418 164.162 254.031C163.935 254.639 163.537 255.318 162.969 256.068C162.406 256.812 161.625 257.722 160.625 258.795L156.705 262.989V263.125H164.818V265H153.807Z" fill="black"/>
<path d="M222.705 265.239C221.58 265.239 220.577 265.045 219.696 264.659C218.821 264.273 218.125 263.736 217.608 263.048C217.097 262.355 216.818 261.551 216.773 260.636H218.92C218.966 261.199 219.159 261.685 219.5 262.094C219.841 262.497 220.287 262.81 220.838 263.031C221.389 263.253 222 263.364 222.67 263.364C223.42 263.364 224.085 263.233 224.665 262.972C225.244 262.71 225.699 262.347 226.028 261.881C226.358 261.415 226.523 260.875 226.523 260.261C226.523 259.619 226.364 259.054 226.045 258.565C225.727 258.071 225.261 257.685 224.648 257.406C224.034 257.128 223.284 256.989 222.398 256.989H221V255.114H222.398C223.091 255.114 223.699 254.989 224.222 254.739C224.75 254.489 225.162 254.136 225.457 253.682C225.759 253.227 225.909 252.693 225.909 252.08C225.909 251.489 225.778 250.974 225.517 250.537C225.256 250.099 224.886 249.759 224.409 249.514C223.938 249.27 223.381 249.148 222.739 249.148C222.136 249.148 221.568 249.259 221.034 249.48C220.506 249.696 220.074 250.011 219.739 250.426C219.403 250.835 219.222 251.33 219.193 251.909H217.148C217.182 250.994 217.457 250.193 217.974 249.506C218.491 248.812 219.168 248.273 220.003 247.886C220.844 247.5 221.767 247.307 222.773 247.307C223.852 247.307 224.778 247.526 225.551 247.963C226.324 248.395 226.918 248.966 227.332 249.676C227.747 250.386 227.955 251.153 227.955 251.977C227.955 252.96 227.696 253.798 227.179 254.491C226.668 255.185 225.972 255.665 225.091 255.932V256.068C226.193 256.25 227.054 256.719 227.673 257.474C228.293 258.224 228.602 259.153 228.602 260.261C228.602 261.21 228.344 262.062 227.827 262.818C227.315 263.568 226.616 264.159 225.73 264.591C224.844 265.023 223.835 265.239 222.705 265.239Z" fill="black"/>
<path d="M276.398 261.42V259.682L284.068 247.545H285.33V250.239H284.477L278.682 259.409V259.545H289.011V261.42H276.398ZM284.614 265V260.892V260.082V247.545H286.625V265H284.614Z" fill="black"/>
<line x1="132.5" y1="226.025" x2="131.5" y2="286.025" stroke="#091A85" stroke-width="3"/>
<line x1="192.5" y1="226.025" x2="191.5" y2="286.025" stroke="#091A85" stroke-width="3"/>
<line x1="372.5" y1="226.025" x2="371.5" y2="286.025" stroke="#091A85" stroke-width="3"/>
<line x1="432.5" y1="226.025" x2="431.5" y2="286.025" stroke="#091A85" stroke-width="3"/>
<line x1="492.5" y1="226.025" x2="491.5" y2="286.025" stroke="#091A85" stroke-width="3"/>
<line x1="552.5" y1="226.025" x2="551.5" y2="286.025" stroke="#091A85" stroke-width="3"/>
<line x1="612.5" y1="226.025" x2="611.5" y2="286.025" stroke="#091A85" stroke-width="3"/>
<line x1="252.5" y1="226.025" x2="251.5" y2="286.025" stroke="#091A85" stroke-width="3"/>
<line x1="312.5" y1="226.025" x2="311.5" y2="286.025" stroke="#091A85" stroke-width="3"/>
<g filter="url(#filter2_d_0_1)">
<rect x="72" y="400" width="592" height="60" fill="#D9D9D9"/>
<rect x="73.5" y="401.5" width="589" height="57" stroke="#091A85" stroke-width="3"/>
</g>
<line x1="131.5" y1="400.025" x2="130.5" y2="460.025" stroke="#091A85" stroke-width="3"/>
<line x1="191.5" y1="400.025" x2="190.5" y2="460.025" stroke="#091A85" stroke-width="3"/>
<line x1="371.5" y1="400.025" x2="370.5" y2="460.025" stroke="#091A85" stroke-width="3"/>
<line x1="431.5" y1="400.025" x2="430.5" y2="460.025" stroke="#091A85" stroke-width="3"/>
<line x1="491.5" y1="400.025" x2="490.5" y2="460.025" stroke="#091A85" stroke-width="3"/>
<line x1="551.5" y1="400.025" x2="550.5" y2="460.025" stroke="#091A85" stroke-width="3"/>
<line x1="611.5" y1="400.025" x2="610.5" y2="460.025" stroke="#091A85" stroke-width="3"/>
<line x1="251.5" y1="400.025" x2="250.5" y2="460.025" stroke="#091A85" stroke-width="3"/>
<line x1="311.5" y1="400.025" x2="310.5" y2="460.025" stroke="#091A85" stroke-width="3"/>
<path d="M94.9432 420.545V438H92.8295V422.761H92.7273L88.4659 425.591V423.443L92.8295 420.545H94.9432ZM105.656 438.239C104.372 438.239 103.278 437.889 102.375 437.19C101.472 436.486 100.781 435.466 100.304 434.131C99.8267 432.79 99.5881 431.17 99.5881 429.273C99.5881 427.386 99.8267 425.776 100.304 424.44C100.787 423.099 101.48 422.077 102.384 421.372C103.293 420.662 104.384 420.307 105.656 420.307C106.929 420.307 108.017 420.662 108.92 421.372C109.83 422.077 110.523 423.099 111 424.44C111.483 425.776 111.724 427.386 111.724 429.273C111.724 431.17 111.486 432.79 111.009 434.131C110.531 435.466 109.841 436.486 108.938 437.19C108.034 437.889 106.94 438.239 105.656 438.239ZM105.656 436.364C106.929 436.364 107.918 435.75 108.622 434.523C109.327 433.295 109.679 431.545 109.679 429.273C109.679 427.761 109.517 426.474 109.193 425.412C108.875 424.349 108.415 423.54 107.812 422.983C107.216 422.426 106.497 422.148 105.656 422.148C104.395 422.148 103.409 422.77 102.699 424.014C101.989 425.253 101.634 427.006 101.634 429.273C101.634 430.784 101.793 432.068 102.111 433.125C102.429 434.182 102.886 434.986 103.483 435.537C104.085 436.088 104.81 436.364 105.656 436.364Z" fill="black"/>
<path d="M81.7159 384.091C81.6307 383.371 81.285 382.812 80.679 382.415C80.0729 382.017 79.3295 381.818 78.4489 381.818C77.8049 381.818 77.2415 381.922 76.7585 382.131C76.2803 382.339 75.9063 382.625 75.6364 382.99C75.3712 383.355 75.2386 383.769 75.2386 384.233C75.2386 384.621 75.331 384.955 75.5156 385.234C75.705 385.509 75.9465 385.739 76.2401 385.923C76.5336 386.103 76.8414 386.252 77.1634 386.371C77.4853 386.484 77.7812 386.577 78.0511 386.648L79.5284 387.045C79.9072 387.145 80.3286 387.282 80.7926 387.457C81.2614 387.633 81.7088 387.872 82.1349 388.175C82.5658 388.473 82.9209 388.857 83.2003 389.325C83.4796 389.794 83.6193 390.369 83.6193 391.051C83.6193 391.837 83.4134 392.547 83.0014 393.182C82.5942 393.816 81.9976 394.321 81.2116 394.695C80.4304 395.069 79.4811 395.256 78.3636 395.256C77.322 395.256 76.42 395.088 75.6577 394.751C74.9001 394.415 74.3035 393.946 73.8679 393.345C73.437 392.744 73.1932 392.045 73.1364 391.25H74.9545C75.0019 391.799 75.1866 392.254 75.5085 392.614C75.8352 392.969 76.2472 393.234 76.7443 393.409C77.2462 393.58 77.786 393.665 78.3636 393.665C79.036 393.665 79.6397 393.556 80.1747 393.338C80.7098 393.116 81.1335 392.808 81.446 392.415C81.7585 392.017 81.9148 391.553 81.9148 391.023C81.9148 390.54 81.7798 390.147 81.5099 389.844C81.2401 389.541 80.8849 389.295 80.4446 389.105C80.0043 388.916 79.5284 388.75 79.017 388.608L77.2273 388.097C76.0909 387.77 75.1913 387.304 74.5284 386.697C73.8655 386.091 73.5341 385.298 73.5341 384.318C73.5341 383.504 73.7543 382.794 74.1946 382.188C74.6397 381.577 75.2363 381.103 75.9844 380.767C76.7372 380.426 77.5777 380.256 78.5057 380.256C79.4432 380.256 80.2765 380.424 81.0057 380.76C81.7348 381.091 82.3125 381.546 82.7386 382.124C83.1695 382.701 83.3968 383.357 83.4205 384.091H81.7159ZM90.7198 395.227C89.735 395.227 88.8709 394.993 88.1275 394.524C87.3888 394.055 86.8112 393.4 86.3945 392.557C85.9826 391.714 85.7766 390.729 85.7766 389.602C85.7766 388.466 85.9826 387.474 86.3945 386.626C86.8112 385.779 87.3888 385.121 88.1275 384.652C88.8709 384.183 89.735 383.949 90.7198 383.949C91.7047 383.949 92.5664 384.183 93.305 384.652C94.0484 385.121 94.6261 385.779 95.038 386.626C95.4547 387.474 95.663 388.466 95.663 389.602C95.663 390.729 95.4547 391.714 95.038 392.557C94.6261 393.4 94.0484 394.055 93.305 394.524C92.5664 394.993 91.7047 395.227 90.7198 395.227ZM90.7198 393.722C91.4679 393.722 92.0835 393.53 92.5664 393.146C93.0494 392.763 93.4068 392.259 93.6388 391.634C93.8709 391.009 93.9869 390.331 93.9869 389.602C93.9869 388.873 93.8709 388.194 93.6388 387.564C93.4068 386.934 93.0494 386.425 92.5664 386.037C92.0835 385.649 91.4679 385.455 90.7198 385.455C89.9717 385.455 89.3562 385.649 88.8732 386.037C88.3903 386.425 88.0328 386.934 87.8008 387.564C87.5688 388.194 87.4528 388.873 87.4528 389.602C87.4528 390.331 87.5688 391.009 87.8008 391.634C88.0328 392.259 88.3903 392.763 88.8732 393.146C89.3562 393.53 89.9717 393.722 90.7198 393.722ZM98.2216 395V384.091H99.8409V385.739H99.9545C100.153 385.199 100.513 384.761 101.034 384.425C101.555 384.089 102.142 383.92 102.795 383.92C102.919 383.92 103.072 383.923 103.257 383.928C103.442 383.932 103.581 383.939 103.676 383.949V385.653C103.619 385.639 103.489 385.618 103.286 385.589C103.087 385.556 102.876 385.54 102.653 385.54C102.123 385.54 101.65 385.651 101.233 385.874C100.821 386.091 100.494 386.394 100.253 386.783C100.016 387.166 99.8977 387.604 99.8977 388.097V395H98.2216ZM111.091 384.091V385.511H105.438V384.091H111.091ZM107.085 381.477H108.761V391.875C108.761 392.348 108.83 392.704 108.967 392.94C109.109 393.172 109.289 393.329 109.507 393.409C109.73 393.485 109.964 393.523 110.21 393.523C110.395 393.523 110.546 393.513 110.665 393.494C110.783 393.471 110.878 393.452 110.949 393.438L111.29 394.943C111.176 394.986 111.018 395.028 110.814 395.071C110.61 395.118 110.352 395.142 110.04 395.142C109.566 395.142 109.102 395.04 108.648 394.837C108.198 394.633 107.824 394.323 107.526 393.906C107.232 393.49 107.085 392.964 107.085 392.33V381.477ZM118.069 395.227C117.018 395.227 116.111 394.995 115.349 394.531C114.591 394.062 114.006 393.409 113.594 392.571C113.187 391.728 112.984 390.748 112.984 389.631C112.984 388.513 113.187 387.528 113.594 386.676C114.006 385.819 114.579 385.152 115.313 384.673C116.052 384.19 116.914 383.949 117.898 383.949C118.467 383.949 119.028 384.044 119.582 384.233C120.136 384.422 120.64 384.73 121.094 385.156C121.549 385.578 121.911 386.136 122.181 386.832C122.451 387.528 122.586 388.385 122.586 389.403V390.114H114.177V388.665H120.881C120.881 388.049 120.758 387.5 120.512 387.017C120.271 386.534 119.925 386.153 119.475 385.874C119.03 385.594 118.504 385.455 117.898 385.455C117.231 385.455 116.653 385.62 116.165 385.952C115.683 386.278 115.311 386.705 115.05 387.23C114.79 387.756 114.66 388.319 114.66 388.92V389.886C114.66 390.71 114.802 391.409 115.086 391.982C115.375 392.55 115.775 392.983 116.286 393.281C116.798 393.575 117.392 393.722 118.069 393.722C118.509 393.722 118.907 393.66 119.262 393.537C119.622 393.409 119.932 393.22 120.192 392.969C120.453 392.713 120.654 392.396 120.796 392.017L122.415 392.472C122.245 393.021 121.959 393.504 121.556 393.92C121.154 394.332 120.656 394.654 120.065 394.886C119.473 395.114 118.808 395.227 118.069 395.227ZM129.255 395.227C128.346 395.227 127.543 394.998 126.847 394.538C126.151 394.074 125.607 393.421 125.214 392.578C124.821 391.731 124.624 390.729 124.624 389.574C124.624 388.428 124.821 387.434 125.214 386.591C125.607 385.748 126.154 385.097 126.854 384.638C127.555 384.179 128.365 383.949 129.283 383.949C129.994 383.949 130.555 384.067 130.967 384.304C131.383 384.536 131.701 384.801 131.918 385.099C132.141 385.393 132.314 385.634 132.437 385.824H132.579V380.455H134.255V395H132.636V393.324H132.437C132.314 393.523 132.138 393.774 131.911 394.077C131.684 394.375 131.36 394.643 130.938 394.879C130.517 395.111 129.956 395.227 129.255 395.227ZM129.482 393.722C130.155 393.722 130.723 393.546 131.187 393.196C131.651 392.841 132.004 392.351 132.245 391.726C132.487 391.096 132.607 390.369 132.607 389.545C132.607 388.731 132.489 388.018 132.252 387.408C132.015 386.792 131.665 386.314 131.201 385.973C130.737 385.627 130.164 385.455 129.482 385.455C128.772 385.455 128.18 385.637 127.707 386.001C127.238 386.361 126.885 386.851 126.648 387.472C126.416 388.087 126.3 388.778 126.3 389.545C126.3 390.322 126.419 391.027 126.656 391.662C126.897 392.292 127.252 392.794 127.721 393.168C128.194 393.537 128.781 393.722 129.482 393.722ZM144.006 395H142.16L147.501 380.455H149.319L154.66 395H152.813L148.467 382.756H148.353L144.006 395ZM144.688 389.318H152.131V390.881H144.688V389.318ZM156.698 395V384.091H158.317V385.739H158.431C158.63 385.199 158.99 384.761 159.511 384.425C160.031 384.089 160.619 383.92 161.272 383.92C161.395 383.92 161.549 383.923 161.734 383.928C161.918 383.932 162.058 383.939 162.153 383.949V385.653C162.096 385.639 161.966 385.618 161.762 385.589C161.563 385.556 161.353 385.54 161.13 385.54C160.6 385.54 160.126 385.651 159.71 385.874C159.298 386.091 158.971 386.394 158.729 386.783C158.493 387.166 158.374 387.604 158.374 388.097V395H156.698ZM164.14 395V384.091H165.759V385.739H165.873C166.071 385.199 166.431 384.761 166.952 384.425C167.473 384.089 168.06 383.92 168.713 383.92C168.837 383.92 168.99 383.923 169.175 383.928C169.36 383.932 169.499 383.939 169.594 383.949V385.653C169.537 385.639 169.407 385.618 169.203 385.589C169.005 385.556 168.794 385.54 168.571 385.54C168.041 385.54 167.568 385.651 167.151 385.874C166.739 386.091 166.412 386.394 166.171 386.783C165.934 387.166 165.816 387.604 165.816 388.097V395H164.14ZM174.791 395.256C174.1 395.256 173.473 395.125 172.909 394.865C172.346 394.6 171.898 394.219 171.567 393.722C171.235 393.22 171.07 392.614 171.07 391.903C171.07 391.278 171.193 390.772 171.439 390.384C171.685 389.991 172.014 389.683 172.426 389.46C172.838 389.238 173.293 389.072 173.79 388.963C174.292 388.849 174.796 388.759 175.303 388.693C175.965 388.608 176.503 388.544 176.915 388.501C177.331 388.454 177.634 388.376 177.824 388.267C178.018 388.158 178.115 387.969 178.115 387.699V387.642C178.115 386.941 177.923 386.397 177.54 386.009C177.161 385.62 176.586 385.426 175.814 385.426C175.014 385.426 174.386 385.601 173.932 385.952C173.477 386.302 173.158 386.676 172.973 387.074L171.382 386.506C171.666 385.843 172.045 385.327 172.518 384.957C172.997 384.583 173.518 384.323 174.081 384.176C174.649 384.025 175.208 383.949 175.757 383.949C176.107 383.949 176.51 383.991 176.964 384.077C177.424 384.157 177.866 384.325 178.293 384.581C178.723 384.837 179.081 385.223 179.365 385.739C179.649 386.255 179.791 386.946 179.791 387.812V395H178.115V393.523H178.03C177.916 393.759 177.727 394.013 177.462 394.283C177.196 394.553 176.844 394.782 176.403 394.972C175.963 395.161 175.426 395.256 174.791 395.256ZM175.047 393.75C175.71 393.75 176.268 393.62 176.723 393.359C177.182 393.099 177.528 392.763 177.76 392.351C177.997 391.939 178.115 391.506 178.115 391.051V389.517C178.044 389.602 177.888 389.68 177.646 389.751C177.41 389.818 177.135 389.877 176.822 389.929C176.515 389.976 176.214 390.019 175.92 390.057C175.632 390.09 175.397 390.118 175.217 390.142C174.782 390.199 174.375 390.291 173.996 390.419C173.622 390.542 173.319 390.729 173.087 390.98C172.859 391.226 172.746 391.562 172.746 391.989C172.746 392.571 172.961 393.011 173.392 393.31C173.828 393.603 174.379 393.75 175.047 393.75ZM183.539 399.091C183.255 399.091 183.002 399.067 182.779 399.02C182.557 398.977 182.403 398.935 182.318 398.892L182.744 397.415C183.151 397.519 183.511 397.557 183.824 397.528C184.136 397.5 184.413 397.36 184.654 397.109C184.901 396.863 185.126 396.463 185.329 395.909L185.642 395.057L181.608 384.091H183.426L186.437 392.784H186.551L189.562 384.091H191.38L186.75 396.591C186.541 397.154 186.283 397.621 185.975 397.99C185.668 398.364 185.31 398.641 184.903 398.821C184.501 399.001 184.046 399.091 183.539 399.091ZM199.218 395V384.091H200.894V395H199.218ZM200.07 382.273C199.743 382.273 199.462 382.161 199.225 381.939C198.993 381.716 198.877 381.449 198.877 381.136C198.877 380.824 198.993 380.556 199.225 380.334C199.462 380.111 199.743 380 200.07 380C200.397 380 200.676 380.111 200.908 380.334C201.145 380.556 201.263 380.824 201.263 381.136C201.263 381.449 201.145 381.716 200.908 381.939C200.676 382.161 200.397 382.273 200.07 382.273ZM205.64 388.438V395H203.964V384.091H205.583V385.795H205.725C205.981 385.241 206.369 384.796 206.89 384.46C207.411 384.119 208.083 383.949 208.907 383.949C209.646 383.949 210.292 384.1 210.846 384.403C211.4 384.702 211.831 385.156 212.138 385.767C212.446 386.373 212.6 387.14 212.6 388.068V395H210.924V388.182C210.924 387.325 210.701 386.657 210.256 386.179C209.811 385.696 209.201 385.455 208.424 385.455C207.889 385.455 207.411 385.571 206.989 385.803C206.573 386.035 206.244 386.373 206.002 386.818C205.761 387.263 205.64 387.803 205.64 388.438ZM226.004 395H221.515V380.455H226.203C227.614 380.455 228.821 380.746 229.825 381.328C230.829 381.906 231.598 382.737 232.133 383.821C232.668 384.901 232.936 386.193 232.936 387.699C232.936 389.214 232.666 390.518 232.126 391.612C231.586 392.701 230.8 393.539 229.768 394.126C228.736 394.709 227.481 395 226.004 395ZM223.277 393.438H225.89C227.093 393.438 228.09 393.205 228.88 392.741C229.671 392.277 230.261 391.617 230.649 390.76C231.037 389.903 231.231 388.883 231.231 387.699C231.231 386.525 231.039 385.514 230.656 384.666C230.272 383.814 229.699 383.161 228.937 382.706C228.175 382.247 227.225 382.017 226.089 382.017H223.277V393.438ZM240.237 395.227C239.186 395.227 238.279 394.995 237.517 394.531C236.759 394.062 236.174 393.409 235.762 392.571C235.355 391.728 235.152 390.748 235.152 389.631C235.152 388.513 235.355 387.528 235.762 386.676C236.174 385.819 236.747 385.152 237.481 384.673C238.22 384.19 239.082 383.949 240.066 383.949C240.635 383.949 241.196 384.044 241.75 384.233C242.304 384.422 242.808 384.73 243.262 385.156C243.717 385.578 244.079 386.136 244.349 386.832C244.619 387.528 244.754 388.385 244.754 389.403V390.114H236.345V388.665H243.049C243.049 388.049 242.926 387.5 242.68 387.017C242.439 386.534 242.093 386.153 241.643 385.874C241.198 385.594 240.672 385.455 240.066 385.455C239.399 385.455 238.821 385.62 238.333 385.952C237.85 386.278 237.479 386.705 237.218 387.23C236.958 387.756 236.828 388.319 236.828 388.92V389.886C236.828 390.71 236.97 391.409 237.254 391.982C237.543 392.55 237.943 392.983 238.454 393.281C238.966 393.575 239.56 393.722 240.237 393.722C240.677 393.722 241.075 393.66 241.43 393.537C241.79 393.409 242.1 393.22 242.36 392.969C242.621 392.713 242.822 392.396 242.964 392.017L244.583 392.472C244.413 393.021 244.127 393.504 243.724 393.92C243.322 394.332 242.824 394.654 242.233 394.886C241.641 395.114 240.975 395.227 240.237 395.227ZM255.031 386.534L253.525 386.96C253.431 386.709 253.291 386.465 253.106 386.229C252.926 385.987 252.68 385.788 252.368 385.632C252.055 385.476 251.655 385.398 251.167 385.398C250.5 385.398 249.943 385.552 249.498 385.859C249.058 386.162 248.838 386.548 248.838 387.017C248.838 387.434 248.989 387.763 249.292 388.004C249.595 388.246 250.069 388.447 250.713 388.608L252.332 389.006C253.307 389.242 254.034 389.605 254.512 390.092C254.991 390.575 255.23 391.198 255.23 391.96C255.23 392.585 255.05 393.144 254.69 393.636C254.335 394.129 253.838 394.517 253.199 394.801C252.559 395.085 251.816 395.227 250.968 395.227C249.856 395.227 248.935 394.986 248.206 394.503C247.476 394.02 247.015 393.314 246.821 392.386L248.412 391.989C248.563 392.576 248.85 393.016 249.271 393.31C249.697 393.603 250.253 393.75 250.94 393.75C251.721 393.75 252.342 393.584 252.801 393.253C253.265 392.917 253.497 392.514 253.497 392.045C253.497 391.667 253.364 391.349 253.099 391.094C252.834 390.833 252.427 390.639 251.877 390.511L250.059 390.085C249.06 389.848 248.326 389.482 247.858 388.984C247.394 388.482 247.162 387.855 247.162 387.102C247.162 386.487 247.334 385.942 247.68 385.469C248.03 384.995 248.506 384.624 249.108 384.354C249.714 384.084 250.4 383.949 251.167 383.949C252.247 383.949 253.094 384.186 253.71 384.659C254.33 385.133 254.77 385.758 255.031 386.534ZM262.185 395.227C261.162 395.227 260.281 394.986 259.543 394.503C258.804 394.02 258.236 393.355 257.838 392.507C257.44 391.66 257.241 390.691 257.241 389.602C257.241 388.494 257.445 387.517 257.852 386.669C258.264 385.817 258.837 385.152 259.571 384.673C260.31 384.19 261.171 383.949 262.156 383.949C262.923 383.949 263.615 384.091 264.23 384.375C264.846 384.659 265.35 385.057 265.743 385.568C266.136 386.08 266.38 386.676 266.474 387.358H264.798C264.67 386.861 264.386 386.42 263.946 386.037C263.51 385.649 262.923 385.455 262.185 385.455C261.531 385.455 260.958 385.625 260.466 385.966C259.978 386.302 259.597 386.778 259.322 387.393C259.053 388.004 258.918 388.722 258.918 389.545C258.918 390.388 259.05 391.122 259.315 391.747C259.585 392.372 259.964 392.857 260.452 393.203C260.944 393.549 261.522 393.722 262.185 393.722C262.62 393.722 263.016 393.646 263.371 393.494C263.726 393.343 264.027 393.125 264.273 392.841C264.519 392.557 264.694 392.216 264.798 391.818H266.474C266.38 392.462 266.145 393.042 265.771 393.558C265.402 394.07 264.912 394.477 264.301 394.78C263.695 395.078 262.99 395.227 262.185 395.227ZM273.499 395.227C272.447 395.227 271.541 394.995 270.778 394.531C270.021 394.062 269.436 393.409 269.024 392.571C268.617 391.728 268.413 390.748 268.413 389.631C268.413 388.513 268.617 387.528 269.024 386.676C269.436 385.819 270.009 385.152 270.743 384.673C271.482 384.19 272.343 383.949 273.328 383.949C273.896 383.949 274.457 384.044 275.011 384.233C275.565 384.422 276.07 384.73 276.524 385.156C276.979 385.578 277.341 386.136 277.611 386.832C277.881 387.528 278.016 388.385 278.016 389.403V390.114H269.607V388.665H276.311C276.311 388.049 276.188 387.5 275.942 387.017C275.7 386.534 275.355 386.153 274.905 385.874C274.46 385.594 273.934 385.455 273.328 385.455C272.661 385.455 272.083 385.62 271.595 385.952C271.112 386.278 270.741 386.705 270.48 387.23C270.22 387.756 270.089 388.319 270.089 388.92V389.886C270.089 390.71 270.232 391.409 270.516 391.982C270.804 392.55 271.205 392.983 271.716 393.281C272.227 393.575 272.821 393.722 273.499 393.722C273.939 393.722 274.337 393.66 274.692 393.537C275.052 393.409 275.362 393.22 275.622 392.969C275.883 392.713 276.084 392.396 276.226 392.017L277.845 392.472C277.675 393.021 277.388 393.504 276.986 393.92C276.583 394.332 276.086 394.654 275.494 394.886C274.902 395.114 274.237 395.227 273.499 395.227ZM282.241 388.438V395H280.565V384.091H282.185V385.795H282.327C282.582 385.241 282.971 384.796 283.491 384.46C284.012 384.119 284.685 383.949 285.509 383.949C286.247 383.949 286.893 384.1 287.447 384.403C288.001 384.702 288.432 385.156 288.74 385.767C289.048 386.373 289.202 387.14 289.202 388.068V395H287.526V388.182C287.526 387.325 287.303 386.657 286.858 386.179C286.413 385.696 285.802 385.455 285.026 385.455C284.491 385.455 284.012 385.571 283.591 385.803C283.174 386.035 282.845 386.373 282.604 386.818C282.362 387.263 282.241 387.803 282.241 388.438ZM296.384 395.227C295.475 395.227 294.672 394.998 293.976 394.538C293.28 394.074 292.736 393.421 292.343 392.578C291.95 391.731 291.753 390.729 291.753 389.574C291.753 388.428 291.95 387.434 292.343 386.591C292.736 385.748 293.283 385.097 293.983 384.638C294.684 384.179 295.494 383.949 296.412 383.949C297.123 383.949 297.684 384.067 298.096 384.304C298.512 384.536 298.829 384.801 299.047 385.099C299.27 385.393 299.443 385.634 299.566 385.824H299.708V380.455H301.384V395H299.765V393.324H299.566C299.443 393.523 299.267 393.774 299.04 394.077C298.813 394.375 298.489 394.643 298.067 394.879C297.646 395.111 297.085 395.227 296.384 395.227ZM296.611 393.722C297.283 393.722 297.852 393.546 298.316 393.196C298.78 392.841 299.132 392.351 299.374 391.726C299.615 391.096 299.736 390.369 299.736 389.545C299.736 388.731 299.618 388.018 299.381 387.408C299.144 386.792 298.794 386.314 298.33 385.973C297.866 385.627 297.293 385.455 296.611 385.455C295.901 385.455 295.309 385.637 294.836 386.001C294.367 386.361 294.014 386.851 293.777 387.472C293.545 388.087 293.429 388.778 293.429 389.545C293.429 390.322 293.548 391.027 293.784 391.662C294.026 392.292 294.381 392.794 294.85 393.168C295.323 393.537 295.91 393.722 296.611 393.722ZM304.686 395V384.091H306.363V395H304.686ZM305.539 382.273C305.212 382.273 304.93 382.161 304.694 381.939C304.462 381.716 304.346 381.449 304.346 381.136C304.346 380.824 304.462 380.556 304.694 380.334C304.93 380.111 305.212 380 305.539 380C305.865 380 306.145 380.111 306.377 380.334C306.614 380.556 306.732 380.824 306.732 381.136C306.732 381.449 306.614 381.716 306.377 381.939C306.145 382.161 305.865 382.273 305.539 382.273ZM311.109 388.438V395H309.433V384.091H311.052V385.795H311.194C311.45 385.241 311.838 384.796 312.359 384.46C312.879 384.119 313.552 383.949 314.376 383.949C315.114 383.949 315.761 384.1 316.315 384.403C316.869 384.702 317.299 385.156 317.607 385.767C317.915 386.373 318.069 387.14 318.069 388.068V395H316.393V388.182C316.393 387.325 316.17 386.657 315.725 386.179C315.28 385.696 314.669 385.455 313.893 385.455C313.358 385.455 312.879 385.571 312.458 385.803C312.041 386.035 311.712 386.373 311.471 386.818C311.229 387.263 311.109 387.803 311.109 388.438ZM325.535 399.318C324.725 399.318 324.029 399.214 323.447 399.006C322.865 398.802 322.379 398.532 321.991 398.196C321.608 397.865 321.302 397.509 321.075 397.131L322.41 396.193C322.562 396.392 322.753 396.619 322.985 396.875C323.217 397.135 323.535 397.36 323.937 397.55C324.344 397.744 324.877 397.841 325.535 397.841C326.416 397.841 327.143 397.628 327.716 397.202C328.288 396.776 328.575 396.108 328.575 395.199V392.983H328.433C328.31 393.182 328.135 393.428 327.907 393.722C327.685 394.01 327.363 394.268 326.941 394.496C326.525 394.718 325.961 394.83 325.251 394.83C324.37 394.83 323.58 394.621 322.879 394.205C322.183 393.788 321.631 393.182 321.224 392.386C320.822 391.591 320.62 390.625 320.62 389.489C320.62 388.371 320.817 387.398 321.21 386.57C321.603 385.736 322.15 385.092 322.85 384.638C323.551 384.179 324.361 383.949 325.279 383.949C325.99 383.949 326.553 384.067 326.97 384.304C327.391 384.536 327.713 384.801 327.936 385.099C328.163 385.393 328.338 385.634 328.461 385.824H328.632V384.091H330.251V395.312C330.251 396.25 330.038 397.012 329.612 397.599C329.19 398.191 328.622 398.625 327.907 398.899C327.197 399.179 326.406 399.318 325.535 399.318ZM325.478 393.324C326.151 393.324 326.719 393.17 327.183 392.862C327.647 392.554 328 392.112 328.241 391.534C328.483 390.956 328.603 390.265 328.603 389.46C328.603 388.674 328.485 387.981 328.248 387.379C328.011 386.778 327.661 386.307 327.197 385.966C326.733 385.625 326.16 385.455 325.478 385.455C324.768 385.455 324.176 385.634 323.703 385.994C323.234 386.354 322.881 386.837 322.645 387.443C322.413 388.049 322.297 388.722 322.297 389.46C322.297 390.218 322.415 390.888 322.652 391.47C322.893 392.048 323.248 392.502 323.717 392.834C324.19 393.161 324.778 393.324 325.478 393.324ZM351.444 387.727C351.444 389.261 351.167 390.587 350.613 391.705C350.059 392.822 349.299 393.684 348.333 394.29C347.368 394.896 346.264 395.199 345.024 395.199C343.783 395.199 342.68 394.896 341.714 394.29C340.748 393.684 339.988 392.822 339.434 391.705C338.88 390.587 338.603 389.261 338.603 387.727C338.603 386.193 338.88 384.867 339.434 383.75C339.988 382.633 340.748 381.771 341.714 381.165C342.68 380.559 343.783 380.256 345.024 380.256C346.264 380.256 347.368 380.559 348.333 381.165C349.299 381.771 350.059 382.633 350.613 383.75C351.167 384.867 351.444 386.193 351.444 387.727ZM349.74 387.727C349.74 386.468 349.529 385.405 349.108 384.538C348.691 383.672 348.125 383.016 347.41 382.571C346.7 382.126 345.904 381.903 345.024 381.903C344.143 381.903 343.345 382.126 342.63 382.571C341.92 383.016 341.354 383.672 340.933 384.538C340.516 385.405 340.308 386.468 340.308 387.727C340.308 388.987 340.516 390.05 340.933 390.916C341.354 391.783 341.92 392.438 342.63 392.884C343.345 393.329 344.143 393.551 345.024 393.551C345.904 393.551 346.7 393.329 347.41 392.884C348.125 392.438 348.691 391.783 349.108 390.916C349.529 390.05 349.74 388.987 349.74 387.727ZM354.179 395V384.091H355.798V385.739H355.912C356.11 385.199 356.47 384.761 356.991 384.425C357.512 384.089 358.099 383.92 358.752 383.92C358.876 383.92 359.029 383.923 359.214 383.928C359.399 383.932 359.538 383.939 359.633 383.949V385.653C359.576 385.639 359.446 385.618 359.243 385.589C359.044 385.556 358.833 385.54 358.61 385.54C358.08 385.54 357.607 385.651 357.19 385.874C356.778 386.091 356.451 386.394 356.21 386.783C355.973 387.166 355.855 387.604 355.855 388.097V395H354.179ZM365.407 395.227C364.498 395.227 363.696 394.998 363 394.538C362.304 394.074 361.759 393.421 361.366 392.578C360.973 391.731 360.777 390.729 360.777 389.574C360.777 388.428 360.973 387.434 361.366 386.591C361.759 385.748 362.306 385.097 363.007 384.638C363.708 384.179 364.517 383.949 365.436 383.949C366.146 383.949 366.707 384.067 367.119 384.304C367.536 384.536 367.853 384.801 368.071 385.099C368.293 385.393 368.466 385.634 368.589 385.824H368.731V380.455H370.407V395H368.788V393.324H368.589C368.466 393.523 368.291 393.774 368.064 394.077C367.836 394.375 367.512 394.643 367.091 394.879C366.669 395.111 366.108 395.227 365.407 395.227ZM365.635 393.722C366.307 393.722 366.875 393.546 367.339 393.196C367.803 392.841 368.156 392.351 368.397 391.726C368.639 391.096 368.76 390.369 368.76 389.545C368.76 388.731 368.641 388.018 368.404 387.408C368.168 386.792 367.817 386.314 367.353 385.973C366.889 385.627 366.316 385.455 365.635 385.455C364.924 385.455 364.333 385.637 363.859 386.001C363.39 386.361 363.038 386.851 362.801 387.472C362.569 388.087 362.453 388.778 362.453 389.545C362.453 390.322 362.571 391.027 362.808 391.662C363.049 392.292 363.404 392.794 363.873 393.168C364.347 393.537 364.934 393.722 365.635 393.722ZM378.284 395.227C377.233 395.227 376.326 394.995 375.564 394.531C374.806 394.062 374.221 393.409 373.809 392.571C373.402 391.728 373.199 390.748 373.199 389.631C373.199 388.513 373.402 387.528 373.809 386.676C374.221 385.819 374.794 385.152 375.528 384.673C376.267 384.19 377.128 383.949 378.113 383.949C378.681 383.949 379.243 384.044 379.797 384.233C380.35 384.422 380.855 384.73 381.309 385.156C381.764 385.578 382.126 386.136 382.396 386.832C382.666 387.528 382.801 388.385 382.801 389.403V390.114H374.392V388.665H381.096C381.096 388.049 380.973 387.5 380.727 387.017C380.485 386.534 380.14 386.153 379.69 385.874C379.245 385.594 378.719 385.455 378.113 385.455C377.446 385.455 376.868 385.62 376.38 385.952C375.897 386.278 375.526 386.705 375.265 387.23C375.005 387.756 374.875 388.319 374.875 388.92V389.886C374.875 390.71 375.017 391.409 375.301 391.982C375.59 392.55 375.99 392.983 376.501 393.281C377.012 393.575 377.607 393.722 378.284 393.722C378.724 393.722 379.122 393.66 379.477 393.537C379.837 393.409 380.147 393.22 380.407 392.969C380.668 392.713 380.869 392.396 381.011 392.017L382.63 392.472C382.46 393.021 382.173 393.504 381.771 393.92C381.368 394.332 380.871 394.654 380.279 394.886C379.688 395.114 379.022 395.227 378.284 395.227ZM385.35 395V384.091H386.97V385.739H387.083C387.282 385.199 387.642 384.761 388.163 384.425C388.684 384.089 389.271 383.92 389.924 383.92C390.047 383.92 390.201 383.923 390.386 383.928C390.571 383.932 390.71 383.939 390.805 383.949V385.653C390.748 385.639 390.618 385.618 390.414 385.589C390.216 385.556 390.005 385.54 389.782 385.54C389.252 385.54 388.779 385.651 388.362 385.874C387.95 386.091 387.623 386.394 387.382 386.783C387.145 387.166 387.027 387.604 387.027 388.097V395H385.35Z" fill="#2502C0"/>
<path d="M519.398 265.239C518.227 265.239 517.193 265.031 516.295 264.616C515.403 264.196 514.707 263.619 514.207 262.886C513.707 262.148 513.46 261.307 513.466 260.364C513.46 259.625 513.605 258.943 513.901 258.318C514.196 257.687 514.599 257.162 515.111 256.741C515.628 256.315 516.205 256.045 516.841 255.932V255.83C516.006 255.614 515.341 255.145 514.847 254.423C514.352 253.696 514.108 252.869 514.114 251.943C514.108 251.057 514.332 250.264 514.787 249.565C515.241 248.866 515.866 248.315 516.662 247.912C517.463 247.509 518.375 247.307 519.398 247.307C520.409 247.307 521.313 247.509 522.108 247.912C522.903 248.315 523.528 248.866 523.983 249.565C524.443 250.264 524.676 251.057 524.682 251.943C524.676 252.869 524.423 253.696 523.923 254.423C523.429 255.145 522.773 255.614 521.955 255.83V255.932C522.585 256.045 523.153 256.315 523.659 256.741C524.165 257.162 524.568 257.687 524.869 258.318C525.17 258.943 525.324 259.625 525.33 260.364C525.324 261.307 525.068 262.148 524.562 262.886C524.062 263.619 523.366 264.196 522.474 264.616C521.588 265.031 520.563 265.239 519.398 265.239ZM519.398 263.364C520.188 263.364 520.869 263.236 521.443 262.98C522.017 262.724 522.46 262.364 522.773 261.898C523.085 261.432 523.244 260.886 523.25 260.261C523.244 259.602 523.074 259.02 522.739 258.514C522.403 258.009 521.946 257.611 521.366 257.321C520.793 257.031 520.136 256.886 519.398 256.886C518.653 256.886 517.989 257.031 517.403 257.321C516.824 257.611 516.366 258.009 516.031 258.514C515.702 259.02 515.54 259.602 515.545 260.261C515.54 260.886 515.69 261.432 515.997 261.898C516.31 262.364 516.756 262.724 517.335 262.98C517.915 263.236 518.602 263.364 519.398 263.364ZM519.398 255.08C520.023 255.08 520.577 254.955 521.06 254.705C521.548 254.455 521.932 254.105 522.21 253.656C522.489 253.207 522.631 252.682 522.636 252.08C522.631 251.489 522.491 250.974 522.219 250.537C521.946 250.094 521.568 249.753 521.085 249.514C520.602 249.27 520.04 249.148 519.398 249.148C518.744 249.148 518.173 249.27 517.685 249.514C517.196 249.753 516.818 250.094 516.551 250.537C516.284 250.974 516.153 251.489 516.159 252.08C516.153 252.682 516.287 253.207 516.56 253.656C516.838 254.105 517.222 254.455 517.71 254.705C518.199 254.955 518.761 255.08 519.398 255.08Z" fill="black"/>
<path d="M578.364 247.307C579.08 247.312 579.795 247.449 580.511 247.716C581.227 247.983 581.881 248.426 582.472 249.045C583.063 249.659 583.537 250.497 583.895 251.56C584.253 252.622 584.432 253.955 584.432 255.557C584.432 257.108 584.284 258.486 583.989 259.69C583.699 260.889 583.278 261.901 582.727 262.724C582.182 263.548 581.517 264.173 580.733 264.599C579.955 265.026 579.074 265.239 578.091 265.239C577.114 265.239 576.241 265.045 575.474 264.659C574.713 264.267 574.088 263.724 573.599 263.031C573.116 262.332 572.807 261.523 572.67 260.602H574.75C574.938 261.403 575.31 262.065 575.866 262.588C576.429 263.105 577.17 263.364 578.091 263.364C579.438 263.364 580.5 262.776 581.278 261.599C582.063 260.423 582.455 258.761 582.455 256.614H582.318C582 257.091 581.622 257.503 581.185 257.849C580.747 258.196 580.261 258.463 579.727 258.651C579.193 258.838 578.625 258.932 578.023 258.932C577.023 258.932 576.105 258.685 575.27 258.19C574.44 257.69 573.776 257.006 573.276 256.136C572.781 255.261 572.534 254.261 572.534 253.136C572.534 252.068 572.773 251.091 573.25 250.205C573.733 249.312 574.409 248.602 575.278 248.074C576.153 247.545 577.182 247.29 578.364 247.307ZM578.364 249.182C577.648 249.182 577.003 249.361 576.429 249.719C575.861 250.071 575.409 250.548 575.074 251.151C574.744 251.747 574.58 252.409 574.58 253.136C574.58 253.864 574.739 254.526 575.057 255.122C575.381 255.713 575.821 256.185 576.378 256.537C576.94 256.884 577.58 257.057 578.295 257.057C578.835 257.057 579.338 256.952 579.804 256.741C580.27 256.526 580.676 256.233 581.023 255.864C581.375 255.489 581.651 255.065 581.849 254.594C582.048 254.116 582.148 253.619 582.148 253.102C582.148 252.42 581.983 251.781 581.653 251.185C581.33 250.588 580.881 250.105 580.307 249.736C579.739 249.366 579.091 249.182 578.364 249.182Z" fill="black"/>
<path d="M628.943 247.545V265H626.83V249.761H626.727L622.466 252.591V250.443L626.83 247.545H628.943ZM639.656 265.239C638.372 265.239 637.278 264.889 636.375 264.19C635.472 263.486 634.781 262.466 634.304 261.131C633.827 259.79 633.588 258.17 633.588 256.273C633.588 254.386 633.827 252.776 634.304 251.44C634.787 250.099 635.48 249.077 636.384 248.372C637.293 247.662 638.384 247.307 639.656 247.307C640.929 247.307 642.017 247.662 642.92 248.372C643.83 249.077 644.523 250.099 645 251.44C645.483 252.776 645.724 254.386 645.724 256.273C645.724 258.17 645.486 259.79 645.009 261.131C644.531 262.466 643.841 263.486 642.938 264.19C642.034 264.889 640.94 265.239 639.656 265.239ZM639.656 263.364C640.929 263.364 641.918 262.75 642.622 261.523C643.327 260.295 643.679 258.545 643.679 256.273C643.679 254.761 643.517 253.474 643.193 252.412C642.875 251.349 642.415 250.54 641.812 249.983C641.216 249.426 640.497 249.148 639.656 249.148C638.395 249.148 637.409 249.77 636.699 251.014C635.989 252.253 635.634 254.006 635.634 256.273C635.634 257.784 635.793 259.068 636.111 260.125C636.429 261.182 636.886 261.986 637.483 262.537C638.085 263.088 638.81 263.364 639.656 263.364Z" fill="black"/>
<path d="M461.352 265L469.159 249.557V249.42H460.159V247.545H471.341V249.523L463.568 265H461.352Z" fill="black"/>
<path d="M343.261 265.239C342.261 265.239 341.361 265.04 340.56 264.642C339.759 264.244 339.116 263.699 338.634 263.006C338.151 262.312 337.886 261.523 337.841 260.636H339.886C339.966 261.426 340.324 262.08 340.96 262.597C341.602 263.108 342.369 263.364 343.261 263.364C343.977 263.364 344.614 263.196 345.17 262.861C345.733 262.526 346.173 262.065 346.491 261.48C346.815 260.889 346.977 260.222 346.977 259.477C346.977 258.716 346.81 258.037 346.474 257.44C346.145 256.838 345.69 256.364 345.111 256.017C344.531 255.67 343.869 255.494 343.125 255.489C342.591 255.483 342.043 255.565 341.48 255.736C340.918 255.901 340.455 256.114 340.091 256.375L338.114 256.136L339.17 247.545H348.239V249.42H340.943L340.33 254.568H340.432C340.79 254.284 341.239 254.048 341.778 253.861C342.318 253.673 342.881 253.58 343.466 253.58C344.534 253.58 345.486 253.835 346.321 254.347C347.162 254.852 347.821 255.545 348.298 256.426C348.781 257.307 349.023 258.312 349.023 259.443C349.023 260.557 348.773 261.551 348.273 262.426C347.778 263.295 347.097 263.983 346.227 264.489C345.358 264.989 344.369 265.239 343.261 265.239Z" fill="black"/>
<path d="M404.602 265.239C403.886 265.227 403.17 265.091 402.455 264.83C401.739 264.568 401.085 264.128 400.494 263.509C399.903 262.884 399.429 262.04 399.071 260.977C398.713 259.909 398.534 258.568 398.534 256.955C398.534 255.409 398.679 254.04 398.969 252.847C399.259 251.648 399.679 250.639 400.23 249.821C400.781 248.997 401.446 248.372 402.224 247.946C403.009 247.52 403.892 247.307 404.875 247.307C405.852 247.307 406.722 247.503 407.483 247.895C408.25 248.281 408.875 248.821 409.358 249.514C409.841 250.207 410.153 251.006 410.295 251.909H408.216C408.023 251.125 407.648 250.474 407.091 249.957C406.534 249.44 405.795 249.182 404.875 249.182C403.523 249.182 402.457 249.77 401.679 250.946C400.906 252.122 400.517 253.773 400.511 255.898H400.648C400.966 255.415 401.344 255.003 401.781 254.662C402.224 254.315 402.713 254.048 403.247 253.861C403.781 253.673 404.347 253.58 404.943 253.58C405.943 253.58 406.858 253.83 407.688 254.33C408.517 254.824 409.182 255.509 409.682 256.384C410.182 257.253 410.432 258.25 410.432 259.375C410.432 260.455 410.19 261.443 409.707 262.341C409.224 263.233 408.545 263.943 407.67 264.472C406.801 264.994 405.778 265.25 404.602 265.239ZM404.602 263.364C405.318 263.364 405.96 263.185 406.528 262.827C407.102 262.469 407.554 261.989 407.884 261.386C408.219 260.784 408.386 260.114 408.386 259.375C408.386 258.653 408.224 257.997 407.901 257.406C407.582 256.81 407.142 256.335 406.58 255.983C406.023 255.631 405.386 255.455 404.67 255.455C404.131 255.455 403.628 255.562 403.162 255.778C402.696 255.989 402.287 256.278 401.935 256.648C401.588 257.017 401.315 257.44 401.116 257.918C400.918 258.389 400.818 258.886 400.818 259.409C400.818 260.102 400.98 260.75 401.304 261.352C401.634 261.955 402.082 262.44 402.651 262.81C403.224 263.179 403.875 263.364 404.602 263.364Z" fill="black"/>
<path d="M81.3068 36.4545H83.0682V46.0852C83.0682 47.0795 82.8338 47.9673 82.3651 48.7486C81.901 49.5251 81.2453 50.1383 80.3977 50.5881C79.5502 51.0331 78.5559 51.2557 77.4148 51.2557C76.2737 51.2557 75.2794 51.0331 74.4318 50.5881C73.5843 50.1383 72.9261 49.5251 72.4574 48.7486C71.9934 47.9673 71.7614 47.0795 71.7614 46.0852V36.4545H73.5227V45.9432C73.5227 46.6534 73.679 47.2855 73.9915 47.8395C74.304 48.3887 74.7491 48.822 75.3267 49.1392C75.9091 49.4517 76.6051 49.608 77.4148 49.608C78.2244 49.608 78.9205 49.4517 79.5028 49.1392C80.0852 48.822 80.5303 48.3887 80.8381 47.8395C81.1506 47.2855 81.3068 46.6534 81.3068 45.9432V36.4545ZM88.0344 44.4375V51H86.3583V40.0909H87.9776V41.7955H88.1197C88.3754 41.2415 88.7636 40.7964 89.2844 40.4602C89.8053 40.1193 90.4776 39.9489 91.3015 39.9489C92.0401 39.9489 92.6864 40.1004 93.2404 40.4034C93.7944 40.7017 94.2253 41.1562 94.533 41.767C94.8408 42.3731 94.9947 43.1402 94.9947 44.0682V51H93.3185V44.1818C93.3185 43.3248 93.096 42.6572 92.6509 42.179C92.2058 41.696 91.5951 41.4545 90.8185 41.4545C90.2835 41.4545 89.8053 41.5705 89.3839 41.8026C88.9672 42.0346 88.6381 42.3731 88.3967 42.8182C88.1552 43.2633 88.0344 43.803 88.0344 44.4375ZM105.785 42.5341L104.279 42.9602C104.184 42.7093 104.045 42.4654 103.86 42.2287C103.68 41.9872 103.434 41.7884 103.121 41.6321C102.809 41.4759 102.409 41.3977 101.921 41.3977C101.254 41.3977 100.697 41.5516 100.252 41.8594C99.8118 42.1624 99.5916 42.5483 99.5916 43.017C99.5916 43.4337 99.7431 43.7628 100.046 44.0043C100.349 44.2457 100.823 44.447 101.467 44.608L103.086 45.0057C104.061 45.2424 104.788 45.6046 105.266 46.0923C105.745 46.5753 105.984 47.1979 105.984 47.9602C105.984 48.5852 105.804 49.1439 105.444 49.6364C105.089 50.1288 104.592 50.517 103.952 50.8011C103.313 51.0852 102.57 51.2273 101.722 51.2273C100.61 51.2273 99.6887 50.9858 98.9595 50.5028C98.2304 50.0199 97.7687 49.3144 97.5746 48.3864L99.1655 47.9886C99.317 48.5758 99.6035 49.0161 100.025 49.3097C100.451 49.6032 101.007 49.75 101.694 49.75C102.475 49.75 103.095 49.5843 103.555 49.2528C104.019 48.9167 104.251 48.5142 104.251 48.0455C104.251 47.6667 104.118 47.3494 103.853 47.0938C103.588 46.8333 103.181 46.6392 102.631 46.5114L100.813 46.0852C99.8142 45.8485 99.0803 45.4815 98.6115 44.9844C98.1475 44.4825 97.9155 43.8551 97.9155 43.1023C97.9155 42.4867 98.0883 41.9422 98.4339 41.4688C98.7843 40.9953 99.2602 40.6236 99.8615 40.3537C100.468 40.0838 101.154 39.9489 101.921 39.9489C103.001 39.9489 103.848 40.1856 104.464 40.6591C105.084 41.1326 105.524 41.7576 105.785 42.5341ZM112.939 51.2273C111.954 51.2273 111.09 50.9929 110.346 50.5241C109.608 50.0554 109.03 49.3996 108.613 48.5568C108.201 47.714 107.995 46.7292 107.995 45.6023C107.995 44.4659 108.201 43.474 108.613 42.6264C109.03 41.7789 109.608 41.1207 110.346 40.652C111.09 40.1832 111.954 39.9489 112.939 39.9489C113.923 39.9489 114.785 40.1832 115.524 40.652C116.267 41.1207 116.845 41.7789 117.257 42.6264C117.673 43.474 117.882 44.4659 117.882 45.6023C117.882 46.7292 117.673 47.714 117.257 48.5568C116.845 49.3996 116.267 50.0554 115.524 50.5241C114.785 50.9929 113.923 51.2273 112.939 51.2273ZM112.939 49.7216C113.687 49.7216 114.302 49.5298 114.785 49.1463C115.268 48.7628 115.626 48.2585 115.858 47.6335C116.09 47.0085 116.206 46.3314 116.206 45.6023C116.206 44.8731 116.09 44.1937 115.858 43.5639C115.626 42.9342 115.268 42.4252 114.785 42.0369C114.302 41.6487 113.687 41.4545 112.939 41.4545C112.19 41.4545 111.575 41.6487 111.092 42.0369C110.609 42.4252 110.252 42.9342 110.02 43.5639C109.788 44.1937 109.672 44.8731 109.672 45.6023C109.672 46.3314 109.788 47.0085 110.02 47.6335C110.252 48.2585 110.609 48.7628 111.092 49.1463C111.575 49.5298 112.19 49.7216 112.939 49.7216ZM120.44 51V40.0909H122.06V41.7386H122.173C122.372 41.1989 122.732 40.7609 123.253 40.4247C123.774 40.0885 124.361 39.9205 125.014 39.9205C125.137 39.9205 125.291 39.9228 125.476 39.9276C125.661 39.9323 125.8 39.9394 125.895 39.9489V41.6534C125.838 41.6392 125.708 41.6179 125.504 41.5895C125.305 41.5563 125.095 41.5398 124.872 41.5398C124.342 41.5398 123.868 41.651 123.452 41.8736C123.04 42.0914 122.713 42.3944 122.472 42.7827C122.235 43.1662 122.116 43.6042 122.116 44.0966V51H120.44ZM133.31 40.0909V41.5114H127.656V40.0909H133.31ZM129.304 37.4773H130.98V47.875C130.98 48.3485 131.049 48.7036 131.186 48.9403C131.328 49.1723 131.508 49.3286 131.726 49.4091C131.948 49.4848 132.183 49.5227 132.429 49.5227C132.614 49.5227 132.765 49.5133 132.884 49.4943C133.002 49.4706 133.097 49.4517 133.168 49.4375L133.509 50.9432C133.395 50.9858 133.236 51.0284 133.033 51.071C132.829 51.1184 132.571 51.142 132.259 51.142C131.785 51.142 131.321 51.0402 130.866 50.8366C130.417 50.633 130.043 50.3229 129.744 49.9062C129.451 49.4896 129.304 48.964 129.304 48.3295V37.4773ZM140.288 51.2273C139.237 51.2273 138.33 50.9953 137.567 50.5312C136.81 50.0625 136.225 49.4091 135.813 48.571C135.406 47.7282 135.202 46.7481 135.202 45.6307C135.202 44.5133 135.406 43.5284 135.813 42.6761C136.225 41.8191 136.798 41.1515 137.532 40.6733C138.271 40.1903 139.132 39.9489 140.117 39.9489C140.685 39.9489 141.246 40.0436 141.8 40.233C142.354 40.4223 142.859 40.7301 143.313 41.1562C143.768 41.5777 144.13 42.1364 144.4 42.8324C144.67 43.5284 144.805 44.3854 144.805 45.4034V46.1136H136.396V44.6648H143.1C143.1 44.0492 142.977 43.5 142.731 43.017C142.489 42.5341 142.144 42.1529 141.694 41.8736C141.249 41.5942 140.723 41.4545 140.117 41.4545C139.45 41.4545 138.872 41.6203 138.384 41.9517C137.901 42.2784 137.53 42.7045 137.269 43.2301C137.009 43.7557 136.879 44.3191 136.879 44.9205V45.8864C136.879 46.7102 137.021 47.4086 137.305 47.9815C137.594 48.5497 137.994 48.983 138.505 49.2812C139.016 49.5748 139.611 49.7216 140.288 49.7216C140.728 49.7216 141.126 49.66 141.481 49.5369C141.841 49.4091 142.151 49.2197 142.411 48.9688C142.672 48.7131 142.873 48.3958 143.015 48.017L144.634 48.4716C144.464 49.0208 144.177 49.5038 143.775 49.9205C143.372 50.3324 142.875 50.6544 142.283 50.8864C141.692 51.1136 141.026 51.2273 140.288 51.2273ZM151.474 51.2273C150.565 51.2273 149.762 50.9976 149.066 50.5384C148.37 50.0743 147.826 49.4209 147.433 48.5781C147.04 47.7306 146.843 46.7292 146.843 45.5739C146.843 44.428 147.04 43.4337 147.433 42.5909C147.826 41.7481 148.372 41.0971 149.073 40.6378C149.774 40.1785 150.584 39.9489 151.502 39.9489C152.212 39.9489 152.773 40.0672 153.185 40.304C153.602 40.536 153.919 40.8011 154.137 41.0994C154.36 41.393 154.532 41.6345 154.656 41.8239H154.798V36.4545H156.474V51H154.854V49.3239H154.656C154.532 49.5227 154.357 49.7737 154.13 50.0767C153.903 50.375 153.578 50.6425 153.157 50.8793C152.736 51.1113 152.174 51.2273 151.474 51.2273ZM151.701 49.7216C152.373 49.7216 152.942 49.5464 153.406 49.196C153.87 48.8409 154.222 48.3509 154.464 47.7259C154.705 47.0961 154.826 46.3693 154.826 45.5455C154.826 44.7311 154.708 44.0185 154.471 43.4077C154.234 42.7921 153.884 42.3139 153.42 41.973C152.956 41.6274 152.383 41.4545 151.701 41.4545C150.991 41.4545 150.399 41.6368 149.925 42.0014C149.457 42.3613 149.104 42.8513 148.867 43.4716C148.635 44.0871 148.519 44.7784 148.519 45.5455C148.519 46.322 148.638 47.0275 148.874 47.6619C149.116 48.2917 149.471 48.7936 149.94 49.1676C150.413 49.5369 151 49.7216 151.701 49.7216ZM166.225 51H164.379L169.719 36.4545H171.538L176.879 51H175.032L170.685 38.7557H170.572L166.225 51ZM166.907 45.3182H174.35V46.8807H166.907V45.3182ZM178.917 51V40.0909H180.536V41.7386H180.65C180.849 41.1989 181.209 40.7609 181.729 40.4247C182.25 40.0885 182.837 39.9205 183.491 39.9205C183.614 39.9205 183.768 39.9228 183.952 39.9276C184.137 39.9323 184.277 39.9394 184.371 39.9489V41.6534C184.315 41.6392 184.184 41.6179 183.981 41.5895C183.782 41.5563 183.571 41.5398 183.349 41.5398C182.818 41.5398 182.345 41.651 181.928 41.8736C181.516 42.0914 181.19 42.3944 180.948 42.7827C180.711 43.1662 180.593 43.6042 180.593 44.0966V51H178.917ZM186.358 51V40.0909H187.978V41.7386H188.091C188.29 41.1989 188.65 40.7609 189.171 40.4247C189.692 40.0885 190.279 39.9205 190.932 39.9205C191.055 39.9205 191.209 39.9228 191.394 39.9276C191.578 39.9323 191.718 39.9394 191.813 39.9489V41.6534C191.756 41.6392 191.626 41.6179 191.422 41.5895C191.223 41.5563 191.013 41.5398 190.79 41.5398C190.26 41.5398 189.786 41.651 189.37 41.8736C188.958 42.0914 188.631 42.3944 188.39 42.7827C188.153 43.1662 188.034 43.6042 188.034 44.0966V51H186.358ZM197.01 51.2557C196.319 51.2557 195.691 51.1255 195.128 50.8651C194.564 50.5999 194.117 50.2188 193.786 49.7216C193.454 49.2197 193.288 48.6136 193.288 47.9034C193.288 47.2784 193.411 46.7718 193.658 46.3835C193.904 45.9905 194.233 45.6828 194.645 45.4602C195.057 45.2377 195.511 45.072 196.009 44.9631C196.51 44.8494 197.015 44.7595 197.521 44.6932C198.184 44.608 198.722 44.544 199.134 44.5014C199.55 44.4541 199.853 44.3759 200.043 44.267C200.237 44.1581 200.334 43.9687 200.334 43.6989V43.642C200.334 42.9413 200.142 42.3968 199.759 42.0085C199.38 41.6203 198.804 41.4261 198.033 41.4261C197.232 41.4261 196.605 41.6013 196.151 41.9517C195.696 42.3021 195.376 42.6761 195.192 43.0739L193.601 42.5057C193.885 41.8428 194.264 41.3267 194.737 40.9574C195.215 40.5833 195.736 40.3229 196.3 40.1761C196.868 40.0246 197.427 39.9489 197.976 39.9489C198.326 39.9489 198.729 39.9915 199.183 40.0767C199.643 40.1572 200.085 40.3253 200.511 40.581C200.942 40.8366 201.3 41.2225 201.584 41.7386C201.868 42.2547 202.01 42.946 202.01 43.8125V51H200.334V49.5227H200.249C200.135 49.7595 199.946 50.0128 199.68 50.2827C199.415 50.5526 199.063 50.7822 198.622 50.9716C198.182 51.161 197.644 51.2557 197.01 51.2557ZM197.266 49.75C197.929 49.75 198.487 49.6198 198.942 49.3594C199.401 49.099 199.747 48.7628 199.979 48.3509C200.215 47.9389 200.334 47.5057 200.334 47.0511V45.517C200.263 45.6023 200.107 45.6804 199.865 45.7514C199.628 45.8177 199.354 45.8769 199.041 45.929C198.733 45.9763 198.433 46.0189 198.139 46.0568C197.85 46.09 197.616 46.1184 197.436 46.142C197 46.1989 196.593 46.2912 196.214 46.419C195.84 46.5421 195.537 46.7292 195.305 46.9801C195.078 47.2263 194.964 47.5625 194.964 47.9886C194.964 48.571 195.18 49.0114 195.611 49.3097C196.046 49.6032 196.598 49.75 197.266 49.75ZM205.758 55.0909C205.474 55.0909 205.221 55.0672 204.998 55.0199C204.776 54.9773 204.622 54.9347 204.537 54.892L204.963 53.4148C205.37 53.5189 205.73 53.5568 206.042 53.5284C206.355 53.5 206.632 53.3603 206.873 53.1094C207.119 52.8632 207.344 52.4631 207.548 51.9091L207.86 51.0568L203.826 40.0909H205.645L208.656 48.7841H208.77L211.781 40.0909H213.599L208.968 52.5909C208.76 53.1544 208.502 53.6207 208.194 53.9901C207.886 54.3641 207.529 54.6411 207.122 54.821C206.719 55.0009 206.265 55.0909 205.758 55.0909Z" fill="#C60F0F"/>
<path d="M81.7159 210.091C81.6307 209.371 81.285 208.812 80.679 208.415C80.0729 208.017 79.3295 207.818 78.4489 207.818C77.8049 207.818 77.2415 207.922 76.7585 208.131C76.2803 208.339 75.9063 208.625 75.6364 208.99C75.3712 209.355 75.2386 209.769 75.2386 210.233C75.2386 210.621 75.331 210.955 75.5156 211.234C75.705 211.509 75.9465 211.739 76.2401 211.923C76.5336 212.103 76.8414 212.252 77.1634 212.371C77.4853 212.484 77.7812 212.577 78.0511 212.648L79.5284 213.045C79.9072 213.145 80.3286 213.282 80.7926 213.457C81.2614 213.633 81.7088 213.872 82.1349 214.175C82.5658 214.473 82.9209 214.857 83.2003 215.325C83.4796 215.794 83.6193 216.369 83.6193 217.051C83.6193 217.837 83.4134 218.547 83.0014 219.182C82.5942 219.816 81.9976 220.321 81.2116 220.695C80.4304 221.069 79.4811 221.256 78.3636 221.256C77.322 221.256 76.42 221.088 75.6577 220.751C74.9001 220.415 74.3035 219.946 73.8679 219.345C73.437 218.744 73.1932 218.045 73.1364 217.25H74.9545C75.0019 217.799 75.1866 218.254 75.5085 218.614C75.8352 218.969 76.2472 219.234 76.7443 219.409C77.2462 219.58 77.786 219.665 78.3636 219.665C79.036 219.665 79.6397 219.556 80.1747 219.338C80.7098 219.116 81.1335 218.808 81.446 218.415C81.7585 218.017 81.9148 217.553 81.9148 217.023C81.9148 216.54 81.7798 216.147 81.5099 215.844C81.2401 215.541 80.8849 215.295 80.4446 215.105C80.0043 214.916 79.5284 214.75 79.017 214.608L77.2273 214.097C76.0909 213.77 75.1913 213.304 74.5284 212.697C73.8655 212.091 73.5341 211.298 73.5341 210.318C73.5341 209.504 73.7543 208.794 74.1946 208.188C74.6397 207.577 75.2363 207.103 75.9844 206.767C76.7372 206.426 77.5777 206.256 78.5057 206.256C79.4432 206.256 80.2765 206.424 81.0057 206.76C81.7348 207.091 82.3125 207.546 82.7386 208.124C83.1695 208.701 83.3968 209.357 83.4205 210.091H81.7159ZM90.7198 221.227C89.735 221.227 88.8709 220.993 88.1275 220.524C87.3888 220.055 86.8112 219.4 86.3945 218.557C85.9826 217.714 85.7766 216.729 85.7766 215.602C85.7766 214.466 85.9826 213.474 86.3945 212.626C86.8112 211.779 87.3888 211.121 88.1275 210.652C88.8709 210.183 89.735 209.949 90.7198 209.949C91.7047 209.949 92.5664 210.183 93.305 210.652C94.0484 211.121 94.6261 211.779 95.038 212.626C95.4547 213.474 95.663 214.466 95.663 215.602C95.663 216.729 95.4547 217.714 95.038 218.557C94.6261 219.4 94.0484 220.055 93.305 220.524C92.5664 220.993 91.7047 221.227 90.7198 221.227ZM90.7198 219.722C91.4679 219.722 92.0835 219.53 92.5664 219.146C93.0494 218.763 93.4068 218.259 93.6388 217.634C93.8709 217.009 93.9869 216.331 93.9869 215.602C93.9869 214.873 93.8709 214.194 93.6388 213.564C93.4068 212.934 93.0494 212.425 92.5664 212.037C92.0835 211.649 91.4679 211.455 90.7198 211.455C89.9717 211.455 89.3562 211.649 88.8732 212.037C88.3903 212.425 88.0328 212.934 87.8008 213.564C87.5688 214.194 87.4528 214.873 87.4528 215.602C87.4528 216.331 87.5688 217.009 87.8008 217.634C88.0328 218.259 88.3903 218.763 88.8732 219.146C89.3562 219.53 89.9717 219.722 90.7198 219.722ZM98.2216 221V210.091H99.8409V211.739H99.9545C100.153 211.199 100.513 210.761 101.034 210.425C101.555 210.089 102.142 209.92 102.795 209.92C102.919 209.92 103.072 209.923 103.257 209.928C103.442 209.932 103.581 209.939 103.676 209.949V211.653C103.619 211.639 103.489 211.618 103.286 211.589C103.087 211.556 102.876 211.54 102.653 211.54C102.123 211.54 101.65 211.651 101.233 211.874C100.821 212.091 100.494 212.394 100.253 212.783C100.016 213.166 99.8977 213.604 99.8977 214.097V221H98.2216ZM111.091 210.091V211.511H105.438V210.091H111.091ZM107.085 207.477H108.761V217.875C108.761 218.348 108.83 218.704 108.967 218.94C109.109 219.172 109.289 219.329 109.507 219.409C109.73 219.485 109.964 219.523 110.21 219.523C110.395 219.523 110.546 219.513 110.665 219.494C110.783 219.471 110.878 219.452 110.949 219.438L111.29 220.943C111.176 220.986 111.018 221.028 110.814 221.071C110.61 221.118 110.352 221.142 110.04 221.142C109.566 221.142 109.102 221.04 108.648 220.837C108.198 220.633 107.824 220.323 107.526 219.906C107.232 219.49 107.085 218.964 107.085 218.33V207.477ZM118.069 221.227C117.018 221.227 116.111 220.995 115.349 220.531C114.591 220.062 114.006 219.409 113.594 218.571C113.187 217.728 112.984 216.748 112.984 215.631C112.984 214.513 113.187 213.528 113.594 212.676C114.006 211.819 114.579 211.152 115.313 210.673C116.052 210.19 116.914 209.949 117.898 209.949C118.467 209.949 119.028 210.044 119.582 210.233C120.136 210.422 120.64 210.73 121.094 211.156C121.549 211.578 121.911 212.136 122.181 212.832C122.451 213.528 122.586 214.385 122.586 215.403V216.114H114.177V214.665H120.881C120.881 214.049 120.758 213.5 120.512 213.017C120.271 212.534 119.925 212.153 119.475 211.874C119.03 211.594 118.504 211.455 117.898 211.455C117.231 211.455 116.653 211.62 116.165 211.952C115.683 212.278 115.311 212.705 115.05 213.23C114.79 213.756 114.66 214.319 114.66 214.92V215.886C114.66 216.71 114.802 217.409 115.086 217.982C115.375 218.55 115.775 218.983 116.286 219.281C116.798 219.575 117.392 219.722 118.069 219.722C118.509 219.722 118.907 219.66 119.262 219.537C119.622 219.409 119.932 219.22 120.192 218.969C120.453 218.713 120.654 218.396 120.796 218.017L122.415 218.472C122.245 219.021 121.959 219.504 121.556 219.92C121.154 220.332 120.656 220.654 120.065 220.886C119.473 221.114 118.808 221.227 118.069 221.227ZM129.255 221.227C128.346 221.227 127.543 220.998 126.847 220.538C126.151 220.074 125.607 219.421 125.214 218.578C124.821 217.731 124.624 216.729 124.624 215.574C124.624 214.428 124.821 213.434 125.214 212.591C125.607 211.748 126.154 211.097 126.854 210.638C127.555 210.179 128.365 209.949 129.283 209.949C129.994 209.949 130.555 210.067 130.967 210.304C131.383 210.536 131.701 210.801 131.918 211.099C132.141 211.393 132.314 211.634 132.437 211.824H132.579V206.455H134.255V221H132.636V219.324H132.437C132.314 219.523 132.138 219.774 131.911 220.077C131.684 220.375 131.36 220.643 130.938 220.879C130.517 221.111 129.956 221.227 129.255 221.227ZM129.482 219.722C130.155 219.722 130.723 219.546 131.187 219.196C131.651 218.841 132.004 218.351 132.245 217.726C132.487 217.096 132.607 216.369 132.607 215.545C132.607 214.731 132.489 214.018 132.252 213.408C132.015 212.792 131.665 212.314 131.201 211.973C130.737 211.627 130.164 211.455 129.482 211.455C128.772 211.455 128.18 211.637 127.707 212.001C127.238 212.361 126.885 212.851 126.648 213.472C126.416 214.087 126.3 214.778 126.3 215.545C126.3 216.322 126.419 217.027 126.656 217.662C126.897 218.292 127.252 218.794 127.721 219.168C128.194 219.537 128.781 219.722 129.482 219.722ZM144.006 221H142.16L147.501 206.455H149.319L154.66 221H152.813L148.467 208.756H148.353L144.006 221ZM144.688 215.318H152.131V216.881H144.688V215.318ZM156.698 221V210.091H158.317V211.739H158.431C158.63 211.199 158.99 210.761 159.511 210.425C160.031 210.089 160.619 209.92 161.272 209.92C161.395 209.92 161.549 209.923 161.734 209.928C161.918 209.932 162.058 209.939 162.153 209.949V211.653C162.096 211.639 161.966 211.618 161.762 211.589C161.563 211.556 161.353 211.54 161.13 211.54C160.6 211.54 160.126 211.651 159.71 211.874C159.298 212.091 158.971 212.394 158.729 212.783C158.493 213.166 158.374 213.604 158.374 214.097V221H156.698ZM164.14 221V210.091H165.759V211.739H165.873C166.071 211.199 166.431 210.761 166.952 210.425C167.473 210.089 168.06 209.92 168.713 209.92C168.837 209.92 168.99 209.923 169.175 209.928C169.36 209.932 169.499 209.939 169.594 209.949V211.653C169.537 211.639 169.407 211.618 169.203 211.589C169.005 211.556 168.794 211.54 168.571 211.54C168.041 211.54 167.568 211.651 167.151 211.874C166.739 212.091 166.412 212.394 166.171 212.783C165.934 213.166 165.816 213.604 165.816 214.097V221H164.14ZM174.791 221.256C174.1 221.256 173.473 221.125 172.909 220.865C172.346 220.6 171.898 220.219 171.567 219.722C171.235 219.22 171.07 218.614 171.07 217.903C171.07 217.278 171.193 216.772 171.439 216.384C171.685 215.991 172.014 215.683 172.426 215.46C172.838 215.238 173.293 215.072 173.79 214.963C174.292 214.849 174.796 214.759 175.303 214.693C175.965 214.608 176.503 214.544 176.915 214.501C177.331 214.454 177.634 214.376 177.824 214.267C178.018 214.158 178.115 213.969 178.115 213.699V213.642C178.115 212.941 177.923 212.397 177.54 212.009C177.161 211.62 176.586 211.426 175.814 211.426C175.014 211.426 174.386 211.601 173.932 211.952C173.477 212.302 173.158 212.676 172.973 213.074L171.382 212.506C171.666 211.843 172.045 211.327 172.518 210.957C172.997 210.583 173.518 210.323 174.081 210.176C174.649 210.025 175.208 209.949 175.757 209.949C176.107 209.949 176.51 209.991 176.964 210.077C177.424 210.157 177.866 210.325 178.293 210.581C178.723 210.837 179.081 211.223 179.365 211.739C179.649 212.255 179.791 212.946 179.791 213.812V221H178.115V219.523H178.03C177.916 219.759 177.727 220.013 177.462 220.283C177.196 220.553 176.844 220.782 176.403 220.972C175.963 221.161 175.426 221.256 174.791 221.256ZM175.047 219.75C175.71 219.75 176.268 219.62 176.723 219.359C177.182 219.099 177.528 218.763 177.76 218.351C177.997 217.939 178.115 217.506 178.115 217.051V215.517C178.044 215.602 177.888 215.68 177.646 215.751C177.41 215.818 177.135 215.877 176.822 215.929C176.515 215.976 176.214 216.019 175.92 216.057C175.632 216.09 175.397 216.118 175.217 216.142C174.782 216.199 174.375 216.291 173.996 216.419C173.622 216.542 173.319 216.729 173.087 216.98C172.859 217.226 172.746 217.562 172.746 217.989C172.746 218.571 172.961 219.011 173.392 219.31C173.828 219.603 174.379 219.75 175.047 219.75ZM183.539 225.091C183.255 225.091 183.002 225.067 182.779 225.02C182.557 224.977 182.403 224.935 182.318 224.892L182.744 223.415C183.151 223.519 183.511 223.557 183.824 223.528C184.136 223.5 184.413 223.36 184.654 223.109C184.901 222.863 185.126 222.463 185.329 221.909L185.642 221.057L181.608 210.091H183.426L186.437 218.784H186.551L189.562 210.091H191.38L186.75 222.591C186.541 223.154 186.283 223.621 185.975 223.99C185.668 224.364 185.31 224.641 184.903 224.821C184.501 225.001 184.046 225.091 183.539 225.091ZM199.218 221V210.091H200.894V221H199.218ZM200.07 208.273C199.743 208.273 199.462 208.161 199.225 207.939C198.993 207.716 198.877 207.449 198.877 207.136C198.877 206.824 198.993 206.556 199.225 206.334C199.462 206.111 199.743 206 200.07 206C200.397 206 200.676 206.111 200.908 206.334C201.145 206.556 201.263 206.824 201.263 207.136C201.263 207.449 201.145 207.716 200.908 207.939C200.676 208.161 200.397 208.273 200.07 208.273ZM205.64 214.438V221H203.964V210.091H205.583V211.795H205.725C205.981 211.241 206.369 210.796 206.89 210.46C207.411 210.119 208.083 209.949 208.907 209.949C209.646 209.949 210.292 210.1 210.846 210.403C211.4 210.702 211.831 211.156 212.138 211.767C212.446 212.373 212.6 213.14 212.6 214.068V221H210.924V214.182C210.924 213.325 210.701 212.657 210.256 212.179C209.811 211.696 209.201 211.455 208.424 211.455C207.889 211.455 207.411 211.571 206.989 211.803C206.573 212.035 206.244 212.373 206.002 212.818C205.761 213.263 205.64 213.803 205.64 214.438ZM222.112 221H220.265L225.606 206.455H227.424L232.765 221H230.919L226.572 208.756H226.458L222.112 221ZM222.794 215.318H230.237V216.881H222.794V215.318ZM242.531 212.534L241.025 212.96C240.931 212.709 240.791 212.465 240.606 212.229C240.426 211.987 240.18 211.788 239.868 211.632C239.555 211.476 239.155 211.398 238.667 211.398C238 211.398 237.443 211.552 236.998 211.859C236.558 212.162 236.338 212.548 236.338 213.017C236.338 213.434 236.489 213.763 236.792 214.004C237.095 214.246 237.569 214.447 238.213 214.608L239.832 215.006C240.807 215.242 241.534 215.605 242.012 216.092C242.491 216.575 242.73 217.198 242.73 217.96C242.73 218.585 242.55 219.144 242.19 219.636C241.835 220.129 241.338 220.517 240.699 220.801C240.059 221.085 239.316 221.227 238.468 221.227C237.356 221.227 236.435 220.986 235.706 220.503C234.976 220.02 234.515 219.314 234.321 218.386L235.912 217.989C236.063 218.576 236.35 219.016 236.771 219.31C237.197 219.603 237.753 219.75 238.44 219.75C239.221 219.75 239.842 219.584 240.301 219.253C240.765 218.917 240.997 218.514 240.997 218.045C240.997 217.667 240.864 217.349 240.599 217.094C240.334 216.833 239.927 216.639 239.377 216.511L237.559 216.085C236.56 215.848 235.826 215.482 235.358 214.984C234.894 214.482 234.662 213.855 234.662 213.102C234.662 212.487 234.834 211.942 235.18 211.469C235.53 210.995 236.006 210.624 236.608 210.354C237.214 210.084 237.9 209.949 238.667 209.949C239.747 209.949 240.594 210.186 241.21 210.659C241.83 211.133 242.27 211.758 242.531 212.534ZM249.685 221.227C248.662 221.227 247.781 220.986 247.043 220.503C246.304 220.02 245.736 219.355 245.338 218.507C244.94 217.66 244.741 216.691 244.741 215.602C244.741 214.494 244.945 213.517 245.352 212.669C245.764 211.817 246.337 211.152 247.071 210.673C247.81 210.19 248.671 209.949 249.656 209.949C250.423 209.949 251.115 210.091 251.73 210.375C252.346 210.659 252.85 211.057 253.243 211.568C253.636 212.08 253.88 212.676 253.974 213.358H252.298C252.17 212.861 251.886 212.42 251.446 212.037C251.01 211.649 250.423 211.455 249.685 211.455C249.031 211.455 248.458 211.625 247.966 211.966C247.478 212.302 247.097 212.778 246.822 213.393C246.553 214.004 246.418 214.722 246.418 215.545C246.418 216.388 246.55 217.122 246.815 217.747C247.085 218.372 247.464 218.857 247.952 219.203C248.444 219.549 249.022 219.722 249.685 219.722C250.12 219.722 250.516 219.646 250.871 219.494C251.226 219.343 251.527 219.125 251.773 218.841C252.019 218.557 252.194 218.216 252.298 217.818H253.974C253.88 218.462 253.645 219.042 253.271 219.558C252.902 220.07 252.412 220.477 251.801 220.78C251.195 221.078 250.49 221.227 249.685 221.227ZM260.999 221.227C259.947 221.227 259.041 220.995 258.278 220.531C257.521 220.062 256.936 219.409 256.524 218.571C256.117 217.728 255.913 216.748 255.913 215.631C255.913 214.513 256.117 213.528 256.524 212.676C256.936 211.819 257.509 211.152 258.243 210.673C258.982 210.19 259.843 209.949 260.828 209.949C261.396 209.949 261.957 210.044 262.511 210.233C263.065 210.422 263.57 210.73 264.024 211.156C264.479 211.578 264.841 212.136 265.111 212.832C265.381 213.528 265.516 214.385 265.516 215.403V216.114H257.107V214.665H263.811C263.811 214.049 263.688 213.5 263.442 213.017C263.2 212.534 262.855 212.153 262.405 211.874C261.96 211.594 261.434 211.455 260.828 211.455C260.161 211.455 259.583 211.62 259.095 211.952C258.612 212.278 258.241 212.705 257.98 213.23C257.72 213.756 257.589 214.319 257.589 214.92V215.886C257.589 216.71 257.732 217.409 258.016 217.982C258.304 218.55 258.705 218.983 259.216 219.281C259.727 219.575 260.321 219.722 260.999 219.722C261.439 219.722 261.837 219.66 262.192 219.537C262.552 219.409 262.862 219.22 263.122 218.969C263.383 218.713 263.584 218.396 263.726 218.017L265.345 218.472C265.175 219.021 264.888 219.504 264.486 219.92C264.083 220.332 263.586 220.654 262.994 220.886C262.402 221.114 261.737 221.227 260.999 221.227ZM269.741 214.438V221H268.065V210.091H269.685V211.795H269.827C270.082 211.241 270.471 210.796 270.991 210.46C271.512 210.119 272.185 209.949 273.009 209.949C273.747 209.949 274.393 210.1 274.947 210.403C275.501 210.702 275.932 211.156 276.24 211.767C276.548 212.373 276.702 213.14 276.702 214.068V221H275.026V214.182C275.026 213.325 274.803 212.657 274.358 212.179C273.913 211.696 273.302 211.455 272.526 211.455C271.991 211.455 271.512 211.571 271.091 211.803C270.674 212.035 270.345 212.373 270.104 212.818C269.862 213.263 269.741 213.803 269.741 214.438ZM283.884 221.227C282.975 221.227 282.172 220.998 281.476 220.538C280.78 220.074 280.236 219.421 279.843 218.578C279.45 217.731 279.253 216.729 279.253 215.574C279.253 214.428 279.45 213.434 279.843 212.591C280.236 211.748 280.783 211.097 281.483 210.638C282.184 210.179 282.994 209.949 283.912 209.949C284.623 209.949 285.184 210.067 285.596 210.304C286.012 210.536 286.329 210.801 286.547 211.099C286.77 211.393 286.943 211.634 287.066 211.824H287.208V206.455H288.884V221H287.265V219.324H287.066C286.943 219.523 286.767 219.774 286.54 220.077C286.313 220.375 285.989 220.643 285.567 220.879C285.146 221.111 284.585 221.227 283.884 221.227ZM284.111 219.722C284.783 219.722 285.352 219.546 285.816 219.196C286.28 218.841 286.632 218.351 286.874 217.726C287.115 217.096 287.236 216.369 287.236 215.545C287.236 214.731 287.118 214.018 286.881 213.408C286.644 212.792 286.294 212.314 285.83 211.973C285.366 211.627 284.793 211.455 284.111 211.455C283.401 211.455 282.809 211.637 282.336 212.001C281.867 212.361 281.514 212.851 281.277 213.472C281.045 214.087 280.929 214.778 280.929 215.545C280.929 216.322 281.048 217.027 281.284 217.662C281.526 218.292 281.881 218.794 282.35 219.168C282.823 219.537 283.41 219.722 284.111 219.722ZM292.186 221V210.091H293.863V221H292.186ZM293.039 208.273C292.712 208.273 292.43 208.161 292.194 207.939C291.962 207.716 291.846 207.449 291.846 207.136C291.846 206.824 291.962 206.556 292.194 206.334C292.43 206.111 292.712 206 293.039 206C293.365 206 293.645 206.111 293.877 206.334C294.114 206.556 294.232 206.824 294.232 207.136C294.232 207.449 294.114 207.716 293.877 207.939C293.645 208.161 293.365 208.273 293.039 208.273ZM298.609 214.438V221H296.933V210.091H298.552V211.795H298.694C298.95 211.241 299.338 210.796 299.859 210.46C300.379 210.119 301.052 209.949 301.876 209.949C302.614 209.949 303.261 210.1 303.815 210.403C304.369 210.702 304.799 211.156 305.107 211.767C305.415 212.373 305.569 213.14 305.569 214.068V221H303.893V214.182C303.893 213.325 303.67 212.657 303.225 212.179C302.78 211.696 302.169 211.455 301.393 211.455C300.858 211.455 300.379 211.571 299.958 211.803C299.541 212.035 299.212 212.373 298.971 212.818C298.729 213.263 298.609 213.803 298.609 214.438ZM313.035 225.318C312.225 225.318 311.529 225.214 310.947 225.006C310.365 224.802 309.879 224.532 309.491 224.196C309.108 223.865 308.802 223.509 308.575 223.131L309.91 222.193C310.062 222.392 310.253 222.619 310.485 222.875C310.717 223.135 311.035 223.36 311.437 223.55C311.844 223.744 312.377 223.841 313.035 223.841C313.916 223.841 314.643 223.628 315.216 223.202C315.788 222.776 316.075 222.108 316.075 221.199V218.983H315.933C315.81 219.182 315.635 219.428 315.407 219.722C315.185 220.01 314.863 220.268 314.441 220.496C314.025 220.718 313.461 220.83 312.751 220.83C311.87 220.83 311.08 220.621 310.379 220.205C309.683 219.788 309.131 219.182 308.724 218.386C308.322 217.591 308.12 216.625 308.12 215.489C308.12 214.371 308.317 213.398 308.71 212.57C309.103 211.736 309.65 211.092 310.35 210.638C311.051 210.179 311.861 209.949 312.779 209.949C313.49 209.949 314.053 210.067 314.47 210.304C314.891 210.536 315.213 210.801 315.436 211.099C315.663 211.393 315.838 211.634 315.961 211.824H316.132V210.091H317.751V221.312C317.751 222.25 317.538 223.012 317.112 223.599C316.69 224.191 316.122 224.625 315.407 224.899C314.697 225.179 313.906 225.318 313.035 225.318ZM312.978 219.324C313.651 219.324 314.219 219.17 314.683 218.862C315.147 218.554 315.5 218.112 315.741 217.534C315.983 216.956 316.103 216.265 316.103 215.46C316.103 214.674 315.985 213.981 315.748 213.379C315.511 212.778 315.161 212.307 314.697 211.966C314.233 211.625 313.66 211.455 312.978 211.455C312.268 211.455 311.676 211.634 311.203 211.994C310.734 212.354 310.381 212.837 310.145 213.443C309.913 214.049 309.797 214.722 309.797 215.46C309.797 216.218 309.915 216.888 310.152 217.47C310.393 218.048 310.748 218.502 311.217 218.834C311.69 219.161 312.278 219.324 312.978 219.324ZM338.944 213.727C338.944 215.261 338.667 216.587 338.113 217.705C337.559 218.822 336.799 219.684 335.833 220.29C334.868 220.896 333.764 221.199 332.524 221.199C331.283 221.199 330.18 220.896 329.214 220.29C328.248 219.684 327.488 218.822 326.934 217.705C326.38 216.587 326.103 215.261 326.103 213.727C326.103 212.193 326.38 210.867 326.934 209.75C327.488 208.633 328.248 207.771 329.214 207.165C330.18 206.559 331.283 206.256 332.524 206.256C333.764 206.256 334.868 206.559 335.833 207.165C336.799 207.771 337.559 208.633 338.113 209.75C338.667 210.867 338.944 212.193 338.944 213.727ZM337.24 213.727C337.24 212.468 337.029 211.405 336.608 210.538C336.191 209.672 335.625 209.016 334.91 208.571C334.2 208.126 333.404 207.903 332.524 207.903C331.643 207.903 330.845 208.126 330.13 208.571C329.42 209.016 328.854 209.672 328.433 210.538C328.016 211.405 327.808 212.468 327.808 213.727C327.808 214.987 328.016 216.05 328.433 216.916C328.854 217.783 329.42 218.438 330.13 218.884C330.845 219.329 331.643 219.551 332.524 219.551C333.404 219.551 334.2 219.329 334.91 218.884C335.625 218.438 336.191 217.783 336.608 216.916C337.029 216.05 337.24 214.987 337.24 213.727ZM341.679 221V210.091H343.298V211.739H343.412C343.61 211.199 343.97 210.761 344.491 210.425C345.012 210.089 345.599 209.92 346.252 209.92C346.376 209.92 346.529 209.923 346.714 209.928C346.899 209.932 347.038 209.939 347.133 209.949V211.653C347.076 211.639 346.946 211.618 346.743 211.589C346.544 211.556 346.333 211.54 346.11 211.54C345.58 211.54 345.107 211.651 344.69 211.874C344.278 212.091 343.951 212.394 343.71 212.783C343.473 213.166 343.355 213.604 343.355 214.097V221H341.679ZM352.907 221.227C351.998 221.227 351.196 220.998 350.5 220.538C349.804 220.074 349.259 219.421 348.866 218.578C348.473 217.731 348.277 216.729 348.277 215.574C348.277 214.428 348.473 213.434 348.866 212.591C349.259 211.748 349.806 211.097 350.507 210.638C351.208 210.179 352.017 209.949 352.936 209.949C353.646 209.949 354.207 210.067 354.619 210.304C355.036 210.536 355.353 210.801 355.571 211.099C355.793 211.393 355.966 211.634 356.089 211.824H356.231V206.455H357.907V221H356.288V219.324H356.089C355.966 219.523 355.791 219.774 355.564 220.077C355.336 220.375 355.012 220.643 354.591 220.879C354.169 221.111 353.608 221.227 352.907 221.227ZM353.135 219.722C353.807 219.722 354.375 219.546 354.839 219.196C355.303 218.841 355.656 218.351 355.897 217.726C356.139 217.096 356.26 216.369 356.26 215.545C356.26 214.731 356.141 214.018 355.904 213.408C355.668 212.792 355.317 212.314 354.853 211.973C354.389 211.627 353.816 211.455 353.135 211.455C352.424 211.455 351.833 211.637 351.359 212.001C350.89 212.361 350.538 212.851 350.301 213.472C350.069 214.087 349.953 214.778 349.953 215.545C349.953 216.322 350.071 217.027 350.308 217.662C350.549 218.292 350.904 218.794 351.373 219.168C351.847 219.537 352.434 219.722 353.135 219.722ZM365.784 221.227C364.733 221.227 363.826 220.995 363.064 220.531C362.306 220.062 361.721 219.409 361.309 218.571C360.902 217.728 360.699 216.748 360.699 215.631C360.699 214.513 360.902 213.528 361.309 212.676C361.721 211.819 362.294 211.152 363.028 210.673C363.767 210.19 364.628 209.949 365.613 209.949C366.181 209.949 366.743 210.044 367.297 210.233C367.85 210.422 368.355 210.73 368.809 211.156C369.264 211.578 369.626 212.136 369.896 212.832C370.166 213.528 370.301 214.385 370.301 215.403V216.114H361.892V214.665H368.596C368.596 214.049 368.473 213.5 368.227 213.017C367.985 212.534 367.64 212.153 367.19 211.874C366.745 211.594 366.219 211.455 365.613 211.455C364.946 211.455 364.368 211.62 363.88 211.952C363.397 212.278 363.026 212.705 362.765 213.23C362.505 213.756 362.375 214.319 362.375 214.92V215.886C362.375 216.71 362.517 217.409 362.801 217.982C363.09 218.55 363.49 218.983 364.001 219.281C364.512 219.575 365.107 219.722 365.784 219.722C366.224 219.722 366.622 219.66 366.977 219.537C367.337 219.409 367.647 219.22 367.907 218.969C368.168 218.713 368.369 218.396 368.511 218.017L370.13 218.472C369.96 219.021 369.673 219.504 369.271 219.92C368.868 220.332 368.371 220.654 367.779 220.886C367.188 221.114 366.522 221.227 365.784 221.227ZM372.85 221V210.091H374.47V211.739H374.583C374.782 211.199 375.142 210.761 375.663 210.425C376.184 210.089 376.771 209.92 377.424 209.92C377.547 209.92 377.701 209.923 377.886 209.928C378.071 209.932 378.21 209.939 378.305 209.949V211.653C378.248 211.639 378.118 211.618 377.914 211.589C377.716 211.556 377.505 211.54 377.282 211.54C376.752 211.54 376.279 211.651 375.862 211.874C375.45 212.091 375.123 212.394 374.882 212.783C374.645 213.166 374.527 213.604 374.527 214.097V221H372.85Z" fill="#2502C0"/>
<path d="M159.364 420.307C160.08 420.312 160.795 420.449 161.511 420.716C162.227 420.983 162.881 421.426 163.472 422.045C164.063 422.659 164.537 423.497 164.895 424.56C165.253 425.622 165.432 426.955 165.432 428.557C165.432 430.108 165.284 431.486 164.989 432.69C164.699 433.889 164.278 434.901 163.727 435.724C163.182 436.548 162.517 437.173 161.733 437.599C160.955 438.026 160.074 438.239 159.091 438.239C158.114 438.239 157.241 438.045 156.474 437.659C155.713 437.267 155.088 436.724 154.599 436.031C154.116 435.332 153.807 434.523 153.67 433.602H155.75C155.938 434.403 156.31 435.065 156.866 435.588C157.429 436.105 158.17 436.364 159.091 436.364C160.438 436.364 161.5 435.776 162.278 434.599C163.063 433.423 163.455 431.761 163.455 429.614H163.318C163 430.091 162.622 430.503 162.185 430.849C161.747 431.196 161.261 431.463 160.727 431.651C160.193 431.838 159.625 431.932 159.023 431.932C158.023 431.932 157.105 431.685 156.27 431.19C155.44 430.69 154.776 430.006 154.276 429.136C153.781 428.261 153.534 427.261 153.534 426.136C153.534 425.068 153.773 424.091 154.25 423.205C154.733 422.312 155.409 421.602 156.278 421.074C157.153 420.545 158.182 420.29 159.364 420.307ZM159.364 422.182C158.648 422.182 158.003 422.361 157.429 422.719C156.861 423.071 156.409 423.548 156.074 424.151C155.744 424.747 155.58 425.409 155.58 426.136C155.58 426.864 155.739 427.526 156.057 428.122C156.381 428.713 156.821 429.185 157.378 429.537C157.94 429.884 158.58 430.057 159.295 430.057C159.835 430.057 160.338 429.952 160.804 429.741C161.27 429.526 161.676 429.233 162.023 428.864C162.375 428.489 162.651 428.065 162.849 427.594C163.048 427.116 163.148 426.619 163.148 426.102C163.148 425.42 162.983 424.781 162.653 424.185C162.33 423.588 161.881 423.105 161.307 422.736C160.739 422.366 160.091 422.182 159.364 422.182Z" fill="black"/>
<path d="M221.398 438.239C220.227 438.239 219.193 438.031 218.295 437.616C217.403 437.196 216.707 436.619 216.207 435.886C215.707 435.148 215.46 434.307 215.466 433.364C215.46 432.625 215.605 431.943 215.901 431.318C216.196 430.687 216.599 430.162 217.111 429.741C217.628 429.315 218.205 429.045 218.841 428.932V428.83C218.006 428.614 217.341 428.145 216.847 427.423C216.352 426.696 216.108 425.869 216.114 424.943C216.108 424.057 216.332 423.264 216.787 422.565C217.241 421.866 217.866 421.315 218.662 420.912C219.463 420.509 220.375 420.307 221.398 420.307C222.409 420.307 223.313 420.509 224.108 420.912C224.903 421.315 225.528 421.866 225.983 422.565C226.443 423.264 226.676 424.057 226.682 424.943C226.676 425.869 226.423 426.696 225.923 427.423C225.429 428.145 224.773 428.614 223.955 428.83V428.932C224.585 429.045 225.153 429.315 225.659 429.741C226.165 430.162 226.568 430.687 226.869 431.318C227.17 431.943 227.324 432.625 227.33 433.364C227.324 434.307 227.068 435.148 226.562 435.886C226.062 436.619 225.366 437.196 224.474 437.616C223.588 438.031 222.563 438.239 221.398 438.239ZM221.398 436.364C222.188 436.364 222.869 436.236 223.443 435.98C224.017 435.724 224.46 435.364 224.773 434.898C225.085 434.432 225.244 433.886 225.25 433.261C225.244 432.602 225.074 432.02 224.739 431.514C224.403 431.009 223.946 430.611 223.366 430.321C222.793 430.031 222.136 429.886 221.398 429.886C220.653 429.886 219.989 430.031 219.403 430.321C218.824 430.611 218.366 431.009 218.031 431.514C217.702 432.02 217.54 432.602 217.545 433.261C217.54 433.886 217.69 434.432 217.997 434.898C218.31 435.364 218.756 435.724 219.335 435.98C219.915 436.236 220.602 436.364 221.398 436.364ZM221.398 428.08C222.023 428.08 222.577 427.955 223.06 427.705C223.548 427.455 223.932 427.105 224.21 426.656C224.489 426.207 224.631 425.682 224.636 425.08C224.631 424.489 224.491 423.974 224.219 423.537C223.946 423.094 223.568 422.753 223.085 422.514C222.602 422.27 222.04 422.148 221.398 422.148C220.744 422.148 220.173 422.27 219.685 422.514C219.196 422.753 218.818 423.094 218.551 423.537C218.284 423.974 218.153 424.489 218.159 425.08C218.153 425.682 218.287 426.207 218.56 426.656C218.838 427.105 219.222 427.455 219.71 427.705C220.199 427.955 220.761 428.08 221.398 428.08Z" fill="black"/>
<path d="M270.352 438L278.159 422.557V422.42H269.159V420.545H280.341V422.523L272.568 438H270.352Z" fill="black"/>
<path d="M339.602 438.239C338.886 438.227 338.17 438.091 337.455 437.83C336.739 437.568 336.085 437.128 335.494 436.509C334.903 435.884 334.429 435.04 334.071 433.977C333.713 432.909 333.534 431.568 333.534 429.955C333.534 428.409 333.679 427.04 333.969 425.847C334.259 424.648 334.679 423.639 335.23 422.821C335.781 421.997 336.446 421.372 337.224 420.946C338.009 420.52 338.892 420.307 339.875 420.307C340.852 420.307 341.722 420.503 342.483 420.895C343.25 421.281 343.875 421.821 344.358 422.514C344.841 423.207 345.153 424.006 345.295 424.909H343.216C343.023 424.125 342.648 423.474 342.091 422.957C341.534 422.44 340.795 422.182 339.875 422.182C338.523 422.182 337.457 422.77 336.679 423.946C335.906 425.122 335.517 426.773 335.511 428.898H335.648C335.966 428.415 336.344 428.003 336.781 427.662C337.224 427.315 337.713 427.048 338.247 426.861C338.781 426.673 339.347 426.58 339.943 426.58C340.943 426.58 341.858 426.83 342.688 427.33C343.517 427.824 344.182 428.509 344.682 429.384C345.182 430.253 345.432 431.25 345.432 432.375C345.432 433.455 345.19 434.443 344.707 435.341C344.224 436.233 343.545 436.943 342.67 437.472C341.801 437.994 340.778 438.25 339.602 438.239ZM339.602 436.364C340.318 436.364 340.96 436.185 341.528 435.827C342.102 435.469 342.554 434.989 342.884 434.386C343.219 433.784 343.386 433.114 343.386 432.375C343.386 431.653 343.224 430.997 342.901 430.406C342.582 429.81 342.142 429.335 341.58 428.983C341.023 428.631 340.386 428.455 339.67 428.455C339.131 428.455 338.628 428.562 338.162 428.778C337.696 428.989 337.287 429.278 336.935 429.648C336.588 430.017 336.315 430.44 336.116 430.918C335.918 431.389 335.818 431.886 335.818 432.409C335.818 433.102 335.98 433.75 336.304 434.352C336.634 434.955 337.082 435.44 337.651 435.81C338.224 436.179 338.875 436.364 339.602 436.364Z" fill="black"/>
<path d="M402.261 438.239C401.261 438.239 400.361 438.04 399.56 437.642C398.759 437.244 398.116 436.699 397.634 436.006C397.151 435.312 396.886 434.523 396.841 433.636H398.886C398.966 434.426 399.324 435.08 399.96 435.597C400.602 436.108 401.369 436.364 402.261 436.364C402.977 436.364 403.614 436.196 404.17 435.861C404.733 435.526 405.173 435.065 405.491 434.48C405.815 433.889 405.977 433.222 405.977 432.477C405.977 431.716 405.81 431.037 405.474 430.44C405.145 429.838 404.69 429.364 404.111 429.017C403.531 428.67 402.869 428.494 402.125 428.489C401.591 428.483 401.043 428.565 400.48 428.736C399.918 428.901 399.455 429.114 399.091 429.375L397.114 429.136L398.17 420.545H407.239V422.42H399.943L399.33 427.568H399.432C399.79 427.284 400.239 427.048 400.778 426.861C401.318 426.673 401.881 426.58 402.466 426.58C403.534 426.58 404.486 426.835 405.321 427.347C406.162 427.852 406.821 428.545 407.298 429.426C407.781 430.307 408.023 431.312 408.023 432.443C408.023 433.557 407.773 434.551 407.273 435.426C406.778 436.295 406.097 436.983 405.227 437.489C404.358 437.989 403.369 438.239 402.261 438.239Z" fill="black"/>
<path d="M452.398 434.42V432.682L460.068 420.545H461.33V423.239H460.477L454.682 432.409V432.545H465.011V434.42H452.398ZM460.614 438V433.892V433.082V420.545H462.625V438H460.614Z" fill="black"/>
<path d="M519.705 438.239C518.58 438.239 517.577 438.045 516.696 437.659C515.821 437.273 515.125 436.736 514.608 436.048C514.097 435.355 513.818 434.551 513.773 433.636H515.92C515.966 434.199 516.159 434.685 516.5 435.094C516.841 435.497 517.287 435.81 517.838 436.031C518.389 436.253 519 436.364 519.67 436.364C520.42 436.364 521.085 436.233 521.665 435.972C522.244 435.71 522.699 435.347 523.028 434.881C523.358 434.415 523.523 433.875 523.523 433.261C523.523 432.619 523.364 432.054 523.045 431.565C522.727 431.071 522.261 430.685 521.648 430.406C521.034 430.128 520.284 429.989 519.398 429.989H518V428.114H519.398C520.091 428.114 520.699 427.989 521.222 427.739C521.75 427.489 522.162 427.136 522.457 426.682C522.759 426.227 522.909 425.693 522.909 425.08C522.909 424.489 522.778 423.974 522.517 423.537C522.256 423.099 521.886 422.759 521.409 422.514C520.938 422.27 520.381 422.148 519.739 422.148C519.136 422.148 518.568 422.259 518.034 422.48C517.506 422.696 517.074 423.011 516.739 423.426C516.403 423.835 516.222 424.33 516.193 424.909H514.148C514.182 423.994 514.457 423.193 514.974 422.506C515.491 421.812 516.168 421.273 517.003 420.886C517.844 420.5 518.767 420.307 519.773 420.307C520.852 420.307 521.778 420.526 522.551 420.963C523.324 421.395 523.918 421.966 524.332 422.676C524.747 423.386 524.955 424.153 524.955 424.977C524.955 425.96 524.696 426.798 524.179 427.491C523.668 428.185 522.972 428.665 522.091 428.932V429.068C523.193 429.25 524.054 429.719 524.673 430.474C525.293 431.224 525.602 432.153 525.602 433.261C525.602 434.21 525.344 435.062 524.827 435.818C524.315 436.568 523.616 437.159 522.73 437.591C521.844 438.023 520.835 438.239 519.705 438.239Z" fill="black"/>
<path d="M572.807 438V436.466L578.568 430.159C579.244 429.42 579.801 428.778 580.239 428.233C580.676 427.682 581 427.165 581.21 426.682C581.426 426.193 581.534 425.682 581.534 425.148C581.534 424.534 581.386 424.003 581.091 423.554C580.801 423.105 580.403 422.759 579.898 422.514C579.392 422.27 578.824 422.148 578.193 422.148C577.523 422.148 576.938 422.287 576.438 422.565C575.943 422.838 575.56 423.222 575.287 423.716C575.02 424.21 574.886 424.79 574.886 425.455H572.875C572.875 424.432 573.111 423.534 573.582 422.761C574.054 421.989 574.696 421.386 575.509 420.955C576.327 420.523 577.244 420.307 578.261 420.307C579.284 420.307 580.19 420.523 580.98 420.955C581.77 421.386 582.389 421.969 582.838 422.702C583.287 423.435 583.511 424.25 583.511 425.148C583.511 425.79 583.395 426.418 583.162 427.031C582.935 427.639 582.537 428.318 581.969 429.068C581.406 429.812 580.625 430.722 579.625 431.795L575.705 435.989V436.125H583.818V438H572.807Z" fill="black"/>
<path d="M634.943 420.545V438H632.83V422.761H632.727L628.466 425.591V423.443L632.83 420.545H634.943Z" fill="black"/>
<defs>
<filter id="filter0_d_0_1" x="66" y="56" width="602" height="68" filterUnits="userSpaceOnUse" color-interpolation-filters="sRGB">
<feFlood flood-opacity="0" result="BackgroundImageFix"/>
<feColorMatrix in="SourceAlpha" type="matrix" values="0 0 0 0 0 0 0 0 0 0 0 0 0 0 0 0 0 0 127 0" result="hardAlpha"/>
<feOffset dy="4"/>
<feGaussianBlur stdDeviation="2"/>
<feComposite in2="hardAlpha" operator="out"/>
<feColorMatrix type="matrix" values="0 0 0 0 0 0 0 0 0 0 0 0 0 0 0 0 0 0 0.25 0"/>
<feBlend mode="normal" in2="BackgroundImageFix" result="effect1_dropShadow_0_1"/>
<feBlend mode="normal" in="SourceGraphic" in2="effect1_dropShadow_0_1" result="shape"/>
</filter>
<filter id="filter1_d_0_1" x="69" y="226" width="599" height="68" filterUnits="userSpaceOnUse" color-interpolation-filters="sRGB">
<feFlood flood-opacity="0" result="BackgroundImageFix"/>
<feColorMatrix in="SourceAlpha" type="matrix" values="0 0 0 0 0 0 0 0 0 0 0 0 0 0 0 0 0 0 127 0" result="hardAlpha"/>
<feOffset dy="4"/>
<feGaussianBlur stdDeviation="2"/>
<feComposite in2="hardAlpha" operator="out"/>
<feColorMatrix type="matrix" values="0 0 0 0 0 0 0 0 0 0 0 0 0 0 0 0 0 0 0.25 0"/>
<feBlend mode="normal" in2="BackgroundImageFix" result="effect1_dropShadow_0_1"/>
<feBlend mode="normal" in="SourceGraphic" in2="effect1_dropShadow_0_1" result="shape"/>
</filter>
<filter id="filter2_d_0_1" x="68" y="400" width="600" height="68" filterUnits="userSpaceOnUse" color-interpolation-filters="sRGB">
<feFlood flood-opacity="0" result="BackgroundImageFix"/>
<feColorMatrix in="SourceAlpha" type="matrix" values="0 0 0 0 0 0 0 0 0 0 0 0 0 0 0 0 0 0 127 0" result="hardAlpha"/>
<feOffset dy="4"/>
<feGaussianBlur stdDeviation="2"/>
<feComposite in2="hardAlpha" operator="out"/>
<feColorMatrix type="matrix" values="0 0 0 0 0 0 0 0 0 0 0 0 0 0 0 0 0 0 0.25 0"/>
<feBlend mode="normal" in2="BackgroundImageFix" result="effect1_dropShadow_0_1"/>
<feBlend mode="normal" in="SourceGraphic" in2="effect1_dropShadow_0_1" result="shape"/>
</filter>
</defs>
</svg>
