<svg width="716" height="385" viewBox="0 0 716 385" fill="none" xmlns="http://www.w3.org/2000/svg">
<circle cx="162" cy="213" r="30" fill="#0970FF"/>
<circle cx="283" cy="213" r="30" fill="#0970FF"/>
<circle cx="406" cy="336" r="30" fill="#0970FF"/>
<circle cx="283" cy="336" r="30" fill="#0970FF"/>
<circle cx="406" cy="100" r="30" fill="#0970FF"/>
<circle cx="283" cy="100" r="30" fill="#0970FF"/>
<circle cx="404" cy="213" r="30" fill="#0970FF"/>
<circle cx="529" cy="336" r="30" fill="#FF1109"/>
<line x1="192" y1="210.5" x2="253" y2="210.5" stroke="#9B9B9B" stroke-width="5"/>
<line x1="182.977" y1="234.47" x2="254.977" y2="327.47" stroke="#9B9B9B" stroke-width="5"/>
<line x1="179.155" y1="188.313" x2="254.155" y2="106.313" stroke="#9B9B9B" stroke-width="5"/>
<line x1="314" y1="97.5" x2="375" y2="97.5" stroke="#9B9B9B" stroke-width="5"/>
<line x1="494.5" y1="100" x2="494.5" y2="6" stroke="#01490D" stroke-width="5"/>
<line x1="436" y1="97.5" x2="497" y2="97.5" stroke="#01490D" stroke-width="5"/>
<line x1="162" y1="3.5" x2="497" y2="3.5" stroke="#01490D" stroke-width="5"/>
<line x1="436" y1="333.5" x2="497" y2="333.5" stroke="#9B9B9B" stroke-width="5"/>
<line x1="313" y1="333.5" x2="374" y2="333.5" stroke="#9B9B9B" stroke-width="5"/>
<line x1="314" y1="210.5" x2="375" y2="210.5" stroke="#9B9B9B" stroke-width="5"/>
<path d="M161.264 157.779C162.246 158.749 163.829 158.739 164.799 157.756L180.604 141.742C181.574 140.759 181.563 139.176 180.581 138.206C179.598 137.236 178.015 137.247 177.045 138.23L162.996 152.464L148.762 138.416C147.779 137.446 146.196 137.456 145.226 138.439C144.256 139.422 144.267 141.004 145.249 141.974L161.264 157.779ZM159.5 1.01645L160.52 156.016L165.52 155.983L164.5 0.983553L159.5 1.01645Z" fill="#01490D"/>
<path d="M598.779 209.756C599.749 208.773 599.739 207.191 598.756 206.221L582.742 190.416C581.759 189.446 580.176 189.456 579.206 190.439C578.237 191.422 578.247 193.005 579.23 193.974L593.465 208.023L579.416 222.258C578.446 223.241 578.456 224.824 579.439 225.794C580.422 226.763 582.005 226.753 582.974 225.77L598.779 209.756ZM445.016 211.5L597.016 210.5L596.984 205.5L444.984 206.5L445.016 211.5Z" fill="#01490D"/>
<path d="M319.232 364.232C318.256 365.209 318.256 366.791 319.232 367.768L335.142 383.678C336.118 384.654 337.701 384.654 338.678 383.678C339.654 382.701 339.654 381.118 338.678 380.142L324.536 366L338.678 351.858C339.654 350.882 339.654 349.299 338.678 348.322C337.701 347.346 336.118 347.346 335.142 348.322L319.232 364.232ZM363 363.5L321 363.5L321 368.5L363 368.5L363 363.5Z" fill="#9B9B9B"/>
<path d="M166.33 265.522C164.962 265.339 163.704 266.301 163.522 267.67L160.548 289.972C160.366 291.341 161.327 292.598 162.696 292.781C164.065 292.963 165.322 292.002 165.504 290.633L168.148 270.808L187.972 273.452C189.341 273.634 190.598 272.673 190.781 271.304C190.963 269.935 190.002 268.678 188.633 268.496L166.33 265.522ZM219.986 334.481L167.986 266.481L164.014 269.519L216.014 337.519L219.986 334.481Z" fill="#9B9B9B"/>
<path d="M120.814 213.721C121.764 212.719 121.722 211.137 120.721 210.186L104.398 194.7C103.396 193.75 101.814 193.792 100.863 194.794C99.9131 195.795 99.9547 197.378 100.956 198.328L115.466 212.093L101.7 226.602C100.75 227.604 100.792 229.186 101.794 230.137C102.795 231.087 104.378 231.045 105.328 230.044L120.814 213.721ZM81.0658 215.499L119.066 214.499L118.934 209.501L80.9342 210.501L81.0658 215.499Z" fill="#9B9B9B"/>
<path d="M444.232 364.232C443.256 365.209 443.256 366.791 444.232 367.768L460.142 383.678C461.118 384.654 462.701 384.654 463.678 383.678C464.654 382.701 464.654 381.118 463.678 380.142L449.536 366L463.678 351.858C464.654 350.882 464.654 349.299 463.678 348.322C462.701 347.346 461.118 347.346 460.142 348.322L444.232 364.232ZM488 363.5L446 363.5L446 368.5L488 368.5L488 363.5Z" fill="#9B9B9B"/>
<path d="M20.0941 211.303L15.9393 211.558C15.8683 211.203 15.7156 210.884 15.4812 210.599C15.2468 210.308 14.9379 210.077 14.5543 209.907C14.1779 209.729 13.7269 209.641 13.2013 209.641C12.4982 209.641 11.9052 209.79 11.4222 210.088C10.9393 210.379 10.6978 210.77 10.6978 211.26C10.6978 211.651 10.854 211.981 11.1665 212.251C11.479 212.521 12.0153 212.737 12.7752 212.901L15.7369 213.497C17.3278 213.824 18.5138 214.349 19.2951 215.074C20.0764 215.798 20.467 216.75 20.467 217.929C20.467 219.001 20.1509 219.942 19.5188 220.752C18.8938 221.562 18.0344 222.194 16.9407 222.648C15.854 223.096 14.6005 223.32 13.18 223.32C11.0138 223.32 9.288 222.869 8.00249 221.967C6.72408 221.058 5.97479 219.822 5.75462 218.259L10.2184 218.025C10.3533 218.685 10.68 219.19 11.1985 219.538C11.717 219.879 12.381 220.049 13.1907 220.049C13.9862 220.049 14.6254 219.896 15.1083 219.591C15.5984 219.278 15.8469 218.877 15.854 218.387C15.8469 217.975 15.6729 217.638 15.332 217.375C14.9911 217.105 14.4656 216.899 13.7553 216.757L10.9215 216.192C9.32351 215.873 8.13388 215.319 7.35263 214.531C6.57848 213.742 6.19141 212.737 6.19141 211.516C6.19141 210.464 6.4755 209.559 7.04368 208.799C7.61896 208.039 8.42507 207.453 9.462 207.041C10.506 206.629 11.7276 206.423 13.1268 206.423C15.1935 206.423 16.82 206.86 18.006 207.734C19.1992 208.607 19.8952 209.797 20.0941 211.303ZM32.0286 206.636V210.045H22.1742V206.636H32.0286ZM24.4114 202.716H28.9498V217.972C28.9498 218.391 29.0137 218.717 29.1415 218.952C29.2694 219.179 29.4469 219.339 29.6742 219.431C29.9086 219.523 30.1784 219.57 30.4838 219.57C30.6969 219.57 30.91 219.552 31.123 219.516C31.3361 219.474 31.4995 219.442 31.6131 219.42L32.3269 222.798C32.0996 222.869 31.78 222.95 31.3681 223.043C30.9561 223.142 30.4554 223.202 29.8659 223.224C28.7722 223.266 27.8134 223.121 26.9895 222.787C26.1728 222.453 25.5371 221.935 25.0826 221.232C24.628 220.528 24.4043 219.641 24.4114 218.568V202.716ZM39.6511 223.309C38.6071 223.309 37.6767 223.128 36.8599 222.766C36.0431 222.396 35.3968 221.853 34.921 221.136C34.4522 220.411 34.2179 219.509 34.2179 218.43C34.2179 217.521 34.3848 216.757 34.7186 216.139C35.0524 215.521 35.5069 215.024 36.0822 214.648C36.6575 214.271 37.3109 213.987 38.0424 213.795C38.7811 213.604 39.5552 213.469 40.3649 213.391C41.3166 213.291 42.0836 213.199 42.666 213.114C43.2484 213.021 43.671 212.886 43.9338 212.709C44.1966 212.531 44.3279 212.268 44.3279 211.92V211.857C44.3279 211.182 44.1149 210.66 43.6887 210.29C43.2697 209.921 42.6731 209.737 41.899 209.737C41.0822 209.737 40.4324 209.918 39.9494 210.28C39.4664 210.635 39.1468 211.082 38.9906 211.622L34.7931 211.281C35.0062 210.287 35.4252 209.428 36.0502 208.703C36.6752 207.972 37.4814 207.411 38.4686 207.02C39.4629 206.622 40.6135 206.423 41.9203 206.423C42.8294 206.423 43.6994 206.53 44.5304 206.743C45.3684 206.956 46.1106 207.286 46.7569 207.734C47.4103 208.181 47.9252 208.756 48.3017 209.46C48.6781 210.156 48.8663 210.99 48.8663 211.963V223H44.5623V220.731H44.4345C44.1717 221.242 43.8201 221.693 43.3798 222.084C42.9395 222.467 42.4103 222.769 41.7924 222.989C41.1745 223.202 40.4608 223.309 39.6511 223.309ZM40.9508 220.177C41.6184 220.177 42.2079 220.045 42.7193 219.783C43.2306 219.513 43.6319 219.151 43.9231 218.696C44.2143 218.241 44.3599 217.727 44.3599 217.151V215.415C44.2179 215.507 44.0226 215.592 43.774 215.67C43.5325 215.741 43.2591 215.809 42.9537 215.873C42.6483 215.93 42.3429 215.983 42.0375 216.033C41.7321 216.075 41.4551 216.114 41.2065 216.15C40.6738 216.228 40.2086 216.352 39.8109 216.523C39.4132 216.693 39.1042 216.924 38.8841 217.215C38.6639 217.499 38.5538 217.854 38.5538 218.281C38.5538 218.898 38.7775 219.371 39.225 219.697C39.6795 220.017 40.2548 220.177 40.9508 220.177ZM52.3873 223V206.636H56.7871V209.491H56.9576C57.2559 208.476 57.7566 207.709 58.4597 207.19C59.1628 206.665 59.9725 206.402 60.8887 206.402C61.1159 206.402 61.361 206.416 61.6238 206.445C61.8865 206.473 62.1174 206.512 62.3162 206.562V210.589C62.1032 210.525 61.8084 210.468 61.432 210.418C61.0556 210.369 60.7111 210.344 60.3986 210.344C59.731 210.344 59.1344 210.489 58.6088 210.781C58.0904 211.065 57.6784 211.462 57.373 211.974C57.0748 212.485 56.9256 213.075 56.9256 213.742V223H52.3873ZM74.1868 206.636V210.045H64.3324V206.636H74.1868ZM66.5696 202.716H71.108V217.972C71.108 218.391 71.1719 218.717 71.2997 218.952C71.4276 219.179 71.6051 219.339 71.8324 219.431C72.0668 219.523 72.3366 219.57 72.642 219.57C72.8551 219.57 73.0682 219.552 73.2812 219.516C73.4943 219.474 73.6577 219.442 73.7713 219.42L74.4851 222.798C74.2578 222.869 73.9382 222.95 73.5263 223.043C73.1143 223.142 72.6136 223.202 72.0241 223.224C70.9304 223.266 69.9716 223.121 69.1477 222.787C68.331 222.453 67.6953 221.935 67.2408 221.232C66.7862 220.528 66.5625 219.641 66.5696 218.568V202.716Z" fill="black"/>
<path d="M517.284 96.2017L514.514 96.3722C514.467 96.1354 514.365 95.9223 514.209 95.733C514.053 95.5388 513.847 95.3849 513.591 95.2713C513.34 95.1529 513.039 95.0938 512.689 95.0938C512.22 95.0938 511.825 95.1932 511.503 95.392C511.181 95.5862 511.02 95.8466 511.02 96.1733C511.02 96.4337 511.124 96.6539 511.332 96.8338C511.541 97.0137 511.898 97.1581 512.405 97.267L514.379 97.6648C515.44 97.8826 516.231 98.233 516.751 98.7159C517.272 99.1989 517.533 99.8333 517.533 100.619C517.533 101.334 517.322 101.962 516.901 102.501C516.484 103.041 515.911 103.463 515.182 103.766C514.457 104.064 513.622 104.213 512.675 104.213C511.231 104.213 510.08 103.912 509.223 103.311C508.371 102.705 507.871 101.881 507.724 100.839L510.7 100.683C510.79 101.124 511.008 101.46 511.354 101.692C511.699 101.919 512.142 102.033 512.682 102.033C513.212 102.033 513.638 101.931 513.96 101.727C514.287 101.519 514.453 101.251 514.457 100.925C514.453 100.65 514.337 100.425 514.109 100.25C513.882 100.07 513.532 99.9328 513.058 99.8381L511.169 99.4616C510.104 99.2486 509.311 98.8793 508.79 98.3537C508.274 97.8281 508.016 97.1581 508.016 96.3438C508.016 95.643 508.205 95.0393 508.584 94.5327C508.967 94.026 509.505 93.6354 510.196 93.3608C510.892 93.0862 511.706 92.9489 512.639 92.9489C514.017 92.9489 515.101 93.2401 515.892 93.8224C516.688 94.4048 517.152 95.1979 517.284 96.2017ZM524.367 104.213C523.264 104.213 522.31 103.979 521.505 103.51C520.704 103.036 520.087 102.378 519.651 101.536C519.215 100.688 518.998 99.7055 518.998 98.5881C518.998 97.4612 519.215 96.4763 519.651 95.6335C520.087 94.786 520.704 94.1278 521.505 93.6591C522.31 93.1856 523.264 92.9489 524.367 92.9489C525.47 92.9489 526.422 93.1856 527.222 93.6591C528.027 94.1278 528.647 94.786 529.083 95.6335C529.518 96.4763 529.736 97.4612 529.736 98.5881C529.736 99.7055 529.518 100.688 529.083 101.536C528.647 102.378 528.027 103.036 527.222 103.51C526.422 103.979 525.47 104.213 524.367 104.213ZM524.381 101.869C524.883 101.869 525.302 101.727 525.638 101.443C525.974 101.154 526.228 100.761 526.398 100.264C526.573 99.767 526.661 99.2012 526.661 98.5668C526.661 97.9323 526.573 97.3665 526.398 96.8693C526.228 96.3722 525.974 95.9792 525.638 95.6903C525.302 95.4015 524.883 95.2571 524.381 95.2571C523.874 95.2571 523.448 95.4015 523.103 95.6903C522.762 95.9792 522.504 96.3722 522.328 96.8693C522.158 97.3665 522.073 97.9323 522.073 98.5668C522.073 99.2012 522.158 99.767 522.328 100.264C522.504 100.761 522.762 101.154 523.103 101.443C523.448 101.727 523.874 101.869 524.381 101.869ZM534.729 89.4545V104H531.703V89.4545H534.729ZM544.148 99.3551V93.0909H547.174V104H544.269V102.018H544.156C543.909 102.658 543.5 103.171 542.927 103.56C542.359 103.948 541.665 104.142 540.846 104.142C540.117 104.142 539.475 103.976 538.921 103.645C538.367 103.313 537.934 102.842 537.621 102.232C537.314 101.621 537.157 100.889 537.153 100.037V93.0909H540.178V99.4972C540.183 100.141 540.356 100.65 540.697 101.024C541.038 101.398 541.495 101.585 542.067 101.585C542.432 101.585 542.773 101.502 543.09 101.337C543.407 101.166 543.663 100.915 543.857 100.584C544.056 100.252 544.153 99.8428 544.148 99.3551ZM555.397 93.0909V95.3636H548.827V93.0909H555.397ZM550.319 90.4773H553.344V100.648C553.344 100.927 553.387 101.145 553.472 101.301C553.557 101.453 553.676 101.559 553.827 101.621C553.983 101.682 554.163 101.713 554.367 101.713C554.509 101.713 554.651 101.701 554.793 101.678C554.935 101.649 555.044 101.628 555.12 101.614L555.596 103.865C555.444 103.912 555.231 103.967 554.956 104.028C554.682 104.095 554.348 104.135 553.955 104.149C553.226 104.178 552.587 104.08 552.037 103.858C551.493 103.635 551.069 103.29 550.766 102.821C550.463 102.352 550.314 101.76 550.319 101.045V90.4773ZM557.368 104V93.0909H560.393V104H557.368ZM558.887 91.6847C558.438 91.6847 558.052 91.5355 557.73 91.2372C557.413 90.9342 557.254 90.572 557.254 90.1506C557.254 89.7339 557.413 89.3764 557.73 89.0781C558.052 88.7751 558.438 88.6236 558.887 88.6236C559.337 88.6236 559.721 88.7751 560.038 89.0781C560.36 89.3764 560.521 89.7339 560.521 90.1506C560.521 90.572 560.36 90.9342 560.038 91.2372C559.721 91.5355 559.337 91.6847 558.887 91.6847ZM567.746 104.213C566.643 104.213 565.688 103.979 564.884 103.51C564.083 103.036 563.465 102.378 563.03 101.536C562.594 100.688 562.376 99.7055 562.376 98.5881C562.376 97.4612 562.594 96.4763 563.03 95.6335C563.465 94.786 564.083 94.1278 564.884 93.6591C565.688 93.1856 566.643 92.9489 567.746 92.9489C568.849 92.9489 569.801 93.1856 570.601 93.6591C571.406 94.1278 572.026 94.786 572.462 95.6335C572.897 96.4763 573.115 97.4612 573.115 98.5881C573.115 99.7055 572.897 100.688 572.462 101.536C572.026 102.378 571.406 103.036 570.601 103.51C569.801 103.979 568.849 104.213 567.746 104.213ZM567.76 101.869C568.262 101.869 568.681 101.727 569.017 101.443C569.353 101.154 569.607 100.761 569.777 100.264C569.952 99.767 570.04 99.2012 570.04 98.5668C570.04 97.9323 569.952 97.3665 569.777 96.8693C569.607 96.3722 569.353 95.9792 569.017 95.6903C568.681 95.4015 568.262 95.2571 567.76 95.2571C567.253 95.2571 566.827 95.4015 566.482 95.6903C566.141 95.9792 565.883 96.3722 565.707 96.8693C565.537 97.3665 565.452 97.9323 565.452 98.5668C565.452 99.2012 565.537 99.767 565.707 100.264C565.883 100.761 566.141 101.154 566.482 101.443C566.827 101.727 567.253 101.869 567.76 101.869ZM578.108 97.6932V104H575.082V93.0909H577.966V95.0156H578.094C578.335 94.3812 578.74 93.8793 579.308 93.5099C579.876 93.1359 580.565 92.9489 581.375 92.9489C582.133 92.9489 582.793 93.1146 583.357 93.446C583.92 93.7775 584.358 94.2509 584.67 94.8665C584.983 95.4773 585.139 96.2064 585.139 97.054V104H582.114V97.5938C582.118 96.9261 581.948 96.4053 581.602 96.0312C581.257 95.6525 580.781 95.4631 580.175 95.4631C579.768 95.4631 579.408 95.5507 579.095 95.7259C578.787 95.901 578.546 96.1567 578.371 96.4929C578.2 96.8243 578.113 97.2244 578.108 97.6932Z" fill="#01490D"/>
<path d="M617.268 217.32C615.585 217.32 614.136 216.979 612.922 216.297C611.714 215.608 610.784 214.635 610.131 213.378C609.477 212.114 609.151 210.619 609.151 208.893C609.151 207.21 609.477 205.732 610.131 204.461C610.784 203.19 611.704 202.199 612.89 201.489C614.083 200.778 615.482 200.423 617.087 200.423C618.167 200.423 619.172 200.597 620.102 200.945C621.04 201.286 621.857 201.801 622.553 202.49C623.256 203.179 623.803 204.045 624.193 205.089C624.584 206.126 624.779 207.341 624.779 208.733V209.979H610.962V207.167H620.507C620.507 206.513 620.365 205.935 620.081 205.43C619.797 204.926 619.403 204.532 618.898 204.248C618.401 203.957 617.822 203.811 617.162 203.811C616.473 203.811 615.862 203.971 615.33 204.29C614.804 204.603 614.392 205.026 614.094 205.558C613.795 206.084 613.643 206.67 613.636 207.316V209.99C613.636 210.8 613.785 211.499 614.083 212.089C614.388 212.678 614.818 213.133 615.372 213.452C615.926 213.772 616.583 213.932 617.343 213.932C617.847 213.932 618.309 213.861 618.728 213.719C619.147 213.577 619.506 213.364 619.804 213.08C620.102 212.795 620.33 212.447 620.486 212.036L624.683 212.312C624.47 213.321 624.033 214.202 623.373 214.955C622.719 215.7 621.874 216.283 620.837 216.702C619.808 217.114 618.618 217.32 617.268 217.32ZM632.279 207.54V217H627.741V200.636H632.066V203.523H632.258C632.62 202.572 633.227 201.819 634.08 201.265C634.932 200.704 635.965 200.423 637.18 200.423C638.316 200.423 639.307 200.672 640.152 201.169C640.997 201.666 641.654 202.376 642.123 203.3C642.592 204.216 642.826 205.31 642.826 206.581V217H638.288V207.391C638.295 206.389 638.039 205.608 637.521 205.047C637.002 204.479 636.288 204.195 635.379 204.195C634.768 204.195 634.229 204.326 633.76 204.589C633.298 204.852 632.936 205.235 632.673 205.739C632.418 206.237 632.286 206.837 632.279 207.54ZM652.433 217.266C651.19 217.266 650.064 216.947 649.056 216.308C648.054 215.661 647.259 214.713 646.669 213.463C646.087 212.206 645.796 210.665 645.796 208.839C645.796 206.964 646.097 205.406 646.701 204.163C647.305 202.913 648.107 201.979 649.109 201.361C650.117 200.736 651.222 200.423 652.422 200.423C653.338 200.423 654.102 200.58 654.713 200.892C655.33 201.197 655.828 201.581 656.204 202.043C656.588 202.497 656.879 202.945 657.078 203.385H657.216V195.182H661.744V217H657.269V214.379H657.078C656.865 214.834 656.563 215.285 656.172 215.732C655.789 216.173 655.288 216.538 654.67 216.83C654.059 217.121 653.313 217.266 652.433 217.266ZM653.871 213.655C654.602 213.655 655.22 213.456 655.725 213.058C656.236 212.653 656.627 212.089 656.896 211.364C657.173 210.64 657.312 209.791 657.312 208.818C657.312 207.845 657.177 207 656.907 206.283C656.637 205.565 656.247 205.011 655.735 204.621C655.224 204.23 654.602 204.035 653.871 204.035C653.125 204.035 652.497 204.237 651.985 204.642C651.474 205.047 651.087 205.608 650.824 206.325C650.561 207.043 650.43 207.874 650.43 208.818C650.43 209.77 650.561 210.612 650.824 211.343C651.094 212.067 651.481 212.636 651.985 213.048C652.497 213.452 653.125 213.655 653.871 213.655Z" fill="black"/>
<path d="M583.233 336.693V343H580.207V332.091H583.091V334.016H583.219C583.46 333.381 583.865 332.879 584.433 332.51C585.001 332.136 585.69 331.949 586.5 331.949C587.258 331.949 587.918 332.115 588.482 332.446C589.045 332.777 589.483 333.251 589.795 333.866C590.108 334.477 590.264 335.206 590.264 336.054V343H587.239V336.594C587.243 335.926 587.073 335.405 586.727 335.031C586.382 334.652 585.906 334.463 585.3 334.463C584.893 334.463 584.533 334.551 584.22 334.726C583.912 334.901 583.671 335.157 583.496 335.493C583.325 335.824 583.238 336.224 583.233 336.693ZM597.578 343.213C596.475 343.213 595.52 342.979 594.716 342.51C593.915 342.036 593.297 341.378 592.862 340.536C592.426 339.688 592.208 338.705 592.208 337.588C592.208 336.461 592.426 335.476 592.862 334.634C593.297 333.786 593.915 333.128 594.716 332.659C595.52 332.186 596.475 331.949 597.578 331.949C598.681 331.949 599.633 332.186 600.433 332.659C601.238 333.128 601.858 333.786 602.294 334.634C602.729 335.476 602.947 336.461 602.947 337.588C602.947 338.705 602.729 339.688 602.294 340.536C601.858 341.378 601.238 342.036 600.433 342.51C599.633 342.979 598.681 343.213 597.578 343.213ZM597.592 340.869C598.094 340.869 598.513 340.727 598.849 340.443C599.185 340.154 599.439 339.761 599.609 339.264C599.784 338.767 599.872 338.201 599.872 337.567C599.872 336.932 599.784 336.366 599.609 335.869C599.439 335.372 599.185 334.979 598.849 334.69C598.513 334.402 598.094 334.257 597.592 334.257C597.085 334.257 596.659 334.402 596.314 334.69C595.973 334.979 595.715 335.372 595.539 335.869C595.369 336.366 595.284 336.932 595.284 337.567C595.284 338.201 595.369 338.767 595.539 339.264C595.715 339.761 595.973 340.154 596.314 340.443C596.659 340.727 597.085 340.869 597.592 340.869ZM610.717 332.091V334.364H604.147V332.091H610.717ZM605.639 329.477H608.664V339.648C608.664 339.927 608.707 340.145 608.792 340.301C608.877 340.453 608.996 340.559 609.147 340.621C609.304 340.682 609.484 340.713 609.687 340.713C609.829 340.713 609.971 340.701 610.113 340.678C610.255 340.649 610.364 340.628 610.44 340.614L610.916 342.865C610.764 342.912 610.551 342.967 610.277 343.028C610.002 343.095 609.668 343.135 609.275 343.149C608.546 343.178 607.907 343.08 607.358 342.858C606.813 342.635 606.389 342.29 606.086 341.821C605.783 341.352 605.634 340.76 605.639 340.045V329.477ZM620.428 343.206C619.732 343.206 619.111 343.085 618.567 342.844C618.022 342.598 617.591 342.235 617.274 341.757C616.962 341.274 616.805 340.673 616.805 339.953C616.805 339.347 616.917 338.838 617.139 338.426C617.362 338.014 617.665 337.683 618.048 337.432C618.432 337.181 618.867 336.991 619.355 336.864C619.848 336.736 620.364 336.646 620.903 336.594C621.538 336.527 622.049 336.466 622.438 336.409C622.826 336.348 623.107 336.258 623.283 336.139C623.458 336.021 623.545 335.846 623.545 335.614V335.571C623.545 335.121 623.403 334.773 623.119 334.527C622.84 334.281 622.442 334.158 621.926 334.158C621.382 334.158 620.948 334.278 620.626 334.52C620.304 334.757 620.091 335.055 619.987 335.415L617.189 335.188C617.331 334.525 617.61 333.952 618.027 333.469C618.444 332.981 618.981 332.607 619.639 332.347C620.302 332.081 621.069 331.949 621.94 331.949C622.546 331.949 623.126 332.02 623.68 332.162C624.239 332.304 624.734 332.524 625.165 332.822C625.6 333.121 625.944 333.504 626.195 333.973C626.446 334.437 626.571 334.993 626.571 335.642V343H623.702V341.487H623.616C623.441 341.828 623.207 342.129 622.913 342.389C622.62 342.645 622.267 342.846 621.855 342.993C621.443 343.135 620.967 343.206 620.428 343.206ZM621.294 341.118C621.739 341.118 622.132 341.03 622.473 340.855C622.814 340.675 623.081 340.434 623.276 340.131C623.47 339.828 623.567 339.484 623.567 339.101V337.943C623.472 338.005 623.342 338.062 623.176 338.114C623.015 338.161 622.833 338.206 622.629 338.249C622.426 338.286 622.222 338.322 622.018 338.355C621.815 338.384 621.63 338.41 621.464 338.433C621.109 338.485 620.799 338.568 620.534 338.682C620.269 338.795 620.063 338.949 619.916 339.143C619.769 339.333 619.696 339.57 619.696 339.854C619.696 340.266 619.845 340.58 620.143 340.798C620.446 341.011 620.83 341.118 621.294 341.118ZM642.624 335.202L639.854 335.372C639.807 335.135 639.705 334.922 639.549 334.733C639.392 334.539 639.186 334.385 638.931 334.271C638.68 334.153 638.379 334.094 638.029 334.094C637.56 334.094 637.165 334.193 636.843 334.392C636.521 334.586 636.36 334.847 636.36 335.173C636.36 335.434 636.464 335.654 636.672 335.834C636.881 336.014 637.238 336.158 637.745 336.267L639.719 336.665C640.78 336.883 641.57 337.233 642.091 337.716C642.612 338.199 642.873 338.833 642.873 339.619C642.873 340.334 642.662 340.962 642.24 341.501C641.824 342.041 641.251 342.463 640.522 342.766C639.797 343.064 638.962 343.213 638.015 343.213C636.57 343.213 635.42 342.912 634.563 342.311C633.711 341.705 633.211 340.881 633.064 339.839L636.04 339.683C636.13 340.124 636.348 340.46 636.694 340.692C637.039 340.919 637.482 341.033 638.022 341.033C638.552 341.033 638.978 340.931 639.3 340.727C639.627 340.519 639.792 340.251 639.797 339.925C639.792 339.65 639.676 339.425 639.449 339.25C639.222 339.07 638.872 338.933 638.398 338.838L636.509 338.462C635.444 338.249 634.65 337.879 634.13 337.354C633.614 336.828 633.355 336.158 633.355 335.344C633.355 334.643 633.545 334.039 633.924 333.533C634.307 333.026 634.845 332.635 635.536 332.361C636.232 332.086 637.046 331.949 637.979 331.949C639.357 331.949 640.441 332.24 641.232 332.822C642.027 333.405 642.491 334.198 642.624 335.202ZM649.707 343.213C648.603 343.213 647.649 342.979 646.844 342.51C646.044 342.036 645.426 341.378 644.991 340.536C644.555 339.688 644.337 338.705 644.337 337.588C644.337 336.461 644.555 335.476 644.991 334.634C645.426 333.786 646.044 333.128 646.844 332.659C647.649 332.186 648.603 331.949 649.707 331.949C650.81 331.949 651.762 332.186 652.562 332.659C653.367 333.128 653.987 333.786 654.423 334.634C654.858 335.476 655.076 336.461 655.076 337.588C655.076 338.705 654.858 339.688 654.423 340.536C653.987 341.378 653.367 342.036 652.562 342.51C651.762 342.979 650.81 343.213 649.707 343.213ZM649.721 340.869C650.223 340.869 650.642 340.727 650.978 340.443C651.314 340.154 651.567 339.761 651.738 339.264C651.913 338.767 652.001 338.201 652.001 337.567C652.001 336.932 651.913 336.366 651.738 335.869C651.567 335.372 651.314 334.979 650.978 334.69C650.642 334.402 650.223 334.257 649.721 334.257C649.214 334.257 648.788 334.402 648.442 334.69C648.102 334.979 647.844 335.372 647.668 335.869C647.498 336.366 647.413 336.932 647.413 337.567C647.413 338.201 647.498 338.767 647.668 339.264C647.844 339.761 648.102 340.154 648.442 340.443C648.788 340.727 649.214 340.869 649.721 340.869ZM660.069 328.455V343H657.043V328.455H660.069ZM669.488 338.355V332.091H672.514V343H669.609V341.018H669.495C669.249 341.658 668.84 342.171 668.267 342.56C667.699 342.948 667.005 343.142 666.186 343.142C665.457 343.142 664.815 342.976 664.261 342.645C663.707 342.313 663.274 341.842 662.961 341.232C662.654 340.621 662.497 339.889 662.493 339.037V332.091H665.518V338.497C665.523 339.141 665.696 339.65 666.037 340.024C666.377 340.398 666.834 340.585 667.407 340.585C667.772 340.585 668.113 340.502 668.43 340.337C668.747 340.166 669.003 339.915 669.197 339.584C669.396 339.252 669.493 338.843 669.488 338.355ZM680.737 332.091V334.364H674.167V332.091H680.737ZM675.658 329.477H678.684V339.648C678.684 339.927 678.727 340.145 678.812 340.301C678.897 340.453 679.015 340.559 679.167 340.621C679.323 340.682 679.503 340.713 679.707 340.713C679.849 340.713 679.991 340.701 680.133 340.678C680.275 340.649 680.384 340.628 680.46 340.614L680.935 342.865C680.784 342.912 680.571 342.967 680.296 343.028C680.022 343.095 679.688 343.135 679.295 343.149C678.566 343.178 677.926 343.08 677.377 342.858C676.833 342.635 676.409 342.29 676.106 341.821C675.803 341.352 675.654 340.76 675.658 340.045V329.477ZM682.707 343V332.091H685.733V343H682.707ZM684.227 330.685C683.777 330.685 683.392 330.536 683.07 330.237C682.752 329.934 682.594 329.572 682.594 329.151C682.594 328.734 682.752 328.376 683.07 328.078C683.392 327.775 683.777 327.624 684.227 327.624C684.677 327.624 685.061 327.775 685.378 328.078C685.7 328.376 685.861 328.734 685.861 329.151C685.861 329.572 685.7 329.934 685.378 330.237C685.061 330.536 684.677 330.685 684.227 330.685ZM693.086 343.213C691.982 343.213 691.028 342.979 690.223 342.51C689.423 342.036 688.805 341.378 688.37 340.536C687.934 339.688 687.716 338.705 687.716 337.588C687.716 336.461 687.934 335.476 688.37 334.634C688.805 333.786 689.423 333.128 690.223 332.659C691.028 332.186 691.982 331.949 693.086 331.949C694.189 331.949 695.141 332.186 695.941 332.659C696.746 333.128 697.366 333.786 697.801 334.634C698.237 335.476 698.455 336.461 698.455 337.588C698.455 338.705 698.237 339.688 697.801 340.536C697.366 341.378 696.746 342.036 695.941 342.51C695.141 342.979 694.189 343.213 693.086 343.213ZM693.1 340.869C693.602 340.869 694.021 340.727 694.357 340.443C694.693 340.154 694.946 339.761 695.117 339.264C695.292 338.767 695.38 338.201 695.38 337.567C695.38 336.932 695.292 336.366 695.117 335.869C694.946 335.372 694.693 334.979 694.357 334.69C694.021 334.402 693.602 334.257 693.1 334.257C692.593 334.257 692.167 334.402 691.821 334.69C691.48 334.979 691.222 335.372 691.047 335.869C690.877 336.366 690.792 336.932 690.792 337.567C690.792 338.201 690.877 338.767 691.047 339.264C691.222 339.761 691.48 340.154 691.821 340.443C692.167 340.727 692.593 340.869 693.1 340.869ZM703.448 336.693V343H700.422V332.091H703.306V334.016H703.434C703.675 333.381 704.08 332.879 704.648 332.51C705.216 332.136 705.905 331.949 706.715 331.949C707.472 331.949 708.133 332.115 708.696 332.446C709.26 332.777 709.698 333.251 710.01 333.866C710.323 334.477 710.479 335.206 710.479 336.054V343H707.453V336.594C707.458 335.926 707.288 335.405 706.942 335.031C706.596 334.652 706.121 334.463 705.515 334.463C705.107 334.463 704.748 334.551 704.435 334.726C704.127 334.901 703.886 335.157 703.711 335.493C703.54 335.824 703.453 336.224 703.448 336.693Z" fill="#6F0000"/>
<path d="M456.284 231.202L453.514 231.372C453.467 231.135 453.365 230.922 453.209 230.733C453.053 230.539 452.847 230.385 452.591 230.271C452.34 230.153 452.039 230.094 451.689 230.094C451.22 230.094 450.825 230.193 450.503 230.392C450.181 230.586 450.02 230.847 450.02 231.173C450.02 231.434 450.124 231.654 450.332 231.834C450.541 232.014 450.898 232.158 451.405 232.267L453.379 232.665C454.44 232.883 455.231 233.233 455.751 233.716C456.272 234.199 456.533 234.833 456.533 235.619C456.533 236.334 456.322 236.962 455.901 237.501C455.484 238.041 454.911 238.463 454.182 238.766C453.457 239.064 452.622 239.213 451.675 239.213C450.231 239.213 449.08 238.912 448.223 238.311C447.371 237.705 446.871 236.881 446.724 235.839L449.7 235.683C449.79 236.124 450.008 236.46 450.354 236.692C450.699 236.919 451.142 237.033 451.682 237.033C452.212 237.033 452.638 236.931 452.96 236.727C453.287 236.519 453.453 236.251 453.457 235.925C453.453 235.65 453.337 235.425 453.109 235.25C452.882 235.07 452.532 234.933 452.058 234.838L450.169 234.462C449.104 234.249 448.311 233.879 447.79 233.354C447.274 232.828 447.016 232.158 447.016 231.344C447.016 230.643 447.205 230.039 447.584 229.533C447.967 229.026 448.505 228.635 449.196 228.361C449.892 228.086 450.706 227.949 451.639 227.949C453.017 227.949 454.101 228.24 454.892 228.822C455.688 229.405 456.152 230.198 456.284 231.202ZM463.367 239.213C462.264 239.213 461.31 238.979 460.505 238.51C459.704 238.036 459.087 237.378 458.651 236.536C458.215 235.688 457.998 234.705 457.998 233.588C457.998 232.461 458.215 231.476 458.651 230.634C459.087 229.786 459.704 229.128 460.505 228.659C461.31 228.186 462.264 227.949 463.367 227.949C464.47 227.949 465.422 228.186 466.222 228.659C467.027 229.128 467.647 229.786 468.083 230.634C468.518 231.476 468.736 232.461 468.736 233.588C468.736 234.705 468.518 235.688 468.083 236.536C467.647 237.378 467.027 238.036 466.222 238.51C465.422 238.979 464.47 239.213 463.367 239.213ZM463.381 236.869C463.883 236.869 464.302 236.727 464.638 236.443C464.974 236.154 465.228 235.761 465.398 235.264C465.573 234.767 465.661 234.201 465.661 233.567C465.661 232.932 465.573 232.366 465.398 231.869C465.228 231.372 464.974 230.979 464.638 230.69C464.302 230.402 463.883 230.257 463.381 230.257C462.874 230.257 462.448 230.402 462.103 230.69C461.762 230.979 461.504 231.372 461.328 231.869C461.158 232.366 461.073 232.932 461.073 233.567C461.073 234.201 461.158 234.767 461.328 235.264C461.504 235.761 461.762 236.154 462.103 236.443C462.448 236.727 462.874 236.869 463.381 236.869ZM473.729 224.455V239H470.703V224.455H473.729ZM483.148 234.355V228.091H486.174V239H483.269V237.018H483.156C482.909 237.658 482.5 238.171 481.927 238.56C481.359 238.948 480.665 239.142 479.846 239.142C479.117 239.142 478.475 238.976 477.921 238.645C477.367 238.313 476.934 237.842 476.621 237.232C476.314 236.621 476.157 235.889 476.153 235.037V228.091H479.178V234.497C479.183 235.141 479.356 235.65 479.697 236.024C480.038 236.398 480.495 236.585 481.067 236.585C481.432 236.585 481.773 236.502 482.09 236.337C482.407 236.166 482.663 235.915 482.857 235.584C483.056 235.252 483.153 234.843 483.148 234.355ZM494.397 228.091V230.364H487.827V228.091H494.397ZM489.319 225.477H492.344V235.648C492.344 235.927 492.387 236.145 492.472 236.301C492.557 236.453 492.676 236.559 492.827 236.621C492.983 236.682 493.163 236.713 493.367 236.713C493.509 236.713 493.651 236.701 493.793 236.678C493.935 236.649 494.044 236.628 494.12 236.614L494.596 238.865C494.444 238.912 494.231 238.967 493.956 239.028C493.682 239.095 493.348 239.135 492.955 239.149C492.226 239.178 491.587 239.08 491.037 238.858C490.493 238.635 490.069 238.29 489.766 237.821C489.463 237.352 489.314 236.76 489.319 236.045V225.477ZM496.368 239V228.091H499.393V239H496.368ZM497.887 226.685C497.438 226.685 497.052 226.536 496.73 226.237C496.413 225.934 496.254 225.572 496.254 225.151C496.254 224.734 496.413 224.376 496.73 224.078C497.052 223.775 497.438 223.624 497.887 223.624C498.337 223.624 498.721 223.775 499.038 224.078C499.36 224.376 499.521 224.734 499.521 225.151C499.521 225.572 499.36 225.934 499.038 226.237C498.721 226.536 498.337 226.685 497.887 226.685ZM506.746 239.213C505.643 239.213 504.688 238.979 503.884 238.51C503.083 238.036 502.465 237.378 502.03 236.536C501.594 235.688 501.376 234.705 501.376 233.588C501.376 232.461 501.594 231.476 502.03 230.634C502.465 229.786 503.083 229.128 503.884 228.659C504.688 228.186 505.643 227.949 506.746 227.949C507.849 227.949 508.801 228.186 509.601 228.659C510.406 229.128 511.026 229.786 511.462 230.634C511.897 231.476 512.115 232.461 512.115 233.588C512.115 234.705 511.897 235.688 511.462 236.536C511.026 237.378 510.406 238.036 509.601 238.51C508.801 238.979 507.849 239.213 506.746 239.213ZM506.76 236.869C507.262 236.869 507.681 236.727 508.017 236.443C508.353 236.154 508.607 235.761 508.777 235.264C508.952 234.767 509.04 234.201 509.04 233.567C509.04 232.932 508.952 232.366 508.777 231.869C508.607 231.372 508.353 230.979 508.017 230.69C507.681 230.402 507.262 230.257 506.76 230.257C506.253 230.257 505.827 230.402 505.482 230.69C505.141 230.979 504.883 231.372 504.707 231.869C504.537 232.366 504.452 232.932 504.452 233.567C504.452 234.201 504.537 234.767 504.707 235.264C504.883 235.761 505.141 236.154 505.482 236.443C505.827 236.727 506.253 236.869 506.76 236.869ZM517.108 232.693V239H514.082V228.091H516.966V230.016H517.094C517.335 229.381 517.74 228.879 518.308 228.51C518.876 228.136 519.565 227.949 520.375 227.949C521.133 227.949 521.793 228.115 522.357 228.446C522.92 228.777 523.358 229.251 523.67 229.866C523.983 230.477 524.139 231.206 524.139 232.054V239H521.114V232.594C521.118 231.926 520.948 231.405 520.602 231.031C520.257 230.652 519.781 230.463 519.175 230.463C518.768 230.463 518.408 230.551 518.095 230.726C517.787 230.901 517.546 231.157 517.371 231.493C517.2 231.824 517.113 232.224 517.108 232.693Z" fill="#01490D"/>
</svg>
