<svg width="818" height="290" viewBox="0 0 818 290" fill="none" xmlns="http://www.w3.org/2000/svg">
<rect x="341.5" y="182.5" width="59" height="59" fill="#13FDF5"/>
<rect x="341.5" y="182.5" width="59" height="59" stroke="black"/>
<path d="M364.84 222.5H362.255L369.732 202.136H372.278L379.755 222.5H377.17L371.085 205.358H370.925L364.84 222.5ZM365.795 214.545H376.215V216.733H365.795V214.545Z" fill="black"/>
<rect x="401.5" y="182.5" width="59" height="59" fill="#13FDF5"/>
<rect x="401.5" y="182.5" width="59" height="59" stroke="black"/>
<path d="M424.511 222.5V202.136H431.392C432.982 202.136 434.288 202.408 435.309 202.952C436.33 203.489 437.086 204.228 437.576 205.169C438.067 206.11 438.312 207.181 438.312 208.381C438.312 209.58 438.067 210.644 437.576 211.572C437.086 212.5 436.333 213.23 435.319 213.76C434.305 214.284 433.009 214.545 431.431 214.545H425.863V212.318H431.352C432.439 212.318 433.314 212.159 433.977 211.841C434.646 211.523 435.13 211.072 435.428 210.489C435.733 209.899 435.886 209.196 435.886 208.381C435.886 207.565 435.733 206.853 435.428 206.243C435.124 205.633 434.636 205.162 433.967 204.831C433.297 204.493 432.412 204.324 431.312 204.324H426.977V222.5H424.511ZM434.096 213.352L439.107 222.5H436.244L431.312 213.352H434.096Z" fill="black"/>
<rect x="461.5" y="182.5" width="59" height="59" fill="#13FDF5"/>
<rect x="461.5" y="182.5" width="59" height="59" stroke="black"/>
<path d="M485.099 222.5V202.136H497.388V204.324H487.565V211.205H496.752V213.392H487.565V220.312H497.548V222.5H485.099Z" fill="black"/>
<path d="M371.971 252.955V267.5H370.21V254.801H370.124L366.573 257.159V255.369L370.21 252.955H371.971Z" fill="black"/>
<path d="M425.451 267.5V266.222L430.252 260.966C430.816 260.35 431.28 259.815 431.644 259.361C432.009 258.902 432.279 258.471 432.454 258.068C432.634 257.661 432.724 257.235 432.724 256.79C432.724 256.278 432.601 255.836 432.354 255.462C432.113 255.088 431.781 254.799 431.36 254.595C430.939 254.392 430.465 254.29 429.94 254.29C429.381 254.29 428.893 254.406 428.477 254.638C428.065 254.865 427.745 255.185 427.518 255.597C427.295 256.009 427.184 256.491 427.184 257.045H425.508C425.508 256.193 425.704 255.445 426.097 254.801C426.49 254.157 427.025 253.655 427.702 253.295C428.384 252.936 429.149 252.756 429.996 252.756C430.849 252.756 431.604 252.936 432.262 253.295C432.92 253.655 433.436 254.141 433.81 254.751C434.184 255.362 434.371 256.042 434.371 256.79C434.371 257.325 434.274 257.848 434.08 258.359C433.891 258.866 433.559 259.432 433.086 260.057C432.617 260.677 431.966 261.435 431.133 262.33L427.866 265.824V265.938H434.627V267.5H425.451Z" fill="black"/>
<path d="M490.053 267.699C489.116 267.699 488.28 267.538 487.546 267.216C486.817 266.894 486.237 266.446 485.806 265.874C485.38 265.296 485.148 264.626 485.11 263.864H486.9C486.938 264.332 487.099 264.737 487.383 265.078C487.667 265.414 488.039 265.675 488.498 265.859C488.957 266.044 489.466 266.136 490.025 266.136C490.65 266.136 491.204 266.027 491.687 265.81C492.17 265.592 492.549 265.289 492.823 264.901C493.098 264.512 493.235 264.062 493.235 263.551C493.235 263.016 493.103 262.545 492.837 262.138C492.572 261.726 492.184 261.404 491.673 261.172C491.161 260.94 490.536 260.824 489.798 260.824H488.633V259.261H489.798C490.375 259.261 490.882 259.157 491.317 258.949C491.758 258.741 492.101 258.447 492.347 258.068C492.598 257.689 492.724 257.244 492.724 256.733C492.724 256.241 492.615 255.812 492.397 255.447C492.179 255.083 491.871 254.799 491.474 254.595C491.081 254.392 490.617 254.29 490.082 254.29C489.58 254.29 489.106 254.382 488.661 254.567C488.221 254.747 487.861 255.009 487.582 255.355C487.302 255.696 487.151 256.108 487.127 256.591H485.423C485.451 255.829 485.681 255.161 486.112 254.588C486.542 254.01 487.106 253.561 487.802 253.239C488.503 252.917 489.272 252.756 490.11 252.756C491.01 252.756 491.781 252.938 492.425 253.303C493.069 253.662 493.564 254.138 493.91 254.73C494.255 255.322 494.428 255.961 494.428 256.648C494.428 257.467 494.213 258.165 493.782 258.743C493.356 259.321 492.776 259.721 492.042 259.943V260.057C492.96 260.208 493.678 260.599 494.194 261.229C494.71 261.854 494.968 262.628 494.968 263.551C494.968 264.342 494.753 265.052 494.322 265.682C493.896 266.307 493.313 266.799 492.575 267.159C491.836 267.519 490.996 267.699 490.053 267.699Z" fill="black"/>
<path d="M129.971 22.9545V37.5H128.21V24.8011H128.124L124.573 27.1591V25.3693L128.21 22.9545H129.971Z" fill="black"/>
<path d="M183.451 37.5V36.2216L188.252 30.9659C188.816 30.3504 189.28 29.8153 189.644 29.3608C190.009 28.9015 190.279 28.4706 190.454 28.0682C190.634 27.661 190.724 27.2348 190.724 26.7898C190.724 26.2784 190.601 25.8357 190.354 25.4616C190.113 25.0876 189.781 24.7988 189.36 24.5952C188.939 24.3916 188.465 24.2898 187.94 24.2898C187.381 24.2898 186.893 24.4058 186.477 24.6378C186.065 24.8651 185.745 25.1847 185.518 25.5966C185.295 26.0085 185.184 26.4915 185.184 27.0455H183.508C183.508 26.1932 183.704 25.4451 184.097 24.8011C184.49 24.1572 185.025 23.6553 185.702 23.2955C186.384 22.9356 187.149 22.7557 187.996 22.7557C188.849 22.7557 189.604 22.9356 190.262 23.2955C190.92 23.6553 191.436 24.1406 191.81 24.7514C192.184 25.3622 192.371 26.0417 192.371 26.7898C192.371 27.3248 192.274 27.848 192.08 28.3594C191.891 28.866 191.559 29.4318 191.086 30.0568C190.617 30.6771 189.966 31.4347 189.133 32.3295L185.866 35.8239V35.9375H192.627V37.5H183.451Z" fill="black"/>
<path d="M248.053 37.6989C247.116 37.6989 246.28 37.5379 245.546 37.2159C244.817 36.8939 244.237 36.4465 243.806 35.8736C243.38 35.2959 243.148 34.6259 243.11 33.8636H244.9C244.938 34.3324 245.099 34.7372 245.383 35.0781C245.667 35.4143 246.039 35.6747 246.498 35.8594C246.957 36.044 247.466 36.1364 248.025 36.1364C248.65 36.1364 249.204 36.0275 249.687 35.8097C250.17 35.5919 250.549 35.2888 250.823 34.9006C251.098 34.5123 251.235 34.0625 251.235 33.5511C251.235 33.0161 251.103 32.545 250.837 32.1378C250.572 31.7259 250.184 31.4039 249.673 31.1719C249.161 30.9399 248.536 30.8239 247.798 30.8239H246.633V29.2614H247.798C248.375 29.2614 248.882 29.1572 249.317 28.9489C249.758 28.7405 250.101 28.447 250.347 28.0682C250.598 27.6894 250.724 27.2443 250.724 26.733C250.724 26.2405 250.615 25.812 250.397 25.4474C250.179 25.0829 249.871 24.7988 249.474 24.5952C249.081 24.3916 248.617 24.2898 248.082 24.2898C247.58 24.2898 247.106 24.3821 246.661 24.5668C246.221 24.7467 245.861 25.0095 245.582 25.3551C245.302 25.696 245.151 26.108 245.127 26.5909H243.423C243.451 25.8286 243.681 25.161 244.112 24.5881C244.542 24.0104 245.106 23.5606 245.802 23.2386C246.503 22.9167 247.272 22.7557 248.11 22.7557C249.01 22.7557 249.781 22.938 250.425 23.3026C251.069 23.6624 251.564 24.1383 251.91 24.7301C252.255 25.322 252.428 25.9612 252.428 26.6477C252.428 27.4669 252.213 28.1652 251.782 28.7429C251.356 29.3205 250.776 29.7206 250.042 29.9432V30.0568C250.96 30.2083 251.678 30.599 252.194 31.2287C252.71 31.8537 252.968 32.6278 252.968 33.5511C252.968 34.3419 252.753 35.0521 252.322 35.6818C251.896 36.3068 251.313 36.7992 250.575 37.1591C249.836 37.5189 248.996 37.6989 248.053 37.6989Z" fill="black"/>
<path d="M302.749 34.517V33.0682L309.141 22.9545H310.192V25.1989H309.482L304.652 32.8409V32.9545H313.26V34.517H302.749ZM309.595 37.5V34.0767V33.402V22.9545H311.271V37.5H309.595Z" fill="black"/>
<path d="M367.967 37.6989C367.134 37.6989 366.383 37.5331 365.716 37.2017C365.048 36.8703 364.513 36.4157 364.111 35.8381C363.708 35.2604 363.488 34.6023 363.45 33.8636H365.155C365.221 34.5218 365.519 35.0663 366.05 35.4972C366.585 35.9233 367.224 36.1364 367.967 36.1364C368.564 36.1364 369.094 35.9967 369.558 35.7173C370.027 35.438 370.394 35.0545 370.659 34.5668C370.929 34.0743 371.064 33.518 371.064 32.8977C371.064 32.2633 370.924 31.6974 370.645 31.2003C370.37 30.6984 369.991 30.303 369.508 30.0142C369.025 29.7254 368.474 29.5786 367.854 29.5739C367.408 29.5691 366.952 29.6378 366.483 29.7798C366.014 29.9171 365.628 30.0947 365.325 30.3125L363.677 30.1136L364.558 22.9545H372.115V24.517H366.035L365.524 28.8068H365.609C365.907 28.5701 366.282 28.3736 366.731 28.2173C367.181 28.0611 367.65 27.983 368.138 27.983C369.028 27.983 369.821 28.196 370.517 28.6222C371.218 29.0436 371.767 29.6212 372.165 30.3551C372.567 31.089 372.768 31.9271 372.768 32.8693C372.768 33.7973 372.56 34.6259 372.143 35.3551C371.731 36.0795 371.163 36.6525 370.439 37.0739C369.714 37.4905 368.89 37.6989 367.967 37.6989Z" fill="black"/>
<path d="M428.095 37.6989C427.498 37.6894 426.902 37.5758 426.305 37.358C425.709 37.1402 425.164 36.7732 424.672 36.2571C424.179 35.7363 423.784 35.0331 423.486 34.1477C423.187 33.2576 423.038 32.1402 423.038 30.7955C423.038 29.5076 423.159 28.3665 423.4 27.3722C423.642 26.3731 423.992 25.5327 424.452 24.8509C424.911 24.1643 425.465 23.6435 426.113 23.2884C426.767 22.9332 427.503 22.7557 428.322 22.7557C429.137 22.7557 429.861 22.919 430.496 23.2457C431.135 23.5677 431.656 24.0175 432.058 24.5952C432.461 25.1728 432.721 25.8381 432.839 26.5909H431.106C430.945 25.9375 430.633 25.3954 430.169 24.9645C429.705 24.5336 429.089 24.3182 428.322 24.3182C427.195 24.3182 426.308 24.8082 425.659 25.7884C425.015 26.7685 424.691 28.1439 424.686 29.9148H424.8C425.065 29.5123 425.38 29.169 425.744 28.8849C426.113 28.5961 426.521 28.3736 426.966 28.2173C427.411 28.0611 427.882 27.983 428.379 27.983C429.212 27.983 429.975 28.1913 430.666 28.608C431.357 29.0199 431.911 29.5904 432.328 30.3196C432.745 31.044 432.953 31.875 432.953 32.8125C432.953 33.7121 432.752 34.536 432.349 35.2841C431.947 36.0275 431.381 36.6193 430.652 37.0597C429.927 37.4953 429.075 37.7083 428.095 37.6989ZM428.095 36.1364C428.692 36.1364 429.227 35.9872 429.7 35.6889C430.178 35.3906 430.555 34.9905 430.829 34.4886C431.109 33.9867 431.248 33.428 431.248 32.8125C431.248 32.2112 431.113 31.6643 430.844 31.1719C430.578 30.6747 430.211 30.2794 429.743 29.9858C429.279 29.6922 428.748 29.5455 428.152 29.5455C427.702 29.5455 427.283 29.6354 426.895 29.8153C426.506 29.9905 426.166 30.232 425.872 30.5398C425.583 30.8475 425.356 31.2003 425.19 31.598C425.024 31.991 424.942 32.4053 424.942 32.8409C424.942 33.4186 425.077 33.9583 425.346 34.4602C425.621 34.9621 425.995 35.367 426.469 35.6747C426.947 35.9825 427.489 36.1364 428.095 36.1364Z" fill="black"/>
<path d="M484.247 37.5L490.753 24.6307V24.517H483.253V22.9545H492.571V24.6023L486.094 37.5H484.247Z" fill="black"/>
<path d="M548.003 37.6989C547.027 37.6989 546.166 37.526 545.417 37.1804C544.674 36.83 544.094 36.3494 543.677 35.7386C543.261 35.1231 543.055 34.4223 543.059 33.6364C543.055 33.0208 543.175 32.4527 543.422 31.9318C543.668 31.4062 544.004 30.9683 544.43 30.6179C544.861 30.2628 545.342 30.0379 545.872 29.9432V29.858C545.176 29.678 544.622 29.2874 544.21 28.6861C543.798 28.08 543.595 27.3911 543.599 26.6193C543.595 25.8807 543.782 25.2202 544.16 24.6378C544.539 24.0554 545.06 23.5961 545.723 23.2599C546.39 22.9238 547.15 22.7557 548.003 22.7557C548.845 22.7557 549.598 22.9238 550.261 23.2599C550.924 23.5961 551.445 24.0554 551.824 24.6378C552.207 25.2202 552.401 25.8807 552.406 26.6193C552.401 27.3911 552.191 28.08 551.774 28.6861C551.362 29.2874 550.815 29.678 550.133 29.858V29.9432C550.659 30.0379 551.132 30.2628 551.554 30.6179C551.975 30.9683 552.311 31.4062 552.562 31.9318C552.813 32.4527 552.941 33.0208 552.946 33.6364C552.941 34.4223 552.728 35.1231 552.307 35.7386C551.89 36.3494 551.31 36.83 550.567 37.1804C549.828 37.526 548.973 37.6989 548.003 37.6989ZM548.003 36.1364C548.661 36.1364 549.229 36.0298 549.707 35.8168C550.185 35.6037 550.555 35.303 550.815 34.9148C551.076 34.5265 551.208 34.072 551.213 33.5511C551.208 33.0019 551.066 32.5166 550.787 32.0952C550.507 31.6738 550.126 31.3423 549.643 31.1009C549.165 30.8594 548.618 30.7386 548.003 30.7386C547.382 30.7386 546.828 30.8594 546.341 31.1009C545.858 31.3423 545.477 31.6738 545.197 32.0952C544.923 32.5166 544.788 33.0019 544.792 33.5511C544.788 34.072 544.913 34.5265 545.169 34.9148C545.429 35.303 545.801 35.6037 546.284 35.8168C546.767 36.0298 547.34 36.1364 548.003 36.1364ZM548.003 29.233C548.523 29.233 548.985 29.1288 549.388 28.9205C549.795 28.7121 550.114 28.4209 550.346 28.0469C550.578 27.6728 550.697 27.2348 550.702 26.733C550.697 26.2405 550.581 25.812 550.354 25.4474C550.126 25.0781 549.811 24.794 549.409 24.5952C549.006 24.3916 548.538 24.2898 548.003 24.2898C547.458 24.2898 546.982 24.3916 546.575 24.5952C546.168 24.794 545.853 25.0781 545.631 25.4474C545.408 25.812 545.299 26.2405 545.304 26.733C545.299 27.2348 545.41 27.6728 545.638 28.0469C545.87 28.4209 546.189 28.7121 546.596 28.9205C547.004 29.1288 547.472 29.233 548.003 29.233Z" fill="black"/>
<path d="M607.896 22.7557C608.493 22.7604 609.089 22.8741 609.686 23.0966C610.282 23.3191 610.827 23.6884 611.319 24.2045C611.812 24.7159 612.207 25.4143 612.506 26.2997C612.804 27.1851 612.953 28.2955 612.953 29.6307C612.953 30.9233 612.83 32.0715 612.584 33.0753C612.342 34.0743 611.992 34.9171 611.532 35.6037C611.078 36.2902 610.524 36.8111 609.871 37.1662C609.222 37.5213 608.488 37.6989 607.669 37.6989C606.854 37.6989 606.128 37.5379 605.488 37.2159C604.854 36.8892 604.333 36.437 603.926 35.8594C603.523 35.277 603.265 34.6023 603.152 33.8352H604.885C605.041 34.5028 605.351 35.0545 605.815 35.4901C606.284 35.9209 606.902 36.1364 607.669 36.1364C608.791 36.1364 609.676 35.6463 610.325 34.6662C610.979 33.6861 611.305 32.3011 611.305 30.5114H611.192C610.926 30.9091 610.612 31.2524 610.247 31.5412C609.882 31.83 609.478 32.0526 609.032 32.2088C608.587 32.3651 608.114 32.4432 607.612 32.4432C606.779 32.4432 606.014 32.2372 605.318 31.8253C604.627 31.4086 604.073 30.8381 603.656 30.1136C603.244 29.3845 603.038 28.5511 603.038 27.6136C603.038 26.7235 603.237 25.9091 603.635 25.1705C604.037 24.4271 604.601 23.8352 605.325 23.3949C606.054 22.9545 606.911 22.7415 607.896 22.7557ZM607.896 24.3182C607.3 24.3182 606.762 24.4673 606.284 24.7656C605.81 25.0592 605.434 25.4569 605.155 25.9588C604.88 26.456 604.743 27.0076 604.743 27.6136C604.743 28.2197 604.875 28.7713 605.14 29.2685C605.41 29.7609 605.777 30.1539 606.241 30.4474C606.71 30.7363 607.243 30.8807 607.839 30.8807C608.289 30.8807 608.708 30.7931 609.096 30.6179C609.485 30.438 609.823 30.1941 610.112 29.8864C610.406 29.5739 610.635 29.2211 610.801 28.8281C610.967 28.4304 611.05 28.0161 611.05 27.5852C611.05 27.017 610.912 26.4844 610.638 25.9872C610.368 25.4901 609.994 25.0876 609.515 24.7798C609.042 24.4721 608.502 24.3182 607.896 24.3182Z" fill="black"/>
<path d="M663.721 22.9545V37.5H661.96V24.8011H661.874L658.323 27.1591V25.3693L661.96 22.9545H663.721ZM672.648 37.6989C671.578 37.6989 670.667 37.4077 669.914 36.8253C669.161 36.2382 668.586 35.3883 668.188 34.2756C667.79 33.1581 667.592 31.8087 667.592 30.2273C667.592 28.6553 667.79 27.313 668.188 26.2003C668.591 25.0829 669.168 24.2306 669.921 23.6435C670.679 23.0516 671.588 22.7557 672.648 22.7557C673.709 22.7557 674.616 23.0516 675.369 23.6435C676.126 24.2306 676.704 25.0829 677.102 26.2003C677.504 27.313 677.705 28.6553 677.705 30.2273C677.705 31.8087 677.506 33.1581 677.109 34.2756C676.711 35.3883 676.136 36.2382 675.383 36.8253C674.63 37.4077 673.719 37.6989 672.648 37.6989ZM672.648 36.1364C673.709 36.1364 674.533 35.625 675.12 34.6023C675.707 33.5795 676.001 32.1212 676.001 30.2273C676.001 28.9678 675.866 27.8954 675.596 27.0099C675.331 26.1245 674.947 25.4498 674.445 24.9858C673.948 24.5218 673.349 24.2898 672.648 24.2898C671.597 24.2898 670.776 24.8082 670.184 25.8452C669.592 26.8774 669.296 28.3381 669.296 30.2273C669.296 31.4867 669.429 32.5568 669.694 33.4375C669.959 34.3182 670.34 34.9882 670.837 35.4474C671.339 35.9067 671.943 36.1364 672.648 36.1364Z" fill="black"/>
<path d="M725.322 22.9545V37.5H723.561V24.8011H723.476L719.925 27.1591V25.3693L723.561 22.9545H725.322ZM734.619 22.9545V37.5H732.858V24.8011H732.773L729.222 27.1591V25.3693L732.858 22.9545H734.619Z" fill="black"/>
<path d="M783.916 22.9545V37.5H782.155V24.8011H782.07L778.518 27.1591V25.3693L782.155 22.9545H783.916ZM788.099 37.5V36.2216L792.901 30.9659C793.464 30.3504 793.928 29.8153 794.293 29.3608C794.657 28.9015 794.927 28.4706 795.102 28.0682C795.282 27.661 795.372 27.2348 795.372 26.7898C795.372 26.2784 795.249 25.8357 795.003 25.4616C794.761 25.0876 794.43 24.7988 794.009 24.5952C793.587 24.3916 793.114 24.2898 792.588 24.2898C792.029 24.2898 791.542 24.4058 791.125 24.6378C790.713 24.8651 790.393 25.1847 790.166 25.5966C789.944 26.0085 789.832 26.4915 789.832 27.0455H788.156C788.156 26.1932 788.353 25.4451 788.746 24.8011C789.139 24.1572 789.674 23.6553 790.351 23.2955C791.033 22.9356 791.797 22.7557 792.645 22.7557C793.497 22.7557 794.252 22.9356 794.911 23.2955C795.569 23.6553 796.085 24.1406 796.459 24.7514C796.833 25.3622 797.02 26.0417 797.02 26.7898C797.02 27.3248 796.923 27.848 796.729 28.3594C796.539 28.866 796.208 29.4318 795.734 30.0568C795.266 30.6771 794.615 31.4347 793.781 32.3295L790.514 35.8239V35.9375H797.276V37.5H788.099Z" fill="black"/>
<rect x="98.5" y="48.5" width="59" height="59" stroke="black"/>
<path d="M120.103 88.5V68.1364H122.569V77.2045H133.426V68.1364H135.892V88.5H133.426V79.392H122.569V88.5H120.103Z" fill="black"/>
<rect x="158.5" y="48.5" width="59" height="59" stroke="black"/>
<path d="M196.984 78.3182C196.984 80.4659 196.596 82.322 195.82 83.8864C195.045 85.4508 193.981 86.6572 192.629 87.5057C191.276 88.3542 189.732 88.7784 187.995 88.7784C186.258 88.7784 184.714 88.3542 183.362 87.5057C182.009 86.6572 180.945 85.4508 180.17 83.8864C179.394 82.322 179.006 80.4659 179.006 78.3182C179.006 76.1705 179.394 74.3144 180.17 72.75C180.945 71.1856 182.009 69.9792 183.362 69.1307C184.714 68.2822 186.258 67.858 187.995 67.858C189.732 67.858 191.276 68.2822 192.629 69.1307C193.981 69.9792 195.045 71.1856 195.82 72.75C196.596 74.3144 196.984 76.1705 196.984 78.3182ZM194.597 78.3182C194.597 76.5549 194.302 75.0668 193.712 73.8537C193.129 72.6406 192.337 71.7225 191.336 71.0994C190.342 70.4763 189.228 70.1648 187.995 70.1648C186.762 70.1648 185.645 70.4763 184.644 71.0994C183.65 71.7225 182.858 72.6406 182.268 73.8537C181.684 75.0668 181.393 76.5549 181.393 78.3182C181.393 80.0814 181.684 81.5696 182.268 82.7827C182.858 83.9957 183.65 84.9138 184.644 85.5369C185.645 86.16 186.762 86.4716 187.995 86.4716C189.228 86.4716 190.342 86.16 191.336 85.5369C192.337 84.9138 193.129 83.9957 193.712 82.7827C194.302 81.5696 194.597 80.0814 194.597 78.3182Z" fill="black"/>
<rect x="218.5" y="48.5" width="59" height="59" stroke="black"/>
<path d="M240.876 88.5L235.308 68.1364H237.813L242.069 84.7216H242.268L246.603 68.1364H249.387L253.722 84.7216H253.921L258.177 68.1364H260.683L255.114 88.5H252.569L248.075 72.2727H247.915L243.421 88.5H240.876Z" fill="black"/>
<rect x="278.5" y="48.5" width="59" height="59" stroke="black"/>
<rect x="338.5" y="48.5" width="59" height="59" fill="#FF9595"/>
<rect x="338.5" y="48.5" width="59" height="59" stroke="black"/>
<path d="M361.84 88.5H359.255L366.732 68.1364H369.278L376.755 88.5H374.17L368.085 71.358H367.925L361.84 88.5ZM362.795 80.5455H373.215V82.733H362.795V80.5455Z" fill="black"/>
<rect x="398.5" y="48.5" width="59" height="59" fill="#FF9595"/>
<rect x="398.5" y="48.5" width="59" height="59" stroke="black"/>
<path d="M421.511 88.5V68.1364H428.392C429.982 68.1364 431.288 68.4081 432.309 68.9517C433.33 69.4886 434.086 70.2277 434.576 71.169C435.067 72.1103 435.312 73.1809 435.312 74.3807C435.312 75.5805 435.067 76.6444 434.576 77.5724C434.086 78.5005 433.333 79.2296 432.319 79.7599C431.305 80.2836 430.009 80.5455 428.431 80.5455H422.863V78.3182H428.352C429.439 78.3182 430.314 78.1591 430.977 77.8409C431.646 77.5227 432.13 77.072 432.428 76.4886C432.733 75.8987 432.886 75.196 432.886 74.3807C432.886 73.5653 432.733 72.8527 432.428 72.2429C432.124 71.633 431.636 71.1624 430.967 70.831C430.297 70.4929 429.412 70.3239 428.312 70.3239H423.977V88.5H421.511ZM431.096 79.3523L436.107 88.5H433.244L428.312 79.3523H431.096Z" fill="black"/>
<rect x="458.5" y="48.5" width="59" height="59" fill="#FF9595"/>
<rect x="458.5" y="48.5" width="59" height="59" stroke="black"/>
<path d="M482.099 88.5V68.1364H494.388V70.3239H484.565V77.2045H493.752V79.392H484.565V86.3125H494.548V88.5H482.099Z" fill="black"/>
<rect x="518.5" y="48.5" width="59" height="59" stroke="black"/>
<rect x="578.5" y="48.5" width="59" height="59" stroke="black"/>
<path d="M599.405 68.1364H602.229L607.877 77.642H608.116L613.763 68.1364H616.587L609.229 80.108V88.5H606.763V80.108L599.405 68.1364Z" fill="black"/>
<rect x="638.5" y="48.5" width="59" height="59" stroke="black"/>
<path d="M676.984 78.3182C676.984 80.4659 676.596 82.322 675.82 83.8864C675.045 85.4508 673.981 86.6572 672.629 87.5057C671.276 88.3542 669.732 88.7784 667.995 88.7784C666.258 88.7784 664.714 88.3542 663.362 87.5057C662.009 86.6572 660.945 85.4508 660.17 83.8864C659.394 82.322 659.006 80.4659 659.006 78.3182C659.006 76.1705 659.394 74.3144 660.17 72.75C660.945 71.1856 662.009 69.9792 663.362 69.1307C664.714 68.2822 666.258 67.858 667.995 67.858C669.732 67.858 671.276 68.2822 672.629 69.1307C673.981 69.9792 675.045 71.1856 675.82 72.75C676.596 74.3144 676.984 76.1705 676.984 78.3182ZM674.597 78.3182C674.597 76.5549 674.302 75.0668 673.712 73.8537C673.129 72.6406 672.337 71.7225 671.336 71.0994C670.342 70.4763 669.228 70.1648 667.995 70.1648C666.762 70.1648 665.645 70.4763 664.644 71.0994C663.65 71.7225 662.858 72.6406 662.268 73.8537C661.684 75.0668 661.393 76.5549 661.393 78.3182C661.393 80.0814 661.684 81.5696 662.268 82.7827C662.858 83.9957 663.65 84.9138 664.644 85.5369C665.645 86.16 666.762 86.4716 667.995 86.4716C669.228 86.4716 670.342 86.16 671.336 85.5369C672.337 84.9138 673.129 83.9957 673.712 82.7827C674.302 81.5696 674.597 80.0814 674.597 78.3182Z" fill="black"/>
<rect x="698.5" y="48.5" width="59" height="59" stroke="black"/>
<path d="M733.453 68.1364H735.919V81.6193C735.919 83.0114 735.59 84.2543 734.934 85.348C734.285 86.4351 733.366 87.2936 732.18 87.9233C730.993 88.5464 729.601 88.858 728.004 88.858C726.406 88.858 725.014 88.5464 723.828 87.9233C722.641 87.2936 721.72 86.4351 721.063 85.348C720.414 84.2543 720.089 83.0114 720.089 81.6193V68.1364H722.555V81.4205C722.555 82.4148 722.774 83.2997 723.211 84.0753C723.649 84.8442 724.272 85.4508 725.08 85.8949C725.896 86.3324 726.87 86.5511 728.004 86.5511C729.137 86.5511 730.112 86.3324 730.927 85.8949C731.742 85.4508 732.365 84.8442 732.796 84.0753C733.234 83.2997 733.453 82.4148 733.453 81.4205V68.1364Z" fill="black"/>
<rect x="758.5" y="48.5" width="59" height="59" stroke="black"/>
<path d="M786.115 82.7727V82.6534C786.128 81.3873 786.26 80.3797 786.512 79.6307C786.764 78.8816 787.122 78.2751 787.586 77.8111C788.05 77.3471 788.607 76.9195 789.257 76.5284C789.648 76.2898 789.999 76.008 790.311 75.6832C790.622 75.3518 790.867 74.9706 791.046 74.5398C791.232 74.1089 791.325 73.6316 791.325 73.108C791.325 72.4583 791.172 71.8949 790.867 71.4176C790.562 70.9403 790.155 70.5724 789.644 70.3139C789.134 70.0554 788.567 69.9261 787.944 69.9261C787.401 69.9261 786.877 70.0388 786.373 70.2642C785.869 70.4896 785.448 70.8442 785.11 71.3281C784.772 71.812 784.577 72.4451 784.524 73.2273H782.018C782.071 72.1004 782.363 71.1359 782.893 70.3338C783.43 69.5317 784.136 68.9186 785.011 68.4943C785.892 68.0701 786.87 67.858 787.944 67.858C789.111 67.858 790.125 68.09 790.987 68.554C791.855 69.018 792.525 69.6544 792.995 70.4631C793.472 71.2718 793.711 72.1932 793.711 73.2273C793.711 73.9564 793.598 74.616 793.373 75.206C793.154 75.7959 792.836 76.3229 792.419 76.7869C792.008 77.2509 791.51 77.6619 790.927 78.0199C790.344 78.3845 789.876 78.7689 789.525 79.1733C789.174 79.571 788.919 80.045 788.759 80.5952C788.6 81.1454 788.514 81.8314 788.501 82.6534V82.7727H786.115ZM787.387 88.6591C786.897 88.6591 786.476 88.4834 786.124 88.1321C785.773 87.7808 785.597 87.3598 785.597 86.8693C785.597 86.3788 785.773 85.9579 786.124 85.6065C786.476 85.2552 786.897 85.0795 787.387 85.0795C787.878 85.0795 788.299 85.2552 788.65 85.6065C789.001 85.9579 789.177 86.3788 789.177 86.8693C789.177 87.1941 789.094 87.4924 788.928 87.7642C788.769 88.036 788.554 88.2547 788.282 88.4205C788.017 88.5795 787.719 88.6591 787.387 88.6591Z" fill="black"/>
<path d="M430.697 107.283C430.302 106.898 429.669 106.907 429.283 107.303L423.006 113.752C422.621 114.148 422.629 114.781 423.025 115.166C423.421 115.551 424.054 115.543 424.439 115.147L430.019 109.414L435.752 114.994C436.148 115.379 436.781 115.371 437.166 114.975C437.551 114.579 437.543 113.946 437.147 113.561L430.697 107.283ZM430.303 182.717C430.698 183.102 431.331 183.093 431.717 182.697L437.994 176.248C438.379 175.852 438.371 175.219 437.975 174.834C437.579 174.449 436.946 174.457 436.561 174.853L430.981 180.586L425.248 175.006C424.852 174.621 424.219 174.629 423.834 175.025C423.449 175.421 423.457 176.054 423.853 176.439L430.303 182.717ZM429 108.014L430 182.014L432 181.986L431 107.986L429 108.014Z" fill="black"/>
<path d="M491.697 107.283C491.302 106.898 490.669 106.907 490.283 107.303L484.006 113.752C483.621 114.148 483.629 114.781 484.025 115.166C484.421 115.551 485.054 115.543 485.439 115.147L491.019 109.414L496.752 114.994C497.148 115.379 497.781 115.371 498.166 114.975C498.551 114.579 498.543 113.946 498.147 113.561L491.697 107.283ZM491.303 182.717C491.698 183.102 492.331 183.093 492.717 182.697L498.994 176.248C499.379 175.852 499.371 175.219 498.975 174.834C498.579 174.449 497.946 174.457 497.561 174.853L491.981 180.586L486.248 175.006C485.852 174.621 485.219 174.629 484.834 175.025C484.449 175.421 484.457 176.054 484.853 176.439L491.303 182.717ZM490 108.014L491 182.014L493 181.986L492 107.986L490 108.014Z" fill="black"/>
<path d="M369.697 107.283C369.302 106.898 368.669 106.907 368.283 107.303L362.006 113.752C361.621 114.148 361.629 114.781 362.025 115.166C362.421 115.551 363.054 115.543 363.439 115.147L369.019 109.414L374.752 114.994C375.148 115.379 375.781 115.371 376.166 114.975C376.551 114.579 376.543 113.946 376.147 113.561L369.697 107.283ZM369.303 182.717C369.698 183.102 370.331 183.093 370.717 182.697L376.994 176.248C377.379 175.852 377.371 175.219 376.975 174.834C376.579 174.449 375.946 174.457 375.561 174.853L369.981 180.586L364.248 175.006C363.852 174.621 363.219 174.629 362.834 175.025C362.449 175.421 362.457 176.054 362.853 176.439L369.303 182.717ZM368 108.014L369 182.014L371 181.986L370 107.986L368 108.014Z" fill="black"/>
<path d="M6.08523 73.9901V71.4545H18.0312V73.9901H13.5781V86H10.5384V73.9901H6.08523ZM19.9986 86V71.4545H29.7997V73.9901H23.0739V77.456H29.2955V79.9915H23.0739V83.4645H29.8281V86H19.9986ZM35.1282 71.4545L38.0614 76.4119H38.1751L41.1225 71.4545H44.5955L40.1566 78.7273L44.695 86H41.158L38.1751 81.0355H38.0614L35.0785 86H31.5558L36.1083 78.7273L31.641 71.4545H35.1282ZM45.9876 73.9901V71.4545H57.9336V73.9901H53.4805V86H50.4407V73.9901H45.9876ZM63.9759 73.9901V71.4545H75.9219V73.9901H71.4688V86H68.429V73.9901H63.9759Z" fill="black"/>
<path d="M3.85014 220V205.455H9.58878C10.692 205.455 11.6319 205.665 12.4084 206.087C13.1849 206.503 13.7768 207.083 14.1839 207.827C14.5959 208.565 14.8018 209.418 14.8018 210.384C14.8018 211.349 14.5935 212.202 14.1768 212.94C13.7602 213.679 13.1565 214.254 12.3658 214.666C11.5798 215.078 10.6281 215.284 9.51065 215.284H5.85298V212.82H9.01349C9.60535 212.82 10.093 212.718 10.4766 212.514C10.8648 212.306 11.1536 212.019 11.343 211.655C11.5372 211.286 11.6342 210.862 11.6342 210.384C11.6342 209.901 11.5372 209.479 11.343 209.119C11.1536 208.755 10.8648 208.473 10.4766 208.274C10.0883 208.071 9.59588 207.969 8.99929 207.969H6.92543V220H3.85014ZM17.6268 220H14.3313L19.3526 205.455H23.3157L28.3299 220H25.0344L21.391 208.778H21.2773L17.6268 220ZM17.4208 214.283H25.2049V216.683H17.4208V214.283ZM27.7493 207.99V205.455H39.6953V207.99H35.2422V220H32.2024V207.99H27.7493ZM41.1087 207.99V205.455H53.0547V207.99H48.6016V220H45.5618V207.99H41.1087ZM55.022 220V205.455H64.8232V207.99H58.0973V211.456H64.3189V213.991H58.0973V217.464H64.8516V220H55.022ZM67.2681 220V205.455H73.0067C74.1052 205.455 75.0427 205.651 75.8192 206.044C76.6005 206.432 77.1947 206.984 77.6019 207.699C78.0138 208.409 78.2198 209.245 78.2198 210.206C78.2198 211.172 78.0115 212.003 77.5948 212.699C77.1781 213.39 76.5745 213.92 75.7837 214.29C74.9978 214.659 74.046 214.844 72.9286 214.844H69.0863V212.372H72.4315C73.0186 212.372 73.5063 212.292 73.8945 212.131C74.2828 211.97 74.5716 211.728 74.761 211.406C74.9551 211.084 75.0522 210.684 75.0522 210.206C75.0522 209.723 74.9551 209.316 74.761 208.984C74.5716 208.653 74.2804 208.402 73.8874 208.232C73.4992 208.056 73.0091 207.969 72.4173 207.969H70.3434V220H67.2681ZM75.1232 213.381L78.7383 220H75.3434L71.8065 213.381H75.1232ZM92.5593 205.455V220H89.9031L83.5749 210.845H83.4684V220H80.3931V205.455H83.092L89.3704 214.602H89.4982V205.455H92.5593ZM99.729 220V205.455H105.468C106.571 205.455 107.511 205.665 108.287 206.087C109.064 206.503 109.656 207.083 110.063 207.827C110.475 208.565 110.681 209.418 110.681 210.384C110.681 211.349 110.472 212.202 110.056 212.94C109.639 213.679 109.035 214.254 108.245 214.666C107.459 215.078 106.507 215.284 105.39 215.284H101.732V212.82H104.892C105.484 212.82 105.972 212.718 106.355 212.514C106.744 212.306 107.033 212.019 107.222 211.655C107.416 211.286 107.513 210.862 107.513 210.384C107.513 209.901 107.416 209.479 107.222 209.119C107.033 208.755 106.744 208.473 106.355 208.274C105.967 208.071 105.475 207.969 104.878 207.969H102.804V220H99.729Z" fill="black"/>
<path d="M341.707 212.707C342.098 212.317 342.098 211.683 341.707 211.293L335.343 204.929C334.953 204.538 334.319 204.538 333.929 204.929C333.538 205.319 333.538 205.953 333.929 206.343L339.586 212L333.929 217.657C333.538 218.047 333.538 218.681 333.929 219.071C334.319 219.462 334.953 219.462 335.343 219.071L341.707 212.707ZM126 213H341V211H126V213Z" fill="black"/>
<path d="M225.593 198.09C225.543 197.625 225.333 197.262 224.964 197.003C224.598 196.744 224.122 196.614 223.536 196.614C223.124 196.614 222.771 196.676 222.476 196.801C222.182 196.925 221.956 197.094 221.8 197.307C221.644 197.52 221.564 197.763 221.56 198.037C221.56 198.264 221.612 198.461 221.715 198.628C221.821 198.795 221.965 198.937 222.146 199.054C222.327 199.168 222.528 199.263 222.748 199.342C222.968 199.42 223.19 199.485 223.414 199.539L224.437 199.794C224.849 199.89 225.244 200.02 225.624 200.183C226.008 200.347 226.351 200.553 226.653 200.801C226.958 201.05 227.199 201.35 227.377 201.701C227.555 202.053 227.643 202.465 227.643 202.937C227.643 203.576 227.48 204.139 227.153 204.626C226.827 205.109 226.354 205.487 225.736 205.76C225.122 206.03 224.378 206.165 223.504 206.165C222.656 206.165 221.919 206.034 221.294 205.771C220.672 205.508 220.186 205.125 219.834 204.62C219.486 204.116 219.298 203.502 219.27 202.777H221.214C221.242 203.157 221.36 203.473 221.566 203.725C221.771 203.978 222.04 204.166 222.37 204.29C222.704 204.414 223.077 204.477 223.488 204.477C223.918 204.477 224.295 204.413 224.618 204.285C224.944 204.153 225.2 203.972 225.385 203.741C225.569 203.507 225.664 203.234 225.667 202.921C225.664 202.637 225.58 202.403 225.417 202.218C225.253 202.03 225.024 201.874 224.73 201.749C224.438 201.621 224.097 201.508 223.707 201.408L222.466 201.089C221.567 200.858 220.857 200.508 220.335 200.039C219.817 199.567 219.557 198.94 219.557 198.159C219.557 197.516 219.731 196.953 220.079 196.471C220.431 195.988 220.909 195.613 221.512 195.347C222.116 195.077 222.8 194.942 223.563 194.942C224.337 194.942 225.015 195.077 225.598 195.347C226.184 195.613 226.644 195.984 226.977 196.46C227.311 196.932 227.483 197.475 227.494 198.09H225.593ZM229.831 199.661V198.021H236.921V199.661H229.831ZM229.831 203.07V201.43H236.921V203.07H229.831ZM239.194 203.976V202.404L243.823 195.091H245.134V197.328H244.335L241.218 202.266V202.351H247.68V203.976H239.194ZM244.398 206V203.496L244.42 202.793V195.091H246.284V206H244.398Z" fill="black"/>
</svg>
